<svg width="3461" height="3150" viewBox="0 0 3461 3150" fill="none" xmlns="http://www.w3.org/2000/svg">
<path d="M68.9288 1474.33C72.854 1480.82 108.651 1543.83 42.995 1584.46L43 1584.46C108.656 1543.83 149.074 1603.99 153.123 1610.39C149.198 1603.91 113.401 1540.9 179.056 1500.27L179.051 1500.26C113.396 1540.89 72.9778 1480.74 68.9288 1474.33Z" fill="#C1F4F8"/>
<path d="M221.991 1379.62C225.916 1386.1 261.713 1449.11 196.057 1489.74L196.063 1489.74C261.718 1449.12 302.136 1509.27 306.186 1515.67C302.26 1509.19 266.463 1446.18 332.119 1405.55L332.114 1405.54C266.458 1446.17 226.04 1386.02 221.991 1379.62Z" fill="#C1F4F8"/>
<path d="M375.056 1284.9C378.981 1291.38 414.778 1354.39 349.122 1395.02L349.127 1395.03C414.783 1354.4 455.201 1414.55 459.25 1420.95C455.325 1414.47 419.528 1351.46 485.183 1310.83L485.178 1310.82C419.523 1351.45 379.105 1291.3 375.056 1284.9Z" fill="#C1F4F8"/>
<path d="M528.118 1190.18C532.043 1196.66 567.84 1259.67 502.184 1300.3L502.189 1300.31C567.845 1259.68 608.263 1319.83 612.312 1326.23C608.387 1319.75 572.59 1256.74 638.246 1216.11L638.241 1216.11C572.585 1256.73 532.167 1196.58 528.118 1190.18Z" fill="#C1F4F8"/>
<path d="M681.183 1095.46C685.108 1101.94 720.905 1164.95 655.249 1205.58L655.254 1205.59C720.91 1164.96 761.328 1225.11 765.377 1231.52C761.452 1225.03 725.655 1162.02 791.31 1121.4L791.305 1121.39C725.65 1162.02 685.232 1101.86 681.183 1095.46Z" fill="#C1F4F8"/>
<path d="M834.245 1000.74C838.17 1007.22 873.967 1070.23 808.311 1110.86L808.316 1110.87C873.972 1070.24 914.39 1130.39 918.439 1136.8C914.514 1130.32 878.717 1067.31 944.373 1026.68L944.368 1026.67C878.712 1067.3 838.294 1007.15 834.245 1000.74Z" fill="#C1F4F8"/>
<path d="M987.31 906.023C991.235 912.504 1027.03 975.515 961.376 1016.14L961.381 1016.15C1027.04 975.523 1067.45 1035.67 1071.5 1042.08C1067.58 1035.6 1031.78 972.587 1097.44 931.958L1097.43 931.95C1031.78 972.579 991.359 912.428 987.31 906.023Z" fill="#C1F4F8"/>
<path d="M1140.37 811.304C1144.3 817.786 1180.09 880.797 1114.44 921.425L1114.44 921.434C1180.1 880.805 1220.52 940.956 1224.57 947.36C1220.64 940.879 1184.84 877.868 1250.5 837.239L1250.49 837.231C1184.84 877.86 1144.42 817.709 1140.37 811.304Z" fill="#C1F4F8"/>
<path d="M1293.44 716.586C1297.36 723.067 1333.16 786.078 1267.5 826.707L1267.51 826.715C1333.16 786.086 1373.58 846.237 1377.63 852.642C1373.71 846.161 1337.91 783.15 1403.56 742.521L1403.56 742.513C1337.9 783.142 1297.49 722.991 1293.44 716.586Z" fill="#C1F4F8"/>
<path d="M1446.5 621.868C1450.42 628.349 1486.22 691.36 1420.57 731.989L1420.57 731.997C1486.23 691.368 1526.64 751.519 1530.69 757.924C1526.77 751.443 1490.97 688.432 1556.63 647.803L1556.62 647.795C1490.97 688.424 1450.55 628.272 1446.5 621.868Z" fill="#C1F4F8"/>
<path d="M1599.56 527.149C1603.49 533.63 1639.29 596.641 1573.63 637.27L1573.63 637.278C1639.29 596.649 1679.71 656.8 1683.76 663.205C1679.83 656.724 1644.04 593.713 1709.69 553.084L1709.69 553.076C1644.03 593.705 1603.61 533.554 1599.56 527.149Z" fill="#C1F4F8"/>
<path d="M1752.63 432.43C1756.55 438.912 1792.35 501.922 1726.69 542.551L1726.7 542.56C1792.35 501.931 1832.77 562.082 1836.82 568.486C1832.9 562.005 1797.1 498.994 1862.75 458.365L1862.75 458.357C1797.09 498.986 1756.68 438.835 1752.63 432.43Z" fill="#C1F4F8"/>
<path d="M1905.69 337.712C1909.62 344.193 1945.41 407.204 1879.76 447.833L1879.76 447.841C1945.42 407.212 1985.84 467.363 1989.88 473.768C1985.96 467.287 1950.16 404.276 2015.82 363.647L2015.81 363.639C1950.16 404.268 1909.74 344.117 1905.69 337.712Z" fill="#C1F4F8"/>
<path d="M2058.75 242.993C2062.68 249.474 2098.47 312.485 2032.82 353.114L2032.82 353.123C2098.48 312.494 2138.9 372.645 2142.95 379.049C2139.02 372.568 2103.22 309.557 2168.88 268.928L2168.88 268.92C2103.22 309.549 2062.8 249.398 2058.75 242.993Z" fill="#C1F4F8"/>
<path d="M2211.82 148.275C2215.74 154.756 2251.54 217.767 2185.88 258.396L2185.89 258.404C2251.54 217.775 2291.96 277.926 2296.01 284.331C2292.08 277.85 2256.29 214.839 2321.94 174.21L2321.94 174.202C2256.28 214.831 2215.86 154.68 2211.82 148.275Z" fill="#C1F4F8"/>
<path d="M2364.88 53.5561C2368.81 60.0375 2404.6 123.048 2338.95 163.677L2338.95 163.686C2404.61 123.057 2445.03 183.208 2449.07 189.612C2445.15 183.131 2409.35 120.12 2475.01 79.4914L2475 79.4832C2409.35 120.112 2368.93 59.9608 2364.88 53.5561Z" fill="#C1F4F8"/>
<path d="M237.317 1746.45C241.243 1752.93 277.039 1815.94 211.384 1856.57L211.389 1856.58C277.044 1815.95 317.463 1876.1 321.512 1882.5C317.586 1876.02 281.789 1813.01 347.445 1772.38L347.44 1772.37C281.784 1813 241.366 1752.85 237.317 1746.45Z" fill="#C1F4F8"/>
<path d="M390.38 1651.73C394.305 1658.21 430.102 1721.22 364.446 1761.85L364.451 1761.86C430.107 1721.23 470.525 1781.38 474.574 1787.78C470.649 1781.3 434.852 1718.29 500.508 1677.66L500.503 1677.66C434.847 1718.28 394.429 1658.13 390.38 1651.73Z" fill="#C1F4F8"/>
<path d="M543.444 1557.01C547.37 1563.49 583.166 1626.5 517.511 1667.13L517.516 1667.14C583.171 1626.51 623.59 1686.66 627.639 1693.07C623.713 1686.58 587.916 1623.57 653.572 1582.94L653.567 1582.94C587.911 1623.57 547.493 1563.41 543.444 1557.01Z" fill="#C1F4F8"/>
<path d="M696.507 1462.29C700.432 1468.77 736.229 1531.78 670.573 1572.41L670.578 1572.42C736.234 1531.79 776.652 1591.94 780.701 1598.35C776.776 1591.87 740.979 1528.86 806.635 1488.23L806.629 1488.22C740.974 1528.85 700.556 1468.7 696.507 1462.29Z" fill="#C1F4F8"/>
<path d="M849.571 1367.57C853.497 1374.05 889.293 1437.07 823.638 1477.69L823.643 1477.7C889.298 1437.07 929.717 1497.22 933.766 1503.63C929.84 1497.15 894.043 1434.14 959.699 1393.51L959.694 1393.5C894.038 1434.13 853.62 1373.98 849.571 1367.57Z" fill="#C1F4F8"/>
<path d="M1002.63 1272.85C1006.56 1279.34 1042.36 1342.35 976.7 1382.98L976.705 1382.98C1042.36 1342.35 1082.78 1402.51 1086.83 1408.91C1082.9 1402.43 1047.11 1339.42 1112.76 1298.79L1112.76 1298.78C1047.1 1339.41 1006.68 1279.26 1002.63 1272.85Z" fill="#C1F4F8"/>
<path d="M1155.7 1178.14C1159.62 1184.62 1195.42 1247.63 1129.76 1288.26L1129.77 1288.27C1195.43 1247.64 1235.84 1307.79 1239.89 1314.19C1235.97 1307.71 1200.17 1244.7 1265.83 1204.07L1265.82 1204.06C1200.17 1244.69 1159.75 1184.54 1155.7 1178.14Z" fill="#C1F4F8"/>
<path d="M1308.76 1083.42C1312.69 1089.9 1348.48 1152.91 1282.83 1193.54L1282.83 1193.55C1348.49 1152.92 1388.91 1213.07 1392.96 1219.47C1389.03 1212.99 1353.23 1149.98 1418.89 1109.35L1418.88 1109.34C1353.23 1149.97 1312.81 1089.82 1308.76 1083.42Z" fill="#C1F4F8"/>
<path d="M1461.83 988.699C1465.75 995.18 1501.55 1058.19 1435.89 1098.82L1435.9 1098.83C1501.55 1058.2 1541.97 1118.35 1546.02 1124.76C1542.09 1118.27 1506.3 1055.26 1571.95 1014.63L1571.95 1014.63C1506.29 1055.25 1465.87 995.103 1461.83 988.699Z" fill="#C1F4F8"/>
<path d="M1614.89 893.98C1618.81 900.462 1654.61 963.473 1588.95 1004.1L1588.96 1004.11C1654.61 963.481 1695.03 1023.63 1699.08 1030.04C1695.16 1023.56 1659.36 960.545 1725.02 919.916L1725.01 919.907C1659.35 960.536 1618.94 900.385 1614.89 893.98Z" fill="#C1F4F8"/>
<path d="M1767.95 799.262C1771.88 805.743 1807.67 868.754 1742.02 909.383L1742.02 909.391C1807.68 868.762 1848.1 928.913 1852.15 935.318C1848.22 928.837 1812.42 865.826 1878.08 825.197L1878.07 825.189C1812.42 865.818 1772 805.666 1767.95 799.262Z" fill="#C1F4F8"/>
<path d="M1921.01 704.543C1924.94 711.024 1960.74 774.035 1895.08 814.664L1895.09 814.672C1960.74 774.043 2001.16 834.194 2005.21 840.599C2001.28 834.118 1965.49 771.107 2031.14 730.478L2031.14 730.47C1965.48 771.099 1925.06 710.948 1921.01 704.543Z" fill="#C1F4F8"/>
<path d="M2074.08 609.825C2078 616.306 2113.8 679.317 2048.15 719.946L2048.15 719.954C2113.81 679.325 2154.22 739.476 2158.27 745.881C2154.35 739.4 2118.55 676.389 2184.21 635.76L2184.2 635.752C2118.55 676.381 2078.13 616.229 2074.08 609.825Z" fill="#C1F4F8"/>
<path d="M2227.14 515.106C2231.07 521.587 2266.86 584.598 2201.21 625.227L2201.21 625.235C2266.87 584.606 2307.29 644.757 2311.34 651.162C2307.41 644.681 2271.61 581.67 2337.27 541.041L2337.26 541.033C2271.61 581.662 2231.19 521.511 2227.14 515.106Z" fill="#C1F4F8"/>
<path d="M2380.2 420.388C2384.13 426.869 2419.93 489.88 2354.27 530.509L2354.28 530.517C2419.93 489.888 2460.35 550.039 2464.4 556.444C2460.47 549.963 2424.68 486.952 2490.33 446.323L2490.33 446.315C2424.67 486.944 2384.25 426.792 2380.2 420.388Z" fill="#C1F4F8"/>
<path d="M2533.27 325.669C2537.19 332.15 2572.99 395.161 2507.33 435.79L2507.34 435.798C2573 395.169 2613.41 455.32 2617.46 461.725C2613.54 455.244 2577.74 392.233 2643.4 351.604L2643.39 351.596C2577.74 392.225 2537.32 332.074 2533.27 325.669Z" fill="#C1F4F8"/>
<path d="M405.706 2018.56C409.631 2025.04 445.428 2088.05 379.772 2128.68L379.777 2128.69C445.433 2088.06 485.851 2148.21 489.9 2154.62C485.975 2148.13 450.178 2085.12 515.834 2044.49L515.829 2044.49C450.173 2085.12 409.755 2024.96 405.706 2018.56Z" fill="#C1F4F8"/>
<path d="M558.769 1923.84C562.694 1930.32 598.49 1993.33 532.835 2033.96L532.84 2033.97C598.496 1993.34 638.914 2053.49 642.963 2059.9C639.038 2053.42 603.241 1990.4 668.896 1949.78L668.891 1949.77C603.236 1990.4 562.818 1930.25 558.769 1923.84Z" fill="#C1F4F8"/>
<path d="M711.833 1829.12C715.758 1835.6 751.555 1898.61 685.899 1939.24L685.904 1939.25C751.56 1898.62 791.978 1958.77 796.027 1965.18C792.102 1958.7 756.305 1895.69 821.961 1855.06L821.956 1855.05C756.3 1895.68 715.882 1835.53 711.833 1829.12Z" fill="#C1F4F8"/>
<path d="M864.896 1734.4C868.821 1740.89 904.617 1803.9 838.962 1844.53L838.967 1844.53C904.622 1803.9 945.041 1864.06 949.09 1870.46C945.165 1863.98 909.368 1800.97 975.023 1760.34L975.018 1760.33C909.363 1800.96 868.945 1740.81 864.896 1734.4Z" fill="#C1F4F8"/>
<path d="M1017.96 1639.69C1021.89 1646.17 1057.68 1709.18 992.026 1749.81L992.031 1749.81C1057.69 1709.19 1098.11 1769.34 1102.15 1775.74C1098.23 1769.26 1062.43 1706.25 1128.09 1665.62L1128.08 1665.61C1062.43 1706.24 1022.01 1646.09 1017.96 1639.69Z" fill="#C1F4F8"/>
<path d="M1171.02 1544.97C1174.95 1551.45 1210.74 1614.46 1145.09 1655.09L1145.09 1655.1C1210.75 1614.47 1251.17 1674.62 1255.22 1681.02C1251.29 1674.54 1215.49 1611.53 1281.15 1570.9L1281.15 1570.89C1215.49 1611.52 1175.07 1551.37 1171.02 1544.97Z" fill="#C1F4F8"/>
<path d="M1324.09 1450.25C1328.01 1456.73 1363.81 1519.74 1298.15 1560.37L1298.16 1560.38C1363.81 1519.75 1404.23 1579.9 1408.28 1586.3C1404.36 1579.82 1368.56 1516.81 1434.21 1476.18L1434.21 1476.18C1368.55 1516.8 1328.14 1456.65 1324.09 1450.25Z" fill="#C1F4F8"/>
<path d="M1477.15 1355.53C1481.07 1362.01 1516.87 1425.02 1451.22 1465.65L1451.22 1465.66C1516.88 1425.03 1557.29 1485.18 1561.34 1491.59C1557.42 1485.1 1521.62 1422.09 1587.28 1381.46L1587.27 1381.46C1521.62 1422.09 1481.2 1361.93 1477.15 1355.53Z" fill="#C1F4F8"/>
<path d="M1630.21 1260.81C1634.14 1267.29 1669.94 1330.3 1604.28 1370.93L1604.29 1370.94C1669.94 1330.31 1710.36 1390.46 1714.41 1396.87C1710.48 1390.39 1674.69 1327.38 1740.34 1286.75L1740.34 1286.74C1674.68 1327.37 1634.26 1267.22 1630.21 1260.81Z" fill="#C1F4F8"/>
<path d="M1783.28 1166.09C1787.2 1172.57 1823 1235.59 1757.34 1276.21L1757.35 1276.22C1823 1235.59 1863.42 1295.74 1867.47 1302.15C1863.55 1295.67 1827.75 1232.66 1893.4 1192.03L1893.4 1192.02C1827.74 1232.65 1787.33 1172.5 1783.28 1166.09Z" fill="#C1F4F8"/>
<path d="M1936.34 1071.37C1940.27 1077.86 1976.06 1140.87 1910.41 1181.5L1910.41 1181.5C1976.07 1140.88 2016.49 1201.03 2020.54 1207.43C2016.61 1200.95 1980.81 1137.94 2046.47 1097.31L2046.46 1097.3C1980.81 1137.93 1940.39 1077.78 1936.34 1071.37Z" fill="#C1F4F8"/>
<path d="M2089.4 976.656C2093.33 983.137 2129.13 1046.15 2063.47 1086.78L2063.47 1086.79C2129.13 1046.16 2169.55 1106.31 2173.6 1112.71C2169.67 1106.23 2133.88 1043.22 2199.53 1002.59L2199.53 1002.58C2133.87 1043.21 2093.45 983.06 2089.4 976.656Z" fill="#C1F4F8"/>
<path d="M2242.47 881.937C2246.39 888.419 2282.19 951.43 2216.53 992.059L2216.54 992.067C2282.19 951.438 2322.61 1011.59 2326.66 1017.99C2322.74 1011.51 2286.94 948.502 2352.6 907.873L2352.59 907.865C2286.93 948.493 2246.52 888.342 2242.47 881.937Z" fill="#C1F4F8"/>
<path d="M2395.53 787.219C2399.46 793.7 2435.25 856.711 2369.6 897.34L2369.6 897.348C2435.26 856.719 2475.68 916.87 2479.72 923.275C2475.8 916.794 2440 853.783 2505.66 813.154L2505.65 813.146C2440 853.775 2399.58 793.623 2395.53 787.219Z" fill="#C1F4F8"/>
<path d="M2548.59 692.5C2552.52 698.982 2588.31 761.993 2522.66 802.622L2522.66 802.63C2588.32 762.001 2628.74 822.152 2632.79 828.557C2628.86 822.075 2593.06 759.065 2658.72 718.436L2658.72 718.428C2593.06 759.056 2552.64 698.905 2548.59 692.5Z" fill="#C1F4F8"/>
<path d="M2701.66 597.782C2705.58 604.263 2741.38 667.274 2675.72 707.903L2675.73 707.911C2741.38 667.282 2781.8 727.433 2785.85 733.838C2781.93 727.357 2746.13 664.346 2811.78 623.717L2811.78 623.709C2746.12 664.338 2705.71 604.186 2701.66 597.782Z" fill="#C1F4F8"/>
<path d="M574.095 2290.67C578.02 2297.15 613.817 2360.16 548.161 2400.79L548.166 2400.8C613.822 2360.17 654.24 2420.32 658.289 2426.73C654.364 2420.25 618.567 2357.24 684.222 2316.61L684.217 2316.6C618.562 2357.23 578.144 2297.08 574.095 2290.67Z" fill="#C1F4F8"/>
<path d="M727.157 2195.95C731.082 2202.43 766.879 2265.45 701.223 2306.07L701.229 2306.08C766.884 2265.45 807.302 2325.61 811.352 2332.01C807.426 2325.53 771.629 2262.52 837.285 2221.89L837.28 2221.88C771.624 2262.51 731.206 2202.36 727.157 2195.95Z" fill="#C1F4F8"/>
<path d="M880.222 2101.24C884.147 2107.72 919.944 2170.73 854.288 2211.36L854.293 2211.36C919.949 2170.74 960.367 2230.89 964.416 2237.29C960.491 2230.81 924.694 2167.8 990.349 2127.17L990.344 2127.16C924.689 2167.79 884.271 2107.64 880.222 2101.24Z" fill="#C1F4F8"/>
<path d="M1033.28 2006.52C1037.21 2013 1073.01 2076.01 1007.35 2116.64L1007.36 2116.65C1073.01 2076.02 1113.43 2136.17 1117.48 2142.57C1113.55 2136.09 1077.76 2073.08 1143.41 2032.45L1143.41 2032.44C1077.75 2073.07 1037.33 2012.92 1033.28 2006.52Z" fill="#C1F4F8"/>
<path d="M1186.35 1911.8C1190.27 1918.28 1226.07 1981.29 1160.41 2021.92L1160.42 2021.93C1226.08 1981.3 1266.49 2041.45 1270.54 2047.85C1266.62 2041.37 1230.82 1978.36 1296.48 1937.73L1296.47 1937.73C1230.82 1978.35 1190.4 1918.2 1186.35 1911.8Z" fill="#C1F4F8"/>
<path d="M1339.41 1817.08C1343.34 1823.56 1379.13 1886.57 1313.48 1927.2L1313.48 1927.21C1379.14 1886.58 1419.56 1946.73 1423.61 1953.14C1419.68 1946.65 1383.88 1883.64 1449.54 1843.01L1449.53 1843.01C1383.88 1883.64 1343.46 1823.48 1339.41 1817.08Z" fill="#C1F4F8"/>
<path d="M1492.48 1722.36C1496.4 1728.84 1532.2 1791.85 1466.54 1832.48L1466.55 1832.49C1532.2 1791.86 1572.62 1852.01 1576.67 1858.42C1572.74 1851.94 1536.95 1788.93 1602.6 1748.3L1602.6 1748.29C1536.94 1788.92 1496.52 1728.77 1492.48 1722.36Z" fill="#C1F4F8"/>
<path d="M1645.54 1627.64C1649.46 1634.12 1685.26 1697.13 1619.6 1737.76L1619.61 1737.77C1685.27 1697.14 1725.68 1757.29 1729.73 1763.7C1725.81 1757.22 1690.01 1694.21 1755.67 1653.58L1755.66 1653.57C1690.01 1694.2 1649.59 1634.05 1645.54 1627.64Z" fill="#C1F4F8"/>
<path d="M1798.6 1532.92C1802.53 1539.41 1838.32 1602.42 1772.67 1643.05L1772.67 1643.05C1838.33 1602.42 1878.75 1662.58 1882.8 1668.98C1878.87 1662.5 1843.07 1599.49 1908.73 1558.86L1908.73 1558.85C1843.07 1599.48 1802.65 1539.33 1798.6 1532.92Z" fill="#C1F4F8"/>
<path d="M1951.67 1438.21C1955.59 1444.69 1991.39 1507.7 1925.73 1548.33L1925.74 1548.34C1991.39 1507.71 2031.81 1567.86 2035.86 1574.26C2031.93 1567.78 1996.14 1504.77 2061.79 1464.14L2061.79 1464.13C1996.13 1504.76 1955.71 1444.61 1951.67 1438.21Z" fill="#C1F4F8"/>
<path d="M2104.73 1343.49C2108.65 1349.97 2144.45 1412.98 2078.8 1453.61L2078.8 1453.62C2144.46 1412.99 2184.87 1473.14 2188.92 1479.54C2185 1473.06 2149.2 1410.05 2214.86 1369.42L2214.85 1369.41C2149.2 1410.04 2108.78 1349.89 2104.73 1343.49Z" fill="#C1F4F8"/>
<path d="M2257.79 1248.77C2261.72 1255.25 2297.51 1318.26 2231.86 1358.89L2231.86 1358.9C2297.52 1318.27 2337.94 1378.42 2341.99 1384.82C2338.06 1378.34 2302.26 1315.33 2367.92 1274.7L2367.91 1274.7C2302.26 1315.32 2261.84 1255.17 2257.79 1248.77Z" fill="#C1F4F8"/>
<path d="M2410.86 1154.05C2414.78 1160.53 2450.58 1223.54 2384.92 1264.17L2384.93 1264.18C2450.58 1223.55 2491 1283.7 2495.05 1290.11C2491.13 1283.63 2455.33 1220.61 2520.98 1179.99L2520.98 1179.98C2455.32 1220.61 2414.91 1160.45 2410.86 1154.05Z" fill="#C1F4F8"/>
<path d="M2563.92 1059.33C2567.84 1065.81 2603.64 1128.82 2537.99 1169.45L2537.99 1169.46C2603.65 1128.83 2644.06 1188.98 2648.11 1195.39C2644.19 1188.91 2608.39 1125.9 2674.05 1085.27L2674.04 1085.26C2608.39 1125.89 2567.97 1065.74 2563.92 1059.33Z" fill="#C1F4F8"/>
<path d="M2716.98 964.613C2720.91 971.095 2756.7 1034.11 2691.05 1074.73L2691.05 1074.74C2756.71 1034.11 2797.13 1094.26 2801.18 1100.67C2797.25 1094.19 2761.45 1031.18 2827.11 990.548L2827.1 990.54C2761.45 1031.17 2721.03 971.018 2716.98 964.613Z" fill="#C1F4F8"/>
<path d="M2870.05 869.894C2873.97 876.376 2909.77 939.387 2844.11 980.016L2844.12 980.024C2909.77 939.395 2950.19 999.546 2954.24 1005.95C2950.32 999.469 2914.52 936.459 2980.17 895.83L2980.17 895.822C2914.51 936.45 2874.09 876.299 2870.05 869.894Z" fill="#C1F4F8"/>
<path d="M742.483 2562.78C746.409 2569.27 782.205 2632.28 716.55 2672.91L716.555 2672.91C782.21 2632.29 822.629 2692.44 826.678 2698.84C822.753 2692.36 786.955 2629.35 852.611 2588.72L852.606 2588.71C786.95 2629.34 746.532 2569.19 742.483 2562.78Z" fill="#C1F4F8"/>
<path d="M895.546 2468.07C899.471 2474.55 935.268 2537.56 869.612 2578.19L869.617 2578.2C935.273 2537.57 975.691 2597.72 979.74 2604.12C975.815 2597.64 940.018 2534.63 1005.67 2494L1005.67 2493.99C940.013 2534.62 899.595 2474.47 895.546 2468.07Z" fill="#C1F4F8"/>
<path d="M1048.61 2373.35C1052.54 2379.83 1088.33 2442.84 1022.68 2483.47L1022.68 2483.48C1088.34 2442.85 1128.76 2503 1132.8 2509.4C1128.88 2502.92 1093.08 2439.91 1158.74 2399.28L1158.73 2399.27C1093.08 2439.9 1052.66 2379.75 1048.61 2373.35Z" fill="#C1F4F8"/>
<path d="M1201.67 2278.63C1205.6 2285.11 1241.39 2348.12 1175.74 2388.75L1175.74 2388.76C1241.4 2348.13 1281.82 2408.28 1285.87 2414.69C1281.94 2408.2 1246.14 2345.19 1311.8 2304.56L1311.8 2304.56C1246.14 2345.19 1205.72 2285.03 1201.67 2278.63Z" fill="#C1F4F8"/>
<path d="M1354.74 2183.91C1358.66 2190.39 1394.46 2253.4 1328.8 2294.03L1328.81 2294.04C1394.46 2253.41 1434.88 2313.56 1438.93 2319.97C1435.01 2313.49 1399.21 2250.47 1464.86 2209.85L1464.86 2209.84C1399.2 2250.47 1358.79 2190.32 1354.74 2183.91Z" fill="#C1F4F8"/>
<path d="M1507.8 2089.19C1511.73 2095.67 1547.52 2158.68 1481.87 2199.31L1481.87 2199.32C1547.53 2158.69 1587.95 2218.84 1591.99 2225.25C1588.07 2218.77 1552.27 2155.76 1617.93 2115.13L1617.92 2115.12C1552.27 2155.75 1511.85 2095.6 1507.8 2089.19Z" fill="#C1F4F8"/>
<path d="M1660.86 1994.47C1664.79 2000.95 1700.59 2063.97 1634.93 2104.59L1634.94 2104.6C1700.59 2063.97 1741.01 2124.13 1745.06 2130.53C1741.13 2124.05 1705.34 2061.04 1770.99 2020.41L1770.99 2020.4C1705.33 2061.03 1664.91 2000.88 1660.86 1994.47Z" fill="#C1F4F8"/>
<path d="M1813.93 1899.75C1817.85 1906.24 1853.65 1969.25 1787.99 2009.88L1788 2009.88C1853.65 1969.26 1894.07 2029.41 1898.12 2035.81C1894.2 2029.33 1858.4 1966.32 1924.05 1925.69L1924.05 1925.68C1858.39 1966.31 1817.98 1906.16 1813.93 1899.75Z" fill="#C1F4F8"/>
<path d="M1966.99 1805.04C1970.92 1811.52 2006.71 1874.53 1941.06 1915.16L1941.06 1915.17C2006.72 1874.54 2047.14 1934.69 2051.19 1941.09C2047.26 1934.61 2011.46 1871.6 2077.12 1830.97L2077.11 1830.96C2011.46 1871.59 1971.04 1811.44 1966.99 1805.04Z" fill="#C1F4F8"/>
<path d="M2120.05 1710.32C2123.98 1716.8 2159.78 1779.81 2094.12 1820.44L2094.13 1820.45C2159.78 1779.82 2200.2 1839.97 2204.25 1846.37C2200.32 1839.89 2164.53 1776.88 2230.18 1736.25L2230.18 1736.25C2164.52 1776.87 2124.1 1716.72 2120.05 1710.32Z" fill="#C1F4F8"/>
<path d="M2273.12 1615.6C2277.04 1622.08 2312.84 1685.09 2247.18 1725.72L2247.19 1725.73C2312.85 1685.1 2353.26 1745.25 2357.31 1751.66C2353.39 1745.17 2317.59 1682.16 2383.25 1641.53L2383.24 1641.53C2317.59 1682.16 2277.17 1622 2273.12 1615.6Z" fill="#C1F4F8"/>
<path d="M2426.18 1520.88C2430.11 1527.36 2465.9 1590.37 2400.25 1631L2400.25 1631.01C2465.91 1590.38 2506.33 1650.53 2510.37 1656.94C2506.45 1650.46 2470.65 1587.45 2536.31 1546.82L2536.3 1546.81C2470.65 1587.44 2430.23 1527.29 2426.18 1520.88Z" fill="#C1F4F8"/>
<path d="M2579.25 1426.16C2583.17 1432.64 2618.97 1495.65 2553.31 1536.28L2553.32 1536.29C2618.97 1495.66 2659.39 1555.81 2663.44 1562.22C2659.51 1555.74 2623.72 1492.73 2689.37 1452.1L2689.37 1452.09C2623.71 1492.72 2583.29 1432.57 2579.25 1426.16Z" fill="#C1F4F8"/>
<path d="M2732.31 1331.44C2736.23 1337.93 2772.03 1400.94 2706.37 1441.57L2706.38 1441.57C2772.03 1400.94 2812.45 1461.1 2816.5 1467.5C2812.58 1461.02 2776.78 1398.01 2842.44 1357.38L2842.43 1357.37C2776.77 1398 2736.36 1337.85 2732.31 1331.44Z" fill="#C1F4F8"/>
<path d="M2885.37 1236.73C2889.3 1243.21 2925.09 1306.22 2859.44 1346.85L2859.44 1346.86C2925.1 1306.23 2965.52 1366.38 2969.56 1372.78C2965.64 1366.3 2929.84 1303.29 2995.5 1262.66L2995.49 1262.65C2929.84 1303.28 2889.42 1243.13 2885.37 1236.73Z" fill="#C1F4F8"/>
<path d="M3038.43 1142.01C3042.36 1148.49 3078.16 1211.5 3012.5 1252.13L3012.51 1252.14C3078.16 1211.51 3118.58 1271.66 3122.63 1278.06C3118.7 1271.58 3082.91 1208.57 3148.56 1167.94L3148.56 1167.93C3082.9 1208.56 3042.48 1148.41 3038.43 1142.01Z" fill="#C1F4F8"/>
<path d="M153.122 1610.39C157.047 1616.87 192.844 1679.88 127.188 1720.51L127.193 1720.52C192.849 1679.89 233.267 1740.04 237.316 1746.45C233.391 1739.97 197.594 1676.95 263.25 1636.33L263.245 1636.32C197.589 1676.95 157.171 1616.79 153.122 1610.39Z" fill="#C1F4F8"/>
<path d="M306.185 1515.67C310.11 1522.15 345.906 1585.16 280.251 1625.79L280.256 1625.8C345.912 1585.17 386.33 1645.32 390.379 1651.73C386.454 1645.25 350.657 1582.24 416.312 1541.61L416.307 1541.6C350.652 1582.23 310.234 1522.08 306.185 1515.67Z" fill="#C1F4F8"/>
<path d="M459.249 1420.95C463.174 1427.43 498.971 1490.45 433.315 1531.07L433.32 1531.08C498.976 1490.45 539.394 1550.6 543.443 1557.01C539.518 1550.53 503.721 1487.52 569.377 1446.89L569.372 1446.88C503.716 1487.51 463.298 1427.36 459.249 1420.95Z" fill="#C1F4F8"/>
<path d="M612.312 1326.23C616.237 1332.72 652.033 1395.73 586.378 1436.36L586.383 1436.36C652.038 1395.73 692.457 1455.89 696.506 1462.29C692.581 1455.81 656.784 1392.8 722.439 1352.17L722.434 1352.16C656.779 1392.79 616.361 1332.64 612.312 1326.23Z" fill="#C1F4F8"/>
<path d="M765.376 1231.52C769.301 1238 805.098 1301.01 739.442 1341.64L739.447 1341.65C805.103 1301.02 845.521 1361.17 849.57 1367.57C845.645 1361.09 809.848 1298.08 875.504 1257.45L875.499 1257.44C809.843 1298.07 769.425 1237.92 765.376 1231.52Z" fill="#C1F4F8"/>
<path d="M918.439 1136.8C922.364 1143.28 958.16 1206.29 892.505 1246.92L892.51 1246.93C958.165 1206.3 998.584 1266.45 1002.63 1272.85C998.708 1266.37 962.911 1203.36 1028.57 1162.73L1028.56 1162.72C962.905 1203.35 922.488 1143.2 918.439 1136.8Z" fill="#C1F4F8"/>
<path d="M1071.5 1042.08C1075.43 1048.56 1111.22 1111.57 1045.57 1152.2L1045.57 1152.21C1111.23 1111.58 1151.65 1171.73 1155.7 1178.14C1151.77 1171.65 1115.97 1108.64 1181.63 1068.01L1181.63 1068.01C1115.97 1108.64 1075.55 1048.48 1071.5 1042.08Z" fill="#C1F4F8"/>
<path d="M1224.57 947.36C1228.49 953.842 1264.29 1016.85 1198.63 1057.48L1198.64 1057.49C1264.29 1016.86 1304.71 1077.01 1308.76 1083.42C1304.83 1076.94 1269.04 1013.92 1334.69 973.296L1334.69 973.287C1269.03 1013.92 1228.61 953.765 1224.57 947.36Z" fill="#C1F4F8"/>
<path d="M1377.63 852.642C1381.56 859.123 1417.35 922.134 1351.7 962.763L1351.7 962.772C1417.36 922.143 1457.78 982.294 1461.82 988.698C1457.9 982.217 1422.1 919.206 1487.76 878.577L1487.75 878.569C1422.1 919.198 1381.68 859.047 1377.63 852.642Z" fill="#C1F4F8"/>
<path d="M1530.69 757.924C1534.62 764.405 1570.41 827.416 1504.76 868.045L1504.76 868.053C1570.42 827.424 1610.84 887.575 1614.89 893.98C1610.96 887.499 1575.16 824.488 1640.82 783.859L1640.82 783.851C1575.16 824.48 1534.74 764.329 1530.69 757.924Z" fill="#C1F4F8"/>
<path d="M1683.76 663.205C1687.68 669.686 1723.48 732.697 1657.82 773.326L1657.83 773.335C1723.48 732.706 1763.9 792.857 1767.95 799.261C1764.03 792.78 1728.23 729.769 1793.88 689.14L1793.88 689.132C1728.22 729.761 1687.81 669.61 1683.76 663.205Z" fill="#C1F4F8"/>
<path d="M1836.82 568.486C1840.74 574.968 1876.54 637.979 1810.89 678.608L1810.89 678.616C1876.55 637.987 1916.96 698.138 1921.01 704.543C1917.09 698.061 1881.29 635.05 1946.95 594.422L1946.94 594.413C1881.29 635.042 1840.87 574.891 1836.82 568.486Z" fill="#C1F4F8"/>
<path d="M1989.88 473.768C1993.81 480.249 2029.61 543.26 1963.95 583.889L1963.96 583.898C2029.61 543.269 2070.03 603.42 2074.08 609.824C2070.15 603.343 2034.36 540.332 2100.01 499.703L2100.01 499.695C2034.35 540.324 1993.93 480.173 1989.88 473.768Z" fill="#C1F4F8"/>
<path d="M2142.95 379.049C2146.87 385.531 2182.67 448.542 2117.01 489.171L2117.02 489.179C2182.67 448.55 2223.09 508.701 2227.14 515.106C2223.22 508.624 2187.42 445.613 2253.07 404.985L2253.07 404.976C2187.41 445.605 2147 385.454 2142.95 379.049Z" fill="#C1F4F8"/>
<path d="M2296.01 284.331C2299.93 290.812 2335.73 353.823 2270.08 394.452L2270.08 394.46C2335.74 353.832 2376.15 413.983 2380.2 420.387C2376.28 413.906 2340.48 350.895 2406.14 310.266L2406.13 310.258C2340.48 350.887 2300.06 290.736 2296.01 284.331Z" fill="#C1F4F8"/>
<path d="M2449.07 189.612C2453 196.094 2488.8 259.105 2423.14 299.734L2423.14 299.742C2488.8 259.113 2529.22 319.264 2533.27 325.669C2529.34 319.187 2493.55 256.176 2559.2 215.548L2559.2 215.539C2493.54 256.168 2453.12 196.017 2449.07 189.612Z" fill="#C1F4F8"/>
<path d="M321.511 1882.5C325.436 1888.98 361.233 1952 295.577 1992.62L295.582 1992.63C361.238 1952 401.656 2012.15 405.705 2018.56C401.78 2012.08 365.983 1949.07 431.638 1908.44L431.633 1908.43C365.978 1949.06 325.56 1888.91 321.511 1882.5Z" fill="#C1F4F8"/>
<path d="M474.573 1787.78C478.498 1794.27 514.295 1857.28 448.64 1897.91L448.645 1897.91C514.3 1857.28 554.719 1917.44 558.768 1923.84C554.842 1917.36 519.045 1854.35 584.701 1813.72L584.696 1813.71C519.04 1854.34 478.622 1794.19 474.573 1787.78Z" fill="#C1F4F8"/>
<path d="M627.638 1693.07C631.563 1699.55 667.36 1762.56 601.704 1803.19L601.709 1803.2C667.365 1762.57 707.783 1822.72 711.832 1829.12C707.907 1822.64 672.11 1759.63 737.765 1719L737.76 1718.99C672.105 1759.62 631.687 1699.47 627.638 1693.07Z" fill="#C1F4F8"/>
<path d="M780.7 1598.35C784.625 1604.83 820.422 1667.84 754.766 1708.47L754.772 1708.48C820.427 1667.85 860.845 1728 864.894 1734.4C860.969 1727.92 825.172 1664.91 890.828 1624.28L890.823 1624.27C825.167 1664.9 784.749 1604.75 780.7 1598.35Z" fill="#C1F4F8"/>
<path d="M933.765 1503.63C937.69 1510.11 973.487 1573.12 907.831 1613.75L907.836 1613.76C973.492 1573.13 1013.91 1633.28 1017.96 1639.69C1014.03 1633.2 978.237 1570.19 1043.89 1529.56L1043.89 1529.56C978.232 1570.18 937.814 1510.03 933.765 1503.63Z" fill="#C1F4F8"/>
<path d="M1086.83 1408.91C1090.75 1415.39 1126.55 1478.4 1060.89 1519.03L1060.9 1519.04C1126.55 1478.41 1166.97 1538.56 1171.02 1544.97C1167.1 1538.49 1131.3 1475.47 1196.95 1434.85L1196.95 1434.84C1131.29 1475.47 1090.88 1415.31 1086.83 1408.91Z" fill="#C1F4F8"/>
<path d="M1239.89 1314.19C1243.82 1320.67 1279.61 1383.68 1213.96 1424.31L1213.96 1424.32C1279.62 1383.69 1320.04 1443.84 1324.09 1450.25C1320.16 1443.77 1284.36 1380.76 1350.02 1340.13L1350.01 1340.12C1284.36 1380.75 1243.94 1320.6 1239.89 1314.19Z" fill="#C1F4F8"/>
<path d="M1392.95 1219.47C1396.88 1225.95 1432.68 1288.97 1367.02 1329.59L1367.03 1329.6C1432.68 1288.97 1473.1 1349.12 1477.15 1355.53C1473.22 1349.05 1437.43 1286.04 1503.08 1245.41L1503.08 1245.4C1437.42 1286.03 1397 1225.88 1392.95 1219.47Z" fill="#C1F4F8"/>
<path d="M1546.02 1124.75C1549.94 1131.24 1585.74 1194.25 1520.08 1234.88L1520.09 1234.88C1585.75 1194.26 1626.16 1254.41 1630.21 1260.81C1626.29 1254.33 1590.49 1191.32 1656.15 1150.69L1656.14 1150.68C1590.49 1191.31 1550.07 1131.16 1546.02 1124.75Z" fill="#C1F4F8"/>
<path d="M1699.08 1030.04C1703.01 1036.52 1738.8 1099.53 1673.15 1140.16L1673.15 1140.17C1738.81 1099.54 1779.23 1159.69 1783.28 1166.09C1779.35 1159.61 1743.55 1096.6 1809.21 1055.97L1809.2 1055.96C1743.55 1096.59 1703.13 1036.44 1699.08 1030.04Z" fill="#C1F4F8"/>
<path d="M1852.15 935.318C1856.07 941.799 1891.87 1004.81 1826.21 1045.44L1826.22 1045.45C1891.87 1004.82 1932.29 1064.97 1936.34 1071.37C1932.41 1064.89 1896.62 1001.88 1962.27 961.253L1962.27 961.245C1896.61 1001.87 1856.19 941.723 1852.15 935.318Z" fill="#C1F4F8"/>
<path d="M2005.21 840.599C2009.13 847.08 2044.93 910.091 1979.27 950.72L1979.28 950.729C2044.93 910.1 2085.35 970.251 2089.4 976.655C2085.48 970.174 2049.68 907.163 2115.34 866.534L2115.33 866.526C2049.68 907.155 2009.26 847.004 2005.21 840.599Z" fill="#C1F4F8"/>
<path d="M2158.27 745.881C2162.2 752.362 2197.99 815.373 2132.34 856.002L2132.34 856.01C2198 815.381 2238.42 875.532 2242.47 881.937C2238.54 875.456 2202.74 812.445 2268.4 771.816L2268.4 771.808C2202.74 812.437 2162.32 752.286 2158.27 745.881Z" fill="#C1F4F8"/>
<path d="M2311.34 651.162C2315.26 657.643 2351.06 720.654 2285.4 761.283L2285.41 761.292C2351.06 720.663 2391.48 780.814 2395.53 787.218C2391.6 780.737 2355.81 717.726 2421.46 677.097L2421.46 677.089C2355.8 717.718 2315.38 657.567 2311.34 651.162Z" fill="#C1F4F8"/>
<path d="M2464.4 556.444C2468.32 562.925 2504.12 625.936 2438.46 666.565L2438.47 666.573C2504.12 625.944 2544.54 686.095 2548.59 692.5C2544.67 686.019 2508.87 623.008 2574.53 582.379L2574.52 582.371C2508.86 623 2468.45 562.849 2464.4 556.444Z" fill="#C1F4F8"/>
<path d="M2617.46 461.725C2621.39 468.206 2657.18 531.217 2591.53 571.846L2591.53 571.855C2657.19 531.226 2697.61 591.377 2701.66 597.781C2697.73 591.3 2661.93 528.289 2727.59 487.66L2727.58 487.652C2661.93 528.281 2621.51 468.13 2617.46 461.725Z" fill="#C1F4F8"/>
<path d="M489.899 2154.62C493.825 2161.1 529.621 2224.11 463.966 2264.74L463.971 2264.75C529.626 2224.12 570.045 2284.27 574.094 2290.67C570.169 2284.19 534.371 2221.18 600.027 2180.55L600.022 2180.54C534.366 2221.17 493.949 2161.02 489.899 2154.62Z" fill="#C1F4F8"/>
<path d="M642.962 2059.9C646.887 2066.38 682.684 2129.39 617.028 2170.02L617.033 2170.03C682.689 2129.4 723.107 2189.55 727.156 2195.95C723.231 2189.47 687.434 2126.46 753.09 2085.83L753.085 2085.82C687.429 2126.45 647.011 2066.3 642.962 2059.9Z" fill="#C1F4F8"/>
<path d="M796.026 1965.18C799.952 1971.66 835.748 2034.67 770.093 2075.3L770.098 2075.31C835.753 2034.68 876.172 2094.83 880.221 2101.23C876.295 2094.75 840.498 2031.74 906.154 1991.11L906.149 1991.11C840.493 2031.73 800.075 1971.58 796.026 1965.18Z" fill="#C1F4F8"/>
<path d="M949.089 1870.46C953.014 1876.94 988.811 1939.95 923.155 1980.58L923.16 1980.59C988.816 1939.96 1029.23 2000.11 1033.28 2006.52C1029.36 2000.03 993.561 1937.02 1059.22 1896.4L1059.21 1896.39C993.556 1937.02 953.138 1876.86 949.089 1870.46Z" fill="#C1F4F8"/>
<path d="M1102.15 1775.74C1106.08 1782.22 1141.88 1845.23 1076.22 1885.86L1076.22 1885.87C1141.88 1845.24 1182.3 1905.39 1186.35 1911.8C1182.42 1905.32 1146.63 1842.31 1212.28 1801.68L1212.28 1801.67C1146.62 1842.3 1106.2 1782.15 1102.15 1775.74Z" fill="#C1F4F8"/>
<path d="M1255.22 1681.02C1259.14 1687.5 1294.94 1750.52 1229.28 1791.14L1229.29 1791.15C1294.94 1750.52 1335.36 1810.67 1339.41 1817.08C1335.48 1810.6 1299.69 1747.59 1365.34 1706.96L1365.34 1706.95C1299.68 1747.58 1259.26 1687.43 1255.22 1681.02Z" fill="#C1F4F8"/>
<path d="M1408.28 1586.3C1412.21 1592.79 1448 1655.8 1382.35 1696.43L1382.35 1696.43C1448.01 1655.81 1488.43 1715.96 1492.47 1722.36C1488.55 1715.88 1452.75 1652.87 1518.41 1612.24L1518.4 1612.23C1452.75 1652.86 1412.33 1592.71 1408.28 1586.3Z" fill="#C1F4F8"/>
<path d="M1561.34 1491.59C1565.27 1498.07 1601.06 1561.08 1535.41 1601.71L1535.41 1601.72C1601.07 1561.09 1641.49 1621.24 1645.54 1627.64C1641.61 1621.16 1605.81 1558.15 1671.47 1517.52L1671.47 1517.51C1605.81 1558.14 1565.39 1497.99 1561.34 1491.59Z" fill="#C1F4F8"/>
<path d="M1714.41 1396.87C1718.33 1403.35 1754.13 1466.36 1688.47 1506.99L1688.48 1507C1754.13 1466.37 1794.55 1526.52 1798.6 1532.92C1794.68 1526.44 1758.88 1463.43 1824.53 1422.8L1824.53 1422.79C1758.87 1463.42 1718.46 1403.27 1714.41 1396.87Z" fill="#C1F4F8"/>
<path d="M1867.47 1302.15C1871.39 1308.63 1907.19 1371.64 1841.54 1412.27L1841.54 1412.28C1907.2 1371.65 1947.61 1431.8 1951.66 1438.21C1947.74 1431.72 1911.94 1368.71 1977.6 1328.08L1977.59 1328.08C1911.94 1368.71 1871.52 1308.55 1867.47 1302.15Z" fill="#C1F4F8"/>
<path d="M2020.53 1207.43C2024.46 1213.91 2060.26 1276.92 1994.6 1317.55L1994.61 1317.56C2060.26 1276.93 2100.68 1337.08 2104.73 1343.49C2100.8 1337.01 2065.01 1273.99 2130.66 1233.37L2130.66 1233.36C2065 1273.99 2024.58 1213.84 2020.53 1207.43Z" fill="#C1F4F8"/>
<path d="M2173.6 1112.71C2177.52 1119.19 2213.32 1182.2 2147.66 1222.83L2147.67 1222.84C2213.32 1182.21 2253.74 1242.36 2257.79 1248.77C2253.87 1242.29 2218.07 1179.28 2283.72 1138.65L2283.72 1138.64C2218.06 1179.27 2177.65 1119.12 2173.6 1112.71Z" fill="#C1F4F8"/>
<path d="M2326.66 1017.99C2330.59 1024.47 2366.38 1087.49 2300.73 1128.11L2300.73 1128.12C2366.39 1087.49 2406.81 1147.65 2410.86 1154.05C2406.93 1147.57 2371.13 1084.56 2436.79 1043.93L2436.78 1043.92C2371.13 1084.55 2330.71 1024.4 2326.66 1017.99Z" fill="#C1F4F8"/>
<path d="M2479.72 923.275C2483.65 929.756 2519.45 992.767 2453.79 1033.4L2453.79 1033.4C2519.45 992.775 2559.87 1052.93 2563.92 1059.33C2559.99 1052.85 2524.2 989.839 2589.85 949.21L2589.85 949.202C2524.19 989.831 2483.77 929.68 2479.72 923.275Z" fill="#C1F4F8"/>
<path d="M2632.79 828.557C2636.71 835.038 2672.51 898.049 2606.85 938.678L2606.86 938.686C2672.51 898.057 2712.93 958.208 2716.98 964.613C2713.06 958.132 2677.26 895.121 2742.91 854.492L2742.91 854.484C2677.25 895.113 2636.84 834.961 2632.79 828.557Z" fill="#C1F4F8"/>
<path d="M2785.85 733.838C2789.78 740.319 2825.57 803.33 2759.92 843.959L2759.92 843.967C2825.58 803.338 2866 863.489 2870.04 869.894C2866.12 863.413 2830.32 800.402 2895.98 759.773L2895.97 759.765C2830.32 800.394 2789.9 740.243 2785.85 733.838Z" fill="#C1F4F8"/>
<path d="M658.288 2426.73C662.213 2433.21 698.01 2496.22 632.354 2536.85L632.359 2536.86C698.015 2496.23 738.433 2556.38 742.482 2562.78C738.557 2556.3 702.76 2493.29 768.416 2452.66L768.411 2452.66C702.755 2493.28 662.337 2433.13 658.288 2426.73Z" fill="#C1F4F8"/>
<path d="M811.351 2332.01C815.276 2338.49 851.072 2401.5 785.417 2442.13L785.422 2442.14C851.078 2401.51 891.496 2461.66 895.545 2468.07C891.62 2461.58 855.823 2398.57 921.478 2357.94L921.473 2357.94C855.818 2398.57 815.4 2338.41 811.351 2332.01Z" fill="#C1F4F8"/>
<path d="M964.415 2237.29C968.34 2243.77 1004.14 2306.78 938.481 2347.41L938.486 2347.42C1004.14 2306.79 1044.56 2366.94 1048.61 2373.35C1044.68 2366.87 1008.89 2303.85 1074.54 2263.23L1074.54 2263.22C1008.88 2303.85 968.464 2243.7 964.415 2237.29Z" fill="#C1F4F8"/>
<path d="M1117.48 2142.57C1121.4 2149.05 1157.2 2212.06 1091.54 2252.69L1091.55 2252.7C1157.2 2212.07 1197.62 2272.22 1201.67 2278.63C1197.75 2272.15 1161.95 2209.14 1227.61 2168.51L1227.6 2168.5C1161.94 2209.13 1121.53 2148.98 1117.48 2142.57Z" fill="#C1F4F8"/>
<path d="M1270.54 2047.85C1274.47 2054.34 1310.26 2117.35 1244.61 2157.98L1244.61 2157.98C1310.27 2117.35 1350.69 2177.51 1354.74 2183.91C1350.81 2177.43 1315.01 2114.42 1380.67 2073.79L1380.66 2073.78C1315.01 2114.41 1274.59 2054.26 1270.54 2047.85Z" fill="#C1F4F8"/>
<path d="M1423.6 1953.14C1427.53 1959.62 1463.33 2022.63 1397.67 2063.26L1397.68 2063.26C1463.33 2022.64 1503.75 2082.79 1507.8 2089.19C1503.87 2082.71 1468.08 2019.7 1533.73 1979.07L1533.73 1979.06C1468.07 2019.69 1427.65 1959.54 1423.6 1953.14Z" fill="#C1F4F8"/>
<path d="M1576.67 1858.42C1580.59 1864.9 1616.39 1927.91 1550.74 1968.54L1550.74 1968.55C1616.4 1927.92 1656.81 1988.07 1660.86 1994.47C1656.94 1987.99 1621.14 1924.98 1686.8 1884.35L1686.79 1884.34C1621.14 1924.97 1580.72 1864.82 1576.67 1858.42Z" fill="#C1F4F8"/>
<path d="M1729.73 1763.7C1733.66 1770.18 1769.45 1833.19 1703.8 1873.82L1703.8 1873.83C1769.46 1833.2 1809.88 1893.35 1813.93 1899.75C1810 1893.27 1774.2 1830.26 1839.86 1789.63L1839.85 1789.63C1774.2 1830.25 1733.78 1770.1 1729.73 1763.7Z" fill="#C1F4F8"/>
<path d="M1882.8 1668.98C1886.72 1675.46 1922.52 1738.47 1856.86 1779.1L1856.87 1779.11C1922.52 1738.48 1962.94 1798.63 1966.99 1805.04C1963.07 1798.55 1927.27 1735.54 1992.92 1694.92L1992.92 1694.91C1927.26 1735.54 1886.84 1675.38 1882.8 1668.98Z" fill="#C1F4F8"/>
<path d="M2035.86 1574.26C2039.78 1580.74 2075.58 1643.75 2009.92 1684.38L2009.93 1684.39C2075.59 1643.76 2116 1703.91 2120.05 1710.32C2116.13 1703.84 2080.33 1640.83 2145.99 1600.2L2145.98 1600.19C2080.33 1640.82 2039.91 1580.67 2035.86 1574.26Z" fill="#C1F4F8"/>
<path d="M2188.92 1479.54C2192.85 1486.02 2228.64 1549.04 2162.99 1589.66L2162.99 1589.67C2228.65 1549.04 2269.07 1609.19 2273.12 1615.6C2269.19 1609.12 2233.39 1546.11 2299.05 1505.48L2299.05 1505.47C2233.39 1546.1 2192.97 1485.95 2188.92 1479.54Z" fill="#C1F4F8"/>
<path d="M2341.99 1384.82C2345.91 1391.31 2381.71 1454.32 2316.05 1494.95L2316.06 1494.95C2381.71 1454.32 2422.13 1514.48 2426.18 1520.88C2422.25 1514.4 2386.46 1451.39 2452.11 1410.76L2452.11 1410.75C2386.45 1451.38 2346.03 1391.23 2341.99 1384.82Z" fill="#C1F4F8"/>
<path d="M2495.05 1290.11C2498.98 1296.59 2534.77 1359.6 2469.12 1400.23L2469.12 1400.24C2534.78 1359.61 2575.2 1419.76 2579.24 1426.16C2575.32 1419.68 2539.52 1356.67 2605.18 1316.04L2605.17 1316.03C2539.52 1356.66 2499.1 1296.51 2495.05 1290.11Z" fill="#C1F4F8"/>
<path d="M2648.11 1195.39C2652.04 1201.87 2687.83 1264.88 2622.18 1305.51L2622.18 1305.52C2687.84 1264.89 2728.26 1325.04 2732.31 1331.44C2728.38 1324.96 2692.58 1261.95 2758.24 1221.32L2758.23 1221.31C2692.58 1261.94 2652.16 1201.79 2648.11 1195.39Z" fill="#C1F4F8"/>
<path d="M2801.17 1100.67C2805.1 1107.15 2840.9 1170.16 2775.24 1210.79L2775.25 1210.8C2840.9 1170.17 2881.32 1230.32 2885.37 1236.73C2881.44 1230.24 2845.65 1167.23 2911.3 1126.6L2911.3 1126.6C2845.64 1167.22 2805.22 1107.07 2801.17 1100.67Z" fill="#C1F4F8"/>
<path d="M2954.24 1005.95C2958.16 1012.43 2993.96 1075.44 2928.31 1116.07L2928.31 1116.08C2993.97 1075.45 3034.38 1135.6 3038.43 1142.01C3034.51 1135.53 2998.71 1072.51 3064.37 1031.89L3064.36 1031.88C2998.71 1072.51 2958.29 1012.35 2954.24 1005.95Z" fill="#C1F4F8"/>
<path d="M826.677 2698.84C830.602 2705.32 866.399 2768.33 800.743 2808.96L800.748 2808.97C866.404 2768.34 906.822 2828.49 910.871 2834.9C906.946 2828.42 871.149 2765.41 936.804 2724.78L936.799 2724.77C871.144 2765.4 830.726 2705.25 826.677 2698.84Z" fill="#C1F4F8"/>
<path d="M979.739 2604.12C983.665 2610.6 1019.46 2673.61 953.806 2714.24L953.811 2714.25C1019.47 2673.62 1059.88 2733.77 1063.93 2740.18C1060.01 2733.7 1024.21 2670.69 1089.87 2630.06L1089.86 2630.05C1024.21 2670.68 983.788 2610.53 979.739 2604.12Z" fill="#C1F4F8"/>
<path d="M1132.8 2509.4C1136.73 2515.89 1172.53 2578.9 1106.87 2619.53L1106.88 2619.53C1172.53 2578.9 1212.95 2639.06 1217 2645.46C1213.07 2638.98 1177.28 2575.97 1242.93 2535.34L1242.93 2535.33C1177.27 2575.96 1136.85 2515.81 1132.8 2509.4Z" fill="#C1F4F8"/>
<path d="M1285.87 2414.69C1289.79 2421.17 1325.59 2484.18 1259.93 2524.81L1259.94 2524.82C1325.59 2484.19 1366.01 2544.34 1370.06 2550.74C1366.14 2544.26 1330.34 2481.25 1395.99 2440.62L1395.99 2440.61C1330.33 2481.24 1289.92 2421.09 1285.87 2414.69Z" fill="#C1F4F8"/>
<path d="M1438.93 2319.97C1442.86 2326.45 1478.65 2389.46 1413 2430.09L1413 2430.1C1478.66 2389.47 1519.08 2449.62 1523.12 2456.02C1519.2 2449.54 1483.4 2386.53 1549.06 2345.9L1549.05 2345.89C1483.4 2386.52 1442.98 2326.37 1438.93 2319.97Z" fill="#C1F4F8"/>
<path d="M1591.99 2225.25C1595.92 2231.73 1631.72 2294.74 1566.06 2335.37L1566.06 2335.38C1631.72 2294.75 1672.14 2354.9 1676.19 2361.3C1672.26 2354.82 1636.47 2291.81 1702.12 2251.18L1702.12 2251.18C1636.46 2291.8 1596.04 2231.65 1591.99 2225.25Z" fill="#C1F4F8"/>
<path d="M1745.06 2130.53C1748.98 2137.01 1784.78 2200.02 1719.12 2240.65L1719.13 2240.66C1784.78 2200.03 1825.2 2260.18 1829.25 2266.59C1825.33 2260.11 1789.53 2197.09 1855.19 2156.47L1855.18 2156.46C1789.52 2197.09 1749.11 2136.93 1745.06 2130.53Z" fill="#C1F4F8"/>
<path d="M1898.12 2035.81C1902.05 2042.29 1937.84 2105.3 1872.19 2145.93L1872.19 2145.94C1937.85 2105.31 1978.27 2165.46 1982.31 2171.87C1978.39 2165.39 1942.59 2102.38 2008.25 2061.75L2008.24 2061.74C1942.59 2102.37 1902.17 2042.22 1898.12 2035.81Z" fill="#C1F4F8"/>
<path d="M2051.18 1941.09C2055.11 1947.57 2090.91 2010.59 2025.25 2051.21L2025.26 2051.22C2090.91 2010.59 2131.33 2070.74 2135.38 2077.15C2131.45 2070.67 2095.66 2007.66 2161.31 1967.03L2161.31 1967.02C2095.65 2007.65 2055.23 1947.5 2051.18 1941.09Z" fill="#C1F4F8"/>
<path d="M2204.25 1846.37C2208.17 1852.86 2243.97 1915.87 2178.31 1956.5L2178.32 1956.5C2243.97 1915.88 2284.39 1976.03 2288.44 1982.43C2284.52 1975.95 2248.72 1912.94 2314.37 1872.31L2314.37 1872.3C2248.71 1912.93 2208.3 1852.78 2204.25 1846.37Z" fill="#C1F4F8"/>
<path d="M2357.31 1751.66C2361.24 1758.14 2397.03 1821.15 2331.38 1861.78L2331.38 1861.79C2397.04 1821.16 2437.46 1881.31 2441.51 1887.71C2437.58 1881.23 2401.78 1818.22 2467.44 1777.59L2467.43 1777.58C2401.78 1818.21 2361.36 1758.06 2357.31 1751.66Z" fill="#C1F4F8"/>
<path d="M2510.37 1656.94C2514.3 1663.42 2550.1 1726.43 2484.44 1767.06L2484.45 1767.07C2550.1 1726.44 2590.52 1786.59 2594.57 1792.99C2590.64 1786.51 2554.85 1723.5 2620.5 1682.87L2620.5 1682.86C2554.84 1723.49 2514.42 1663.34 2510.37 1656.94Z" fill="#C1F4F8"/>
<path d="M2663.44 1562.22C2667.36 1568.7 2703.16 1631.71 2637.5 1672.34L2637.51 1672.35C2703.17 1631.72 2743.58 1691.87 2747.63 1698.28C2743.71 1691.79 2707.91 1628.78 2773.57 1588.15L2773.56 1588.15C2707.91 1628.78 2667.49 1568.62 2663.44 1562.22Z" fill="#C1F4F8"/>
<path d="M2816.5 1467.5C2820.43 1473.98 2856.22 1536.99 2790.57 1577.62L2790.57 1577.63C2856.23 1537 2896.65 1597.15 2900.7 1603.56C2896.77 1597.08 2860.97 1534.06 2926.63 1493.44L2926.62 1493.43C2860.97 1534.06 2820.55 1473.91 2816.5 1467.5Z" fill="#C1F4F8"/>
<path d="M2969.56 1372.78C2973.49 1379.26 3009.29 1442.27 2943.63 1482.9L2943.63 1482.91C3009.29 1442.28 3049.71 1502.43 3053.76 1508.84C3049.83 1502.36 3014.04 1439.35 3079.69 1398.72L3079.69 1398.71C3014.03 1439.34 2973.61 1379.19 2969.56 1372.78Z" fill="#C1F4F8"/>
<path d="M3122.63 1278.06C3126.55 1284.54 3162.35 1347.56 3096.69 1388.18L3096.7 1388.19C3162.35 1347.56 3202.77 1407.71 3206.82 1414.12C3202.9 1407.64 3167.1 1344.63 3232.76 1304L3232.75 1303.99C3167.09 1344.62 3126.68 1284.47 3122.63 1278.06Z" fill="#C1F4F8"/>
<path d="M910.87 2834.9C914.795 2841.38 950.592 2904.39 884.936 2945.02L884.941 2945.03C950.597 2904.4 991.015 2964.55 995.064 2970.95C991.139 2964.47 955.342 2901.46 1021 2860.83L1020.99 2860.82C955.337 2901.45 914.919 2841.3 910.87 2834.9Z" fill="#C1F4F8"/>
<path d="M1063.93 2740.18C1067.86 2746.66 1103.65 2809.67 1038 2850.3L1038 2850.31C1103.66 2809.68 1144.08 2869.83 1148.13 2876.24C1144.2 2869.75 1108.4 2806.74 1174.06 2766.11L1174.06 2766.11C1108.4 2806.74 1067.98 2746.58 1063.93 2740.18Z" fill="#C1F4F8"/>
<path d="M1217 2645.46C1220.92 2651.94 1256.72 2714.95 1191.06 2755.58L1191.07 2755.59C1256.72 2714.96 1297.14 2775.11 1301.19 2781.52C1297.27 2775.04 1261.47 2712.02 1327.12 2671.4L1327.12 2671.39C1261.46 2712.02 1221.05 2651.87 1217 2645.46Z" fill="#C1F4F8"/>
<path d="M1370.06 2550.74C1373.98 2557.22 1409.78 2620.23 1344.13 2660.86L1344.13 2660.87C1409.79 2620.24 1450.2 2680.39 1454.25 2686.8C1450.33 2680.32 1414.53 2617.31 1480.19 2576.68L1480.18 2576.67C1414.53 2617.3 1374.11 2557.15 1370.06 2550.74Z" fill="#C1F4F8"/>
<path d="M1523.12 2456.02C1527.05 2462.51 1562.85 2525.52 1497.19 2566.15L1497.2 2566.15C1562.85 2525.52 1603.27 2585.68 1607.32 2592.08C1603.39 2585.6 1567.6 2522.59 1633.25 2481.96L1633.25 2481.95C1567.59 2522.58 1527.17 2462.43 1523.12 2456.02Z" fill="#C1F4F8"/>
<path d="M1676.19 2361.31C1680.11 2367.79 1715.91 2430.8 1650.25 2471.43L1650.26 2471.43C1715.91 2430.81 1756.33 2490.96 1760.38 2497.36C1756.46 2490.88 1720.66 2427.87 1786.31 2387.24L1786.31 2387.23C1720.65 2427.86 1680.24 2367.71 1676.19 2361.31Z" fill="#C1F4F8"/>
<path d="M1829.25 2266.59C1833.18 2273.07 1868.97 2336.08 1803.32 2376.71L1803.32 2376.72C1868.98 2336.09 1909.4 2396.24 1913.45 2402.64C1909.52 2396.16 1873.72 2333.15 1939.38 2292.52L1939.37 2292.51C1873.72 2333.14 1833.3 2272.99 1829.25 2266.59Z" fill="#C1F4F8"/>
<path d="M1982.31 2171.87C1986.24 2178.35 2022.04 2241.36 1956.38 2281.99L1956.38 2282C2022.04 2241.37 2062.46 2301.52 2066.51 2307.92C2062.58 2301.44 2026.79 2238.43 2092.44 2197.8L2092.44 2197.8C2026.78 2238.42 1986.36 2178.27 1982.31 2171.87Z" fill="#C1F4F8"/>
<path d="M2135.38 2077.15C2139.3 2083.63 2175.1 2146.64 2109.44 2187.27L2109.45 2187.28C2175.1 2146.65 2215.52 2206.8 2219.57 2213.21C2215.65 2206.72 2179.85 2143.71 2245.51 2103.09L2245.5 2103.08C2179.84 2143.71 2139.43 2083.55 2135.38 2077.15Z" fill="#C1F4F8"/>
<path d="M2288.44 1982.43C2292.37 1988.91 2328.16 2051.92 2262.51 2092.55L2262.51 2092.56C2328.17 2051.93 2368.59 2112.08 2372.63 2118.49C2368.71 2112.01 2332.91 2049 2398.57 2008.37L2398.56 2008.36C2332.91 2048.99 2292.49 1988.84 2288.44 1982.43Z" fill="#C1F4F8"/>
<path d="M2441.5 1887.71C2445.43 1894.19 2481.23 1957.21 2415.57 1997.83L2415.58 1997.84C2481.23 1957.21 2521.65 2017.36 2525.7 2023.77C2521.77 2017.29 2485.98 1954.28 2551.63 1913.65L2551.63 1913.64C2485.97 1954.27 2445.55 1894.12 2441.5 1887.71Z" fill="#C1F4F8"/>
<path d="M2594.57 1792.99C2598.49 1799.48 2634.29 1862.49 2568.63 1903.12L2568.64 1903.12C2634.29 1862.49 2674.71 1922.65 2678.76 1929.05C2674.84 1922.57 2639.04 1859.56 2704.7 1818.93L2704.69 1818.92C2639.03 1859.55 2598.62 1799.4 2594.57 1792.99Z" fill="#C1F4F8"/>
<path d="M2747.63 1698.28C2751.56 1704.76 2787.35 1767.77 2721.7 1808.4L2721.7 1808.41C2787.36 1767.78 2827.78 1827.93 2831.83 1834.33C2827.9 1827.85 2792.1 1764.84 2857.76 1724.21L2857.75 1724.2C2792.1 1764.83 2751.68 1704.68 2747.63 1698.28Z" fill="#C1F4F8"/>
<path d="M2900.69 1603.56C2904.62 1610.04 2940.42 1673.05 2874.76 1713.68L2874.77 1713.69C2940.42 1673.06 2980.84 1733.21 2984.89 1739.61C2980.96 1733.13 2945.17 1670.12 3010.82 1629.49L3010.82 1629.48C2945.16 1670.11 2904.74 1609.96 2900.69 1603.56Z" fill="#C1F4F8"/>
<path d="M3053.76 1508.84C3057.68 1515.32 3093.48 1578.33 3027.82 1618.96L3027.83 1618.97C3093.48 1578.34 3133.9 1638.49 3137.95 1644.9C3134.03 1638.41 3098.23 1575.4 3163.88 1534.77L3163.88 1534.77C3098.22 1575.39 3057.81 1515.24 3053.76 1508.84Z" fill="#C1F4F8"/>
<path d="M3206.82 1414.12C3210.75 1420.6 3246.54 1483.61 3180.89 1524.24L3180.89 1524.25C3246.55 1483.62 3286.97 1543.77 3291.02 1550.18C3287.09 1543.69 3251.29 1480.68 3316.95 1440.06L3316.94 1440.05C3251.29 1480.68 3210.87 1420.52 3206.82 1414.12Z" fill="#C1F4F8"/>
<path d="M995.065 2970.95C998.991 2977.43 1034.79 3040.45 969.132 3081.07L969.137 3081.08C1034.79 3040.45 1075.21 3100.61 1079.26 3107.01C1075.33 3100.53 1039.54 3037.52 1105.19 2996.89L1105.19 2996.88C1039.53 3037.51 999.115 2977.36 995.065 2970.95Z" fill="#C1F4F8"/>
<path d="M1148.13 2876.23C1152.05 2882.72 1187.85 2945.73 1122.19 2986.36L1122.2 2986.36C1187.85 2945.74 1228.27 3005.89 1232.32 3012.29C1228.4 3005.81 1192.6 2942.8 1258.26 2902.17L1258.25 2902.16C1192.59 2942.79 1152.18 2882.64 1148.13 2876.23Z" fill="#C1F4F8"/>
<path d="M1301.19 2781.52C1305.12 2788 1340.91 2851.01 1275.26 2891.64L1275.26 2891.65C1340.92 2851.02 1381.34 2911.17 1385.39 2917.57C1381.46 2911.09 1345.66 2848.08 1411.32 2807.45L1411.32 2807.44C1345.66 2848.07 1305.24 2787.92 1301.19 2781.52Z" fill="#C1F4F8"/>
<path d="M1454.25 2686.8C1458.18 2693.28 1493.98 2756.29 1428.32 2796.92L1428.33 2796.93C1493.98 2756.3 1534.4 2816.45 1538.45 2822.85C1534.52 2816.37 1498.73 2753.36 1564.38 2712.73L1564.38 2712.73C1498.72 2753.35 1458.3 2693.2 1454.25 2686.8Z" fill="#C1F4F8"/>
<path d="M1607.32 2592.08C1611.24 2598.56 1647.04 2661.57 1581.39 2702.2L1581.39 2702.21C1647.05 2661.58 1687.46 2721.73 1691.51 2728.14C1687.59 2721.65 1651.79 2658.64 1717.45 2618.01L1717.44 2618.01C1651.79 2658.64 1611.37 2598.48 1607.32 2592.08Z" fill="#C1F4F8"/>
<path d="M1760.38 2497.36C1764.31 2503.84 1800.1 2566.85 1734.45 2607.48L1734.45 2607.49C1800.11 2566.86 1840.53 2627.01 1844.58 2633.42C1840.65 2626.94 1804.85 2563.92 1870.51 2523.3L1870.5 2523.29C1804.85 2563.92 1764.43 2503.77 1760.38 2497.36Z" fill="#C1F4F8"/>
<path d="M1913.45 2402.64C1917.37 2409.12 1953.17 2472.13 1887.51 2512.76L1887.52 2512.77C1953.17 2472.14 1993.59 2532.29 1997.64 2538.7C1993.72 2532.22 1957.92 2469.21 2023.57 2428.58L2023.57 2428.57C1957.91 2469.2 1917.5 2409.05 1913.45 2402.64Z" fill="#C1F4F8"/>
<path d="M2066.51 2307.92C2070.43 2314.41 2106.23 2377.42 2040.58 2418.05L2040.58 2418.05C2106.24 2377.42 2146.65 2437.58 2150.7 2443.98C2146.78 2437.5 2110.98 2374.49 2176.64 2333.86L2176.63 2333.85C2110.98 2374.48 2070.56 2314.33 2066.51 2307.92Z" fill="#C1F4F8"/>
<path d="M2219.57 2213.21C2223.5 2219.69 2259.3 2282.7 2193.64 2323.33L2193.64 2323.34C2259.3 2282.71 2299.72 2342.86 2303.77 2349.26C2299.84 2342.78 2264.05 2279.77 2329.7 2239.14L2329.7 2239.13C2264.04 2279.76 2223.62 2219.61 2219.57 2213.21Z" fill="#C1F4F8"/>
<path d="M2372.64 2118.49C2376.56 2124.97 2412.36 2187.98 2346.7 2228.61L2346.71 2228.62C2412.36 2187.99 2452.78 2248.14 2456.83 2254.54C2452.9 2248.06 2417.11 2185.05 2482.76 2144.42L2482.76 2144.41C2417.1 2185.04 2376.68 2124.89 2372.64 2118.49Z" fill="#C1F4F8"/>
<path d="M2525.7 2023.77C2529.63 2030.25 2565.42 2093.26 2499.77 2133.89L2499.77 2133.9C2565.43 2093.27 2605.85 2153.42 2609.89 2159.82C2605.97 2153.34 2570.17 2090.33 2635.83 2049.7L2635.82 2049.7C2570.17 2090.32 2529.75 2030.17 2525.7 2023.77Z" fill="#C1F4F8"/>
<path d="M2678.76 1929.05C2682.69 1935.53 2718.48 1998.54 2652.83 2039.17L2652.83 2039.18C2718.49 1998.55 2758.91 2058.7 2762.96 2065.11C2759.03 2058.62 2723.23 1995.61 2788.89 1954.99L2788.89 1954.98C2723.23 1995.61 2682.81 1935.45 2678.76 1929.05Z" fill="#C1F4F8"/>
<path d="M2831.83 1834.33C2835.75 1840.81 2871.55 1903.82 2805.89 1944.45L2805.9 1944.46C2871.55 1903.83 2911.97 1963.98 2916.02 1970.39C2912.1 1963.91 2876.3 1900.9 2941.95 1860.27L2941.95 1860.26C2876.29 1900.89 2835.88 1840.74 2831.83 1834.33Z" fill="#C1F4F8"/>
<path d="M2984.89 1739.61C2988.81 1746.09 3024.61 1809.11 2958.96 1849.73L2958.96 1849.74C3024.62 1809.11 3065.03 1869.26 3069.08 1875.67C3065.16 1869.19 3029.36 1806.18 3095.02 1765.55L3095.01 1765.54C3029.36 1806.17 2988.94 1746.02 2984.89 1739.61Z" fill="#C1F4F8"/>
<path d="M3137.95 1644.89C3141.88 1651.38 3177.67 1714.39 3112.02 1755.02L3112.02 1755.02C3177.68 1714.4 3218.1 1774.55 3222.15 1780.95C3218.22 1774.47 3182.42 1711.46 3248.08 1670.83L3248.07 1670.82C3182.42 1711.45 3142 1651.3 3137.95 1644.89Z" fill="#C1F4F8"/>
<path d="M3291.02 1550.18C3294.94 1556.66 3330.74 1619.67 3265.08 1660.3L3265.09 1660.31C3330.74 1619.68 3371.16 1679.83 3375.21 1686.23C3371.29 1679.75 3335.49 1616.74 3401.14 1576.11L3401.14 1576.1C3335.48 1616.73 3295.07 1556.58 3291.02 1550.18Z" fill="#C1F4F8"/>
</svg>
