<svg width="720" height="900" viewBox="0 0 720 900" fill="none" xmlns="http://www.w3.org/2000/svg">
<rect y="-28" width="720" height="900" fill="#F8F7FF"/>
<path d="M720 -28C719.974 -25.2534 718.989 0.998254 691 0.998254V1.00175C718.989 1.00175 719.974 27.2533 720 30C720.026 27.2533 721.011 1.00175 749 1.00175V0.998254C721.011 0.998254 720.026 -25.2534 720 -28Z" fill="white"/>
<path d="M720 30C719.974 32.7466 718.989 58.9983 691 58.9983V59.0017C718.989 59.0017 719.974 85.2533 720 88C720.026 85.2533 721.011 59.0017 749 59.0017V58.9983C721.011 58.9983 720.026 32.7466 720 30Z" fill="white"/>
<path d="M720 88C719.974 90.7466 718.989 116.998 691 116.998V117.002C718.989 117.002 719.974 143.253 720 146C720.026 143.253 721.011 117.002 749 117.002V116.998C721.011 116.998 720.026 90.7466 720 88Z" fill="white"/>
<path d="M720 146C719.974 148.747 718.989 174.998 691 174.998V175.002C718.989 175.002 719.974 201.253 720 204C720.026 201.253 721.011 175.002 749 175.002V174.998C721.011 174.998 720.026 148.747 720 146Z" fill="white"/>
<path d="M720 204C719.974 206.747 718.989 232.998 691 232.998V233.002C718.989 233.002 719.974 259.253 720 262C720.026 259.253 721.011 233.002 749 233.002V232.998C721.011 232.998 720.026 206.747 720 204Z" fill="white"/>
<path d="M720 262C719.974 264.747 718.989 290.998 691 290.998V291.002C718.989 291.002 719.974 317.253 720 320C720.026 317.253 721.011 291.002 749 291.002V290.998C721.011 290.998 720.026 264.747 720 262Z" fill="white"/>
<path d="M720 320C719.974 322.747 718.989 348.998 691 348.998V349.002C718.989 349.002 719.974 375.253 720 378C720.026 375.253 721.011 349.002 749 349.002V348.998C721.011 348.998 720.026 322.747 720 320Z" fill="white"/>
<path d="M720 378C719.974 380.747 718.989 406.998 691 406.998V407.002C718.989 407.002 719.974 433.253 720 436C720.026 433.253 721.011 407.002 749 407.002V406.998C721.011 406.998 720.026 380.747 720 378Z" fill="white"/>
<path d="M720 436C719.974 438.747 718.989 464.998 691 464.998V465.002C718.989 465.002 719.974 491.253 720 494C720.026 491.253 721.011 465.002 749 465.002V464.998C721.011 464.998 720.026 438.747 720 436Z" fill="white"/>
<path d="M720 494C719.974 496.747 718.989 522.998 691 522.998V523.002C718.989 523.002 719.974 549.253 720 552C720.026 549.253 721.011 523.002 749 523.002V522.998C721.011 522.998 720.026 496.747 720 494Z" fill="white"/>
<path d="M720 552C719.974 554.747 718.989 580.998 691 580.998V581.002C718.989 581.002 719.974 607.253 720 610C720.026 607.253 721.011 581.002 749 581.002V580.998C721.011 580.998 720.026 554.747 720 552Z" fill="white"/>
<path d="M720 610C719.974 612.747 718.989 638.998 691 638.998V639.002C718.989 639.002 719.974 665.253 720 668C720.026 665.253 721.011 639.002 749 639.002V638.998C721.011 638.998 720.026 612.747 720 610Z" fill="white"/>
<path d="M720 668C719.974 670.747 718.989 696.998 691 696.998V697.002C718.989 697.002 719.974 723.253 720 726C720.026 723.253 721.011 697.002 749 697.002V696.998C721.011 696.998 720.026 670.747 720 668Z" fill="white"/>
<path d="M720 726C719.974 728.747 718.989 754.998 691 754.998V755.002C718.989 755.002 719.974 781.253 720 784C720.026 781.253 721.011 755.002 749 755.002V754.998C721.011 754.998 720.026 728.747 720 726Z" fill="white"/>
<path d="M720 784C719.974 786.747 718.989 812.998 691 812.998V813.002C718.989 813.002 719.974 839.253 720 842C720.026 839.253 721.011 813.002 749 813.002V812.998C721.011 812.998 720.026 786.747 720 784Z" fill="white"/>
<path d="M720 842C719.974 844.747 718.989 870.998 691 870.998V871.002C718.989 871.002 719.974 897.253 720 900C720.026 897.253 721.011 871.002 749 871.002V870.998C721.011 870.998 720.026 844.747 720 842Z" fill="white"/>
</svg>
