<svg width="1440" height="900" viewBox="0 0 1440 900" fill="none" xmlns="http://www.w3.org/2000/svg">
<path d="M90.0002 -80C89.9274 -72.423 87.2099 -0.00481415 10 -0.00481415V0.00481415C87.2099 0.00481415 89.9274 72.423 90.0002 80C90.0731 72.423 92.7901 0.00481415 170 0.00481415V-0.00481415C92.7901 -0.00481415 90.0731 -72.423 90.0002 -80Z" fill="#F9F4FC"/>
<path d="M270 -80C269.927 -72.423 267.21 -0.00481415 190 -0.00481415V0.00481415C267.21 0.00481415 269.927 72.423 270 80C270.073 72.423 272.79 0.00481415 350 0.00481415V-0.00481415C272.79 -0.00481415 270.073 -72.423 270 -80Z" fill="#F9F4FC"/>
<path d="M450 -80C449.927 -72.423 447.21 -0.00481415 370 -0.00481415V0.00481415C447.21 0.00481415 449.927 72.423 450 80C450.073 72.423 452.79 0.00481415 530 0.00481415V-0.00481415C452.79 -0.00481415 450.073 -72.423 450 -80Z" fill="#F9F4FC"/>
<path d="M630 -80C629.927 -72.423 627.21 -0.00481415 550 -0.00481415V0.00481415C627.21 0.00481415 629.927 72.423 630 80C630.073 72.423 632.79 0.00481415 710 0.00481415V-0.00481415C632.79 -0.00481415 630.073 -72.423 630 -80Z" fill="#F9F4FC"/>
<path d="M810 -80C809.927 -72.423 807.21 -0.00481415 730 -0.00481415V0.00481415C807.21 0.00481415 809.927 72.423 810 80C810.073 72.423 812.79 0.00481415 890 0.00481415V-0.00481415C812.79 -0.00481415 810.073 -72.423 810 -80Z" fill="#F9F4FC"/>
<path d="M990 -80C989.927 -72.423 987.21 -0.00481415 910 -0.00481415V0.00481415C987.21 0.00481415 989.927 72.423 990 80C990.073 72.423 992.79 0.00481415 1070 0.00481415V-0.00481415C992.79 -0.00481415 990.073 -72.423 990 -80Z" fill="#F9F4FC"/>
<path d="M1170 -80C1169.93 -72.423 1167.21 -0.00481415 1090 -0.00481415V0.00481415C1167.21 0.00481415 1169.93 72.423 1170 80C1170.07 72.423 1172.79 0.00481415 1250 0.00481415V-0.00481415C1172.79 -0.00481415 1170.07 -72.423 1170 -80Z" fill="#F9F4FC"/>
<path d="M1350 -80C1349.93 -72.423 1347.21 -0.00481415 1270 -0.00481415V0.00481415C1347.21 0.00481415 1349.93 72.423 1350 80C1350.07 72.423 1352.79 0.00481415 1430 0.00481415V-0.00481415C1352.79 -0.00481415 1350.07 -72.423 1350 -80Z" fill="#F9F4FC"/>
<path d="M90.0002 100C89.9274 107.577 87.2099 179.995 10 179.995V180.005C87.2099 180.005 89.9274 252.423 90.0002 260C90.0731 252.423 92.7901 180.005 170 180.005V179.995C92.7901 179.995 90.0731 107.577 90.0002 100Z" fill="#F9F4FC"/>
<path d="M270 100C269.927 107.577 267.21 179.995 190 179.995V180.005C267.21 180.005 269.927 252.423 270 260C270.073 252.423 272.79 180.005 350 180.005V179.995C272.79 179.995 270.073 107.577 270 100Z" fill="#F9F4FC"/>
<path d="M450 100C449.927 107.577 447.21 179.995 370 179.995V180.005C447.21 180.005 449.927 252.423 450 260C450.073 252.423 452.79 180.005 530 180.005V179.995C452.79 179.995 450.073 107.577 450 100Z" fill="#F9F4FC"/>
<path d="M630 100C629.927 107.577 627.21 179.995 550 179.995V180.005C627.21 180.005 629.927 252.423 630 260C630.073 252.423 632.79 180.005 710 180.005V179.995C632.79 179.995 630.073 107.577 630 100Z" fill="#F9F4FC"/>
<path d="M810 100C809.927 107.577 807.21 179.995 730 179.995V180.005C807.21 180.005 809.927 252.423 810 260C810.073 252.423 812.79 180.005 890 180.005V179.995C812.79 179.995 810.073 107.577 810 100Z" fill="#F9F4FC"/>
<path d="M990 100C989.927 107.577 987.21 179.995 910 179.995V180.005C987.21 180.005 989.927 252.423 990 260C990.073 252.423 992.79 180.005 1070 180.005V179.995C992.79 179.995 990.073 107.577 990 100Z" fill="#F9F4FC"/>
<path d="M1170 100C1169.93 107.577 1167.21 179.995 1090 179.995V180.005C1167.21 180.005 1169.93 252.423 1170 260C1170.07 252.423 1172.79 180.005 1250 180.005V179.995C1172.79 179.995 1170.07 107.577 1170 100Z" fill="#F9F4FC"/>
<path d="M1350 100C1349.93 107.577 1347.21 179.995 1270 179.995V180.005C1347.21 180.005 1349.93 252.423 1350 260C1350.07 252.423 1352.79 180.005 1430 180.005V179.995C1352.79 179.995 1350.07 107.577 1350 100Z" fill="#F9F4FC"/>
<path d="M90.0002 280C89.9274 287.577 87.2099 359.995 10 359.995V360.005C87.2099 360.005 89.9274 432.423 90.0002 440C90.0731 432.423 92.7901 360.005 170 360.005V359.995C92.7901 359.995 90.0731 287.577 90.0002 280Z" fill="#F9F4FC"/>
<path d="M270 280C269.927 287.577 267.21 359.995 190 359.995V360.005C267.21 360.005 269.927 432.423 270 440C270.073 432.423 272.79 360.005 350 360.005V359.995C272.79 359.995 270.073 287.577 270 280Z" fill="#F9F4FC"/>
<path d="M450 280C449.927 287.577 447.21 359.995 370 359.995V360.005C447.21 360.005 449.927 432.423 450 440C450.073 432.423 452.79 360.005 530 360.005V359.995C452.79 359.995 450.073 287.577 450 280Z" fill="#F9F4FC"/>
<path d="M630 280C629.927 287.577 627.21 359.995 550 359.995V360.005C627.21 360.005 629.927 432.423 630 440C630.073 432.423 632.79 360.005 710 360.005V359.995C632.79 359.995 630.073 287.577 630 280Z" fill="#F9F4FC"/>
<path d="M810 280C809.927 287.577 807.21 359.995 730 359.995V360.005C807.21 360.005 809.927 432.423 810 440C810.073 432.423 812.79 360.005 890 360.005V359.995C812.79 359.995 810.073 287.577 810 280Z" fill="#F9F4FC"/>
<path d="M990 280C989.927 287.577 987.21 359.995 910 359.995V360.005C987.21 360.005 989.927 432.423 990 440C990.073 432.423 992.79 360.005 1070 360.005V359.995C992.79 359.995 990.073 287.577 990 280Z" fill="#F9F4FC"/>
<path d="M1170 280C1169.93 287.577 1167.21 359.995 1090 359.995V360.005C1167.21 360.005 1169.93 432.423 1170 440C1170.07 432.423 1172.79 360.005 1250 360.005V359.995C1172.79 359.995 1170.07 287.577 1170 280Z" fill="#F9F4FC"/>
<path d="M1350 280C1349.93 287.577 1347.21 359.995 1270 359.995V360.005C1347.21 360.005 1349.93 432.423 1350 440C1350.07 432.423 1352.79 360.005 1430 360.005V359.995C1352.79 359.995 1350.07 287.577 1350 280Z" fill="#F9F4FC"/>
<path d="M90.0002 460C89.9274 467.577 87.2099 539.995 10 539.995V540.005C87.2099 540.005 89.9274 612.423 90.0002 620C90.0731 612.423 92.7901 540.005 170 540.005V539.995C92.7901 539.995 90.0731 467.577 90.0002 460Z" fill="#F9F4FC"/>
<path d="M270 460C269.927 467.577 267.21 539.995 190 539.995V540.005C267.21 540.005 269.927 612.423 270 620C270.073 612.423 272.79 540.005 350 540.005V539.995C272.79 539.995 270.073 467.577 270 460Z" fill="#F9F4FC"/>
<path d="M450 460C449.927 467.577 447.21 539.995 370 539.995V540.005C447.21 540.005 449.927 612.423 450 620C450.073 612.423 452.79 540.005 530 540.005V539.995C452.79 539.995 450.073 467.577 450 460Z" fill="#F9F4FC"/>
<path d="M630 460C629.927 467.577 627.21 539.995 550 539.995V540.005C627.21 540.005 629.927 612.423 630 620C630.073 612.423 632.79 540.005 710 540.005V539.995C632.79 539.995 630.073 467.577 630 460Z" fill="#F9F4FC"/>
<path d="M810 460C809.927 467.577 807.21 539.995 730 539.995V540.005C807.21 540.005 809.927 612.423 810 620C810.073 612.423 812.79 540.005 890 540.005V539.995C812.79 539.995 810.073 467.577 810 460Z" fill="#F9F4FC"/>
<path d="M990 460C989.927 467.577 987.21 539.995 910 539.995V540.005C987.21 540.005 989.927 612.423 990 620C990.073 612.423 992.79 540.005 1070 540.005V539.995C992.79 539.995 990.073 467.577 990 460Z" fill="#F9F4FC"/>
<path d="M1170 460C1169.93 467.577 1167.21 539.995 1090 539.995V540.005C1167.21 540.005 1169.93 612.423 1170 620C1170.07 612.423 1172.79 540.005 1250 540.005V539.995C1172.79 539.995 1170.07 467.577 1170 460Z" fill="#F9F4FC"/>
<path d="M1350 460C1349.93 467.577 1347.21 539.995 1270 539.995V540.005C1347.21 540.005 1349.93 612.423 1350 620C1350.07 612.423 1352.79 540.005 1430 540.005V539.995C1352.79 539.995 1350.07 467.577 1350 460Z" fill="#F9F4FC"/>
<path d="M90.0002 640C89.9274 647.577 87.2099 719.995 10 719.995V720.005C87.2099 720.005 89.9274 792.423 90.0002 800C90.0731 792.423 92.7901 720.005 170 720.005V719.995C92.7901 719.995 90.0731 647.577 90.0002 640Z" fill="#F9F4FC"/>
<path d="M270 640C269.927 647.577 267.21 719.995 190 719.995V720.005C267.21 720.005 269.927 792.423 270 800C270.073 792.423 272.79 720.005 350 720.005V719.995C272.79 719.995 270.073 647.577 270 640Z" fill="#F9F4FC"/>
<path d="M450 640C449.927 647.577 447.21 719.995 370 719.995V720.005C447.21 720.005 449.927 792.423 450 800C450.073 792.423 452.79 720.005 530 720.005V719.995C452.79 719.995 450.073 647.577 450 640Z" fill="#F9F4FC"/>
<path d="M630 640C629.927 647.577 627.21 719.995 550 719.995V720.005C627.21 720.005 629.927 792.423 630 800C630.073 792.423 632.79 720.005 710 720.005V719.995C632.79 719.995 630.073 647.577 630 640Z" fill="#F9F4FC"/>
<path d="M810 640C809.927 647.577 807.21 719.995 730 719.995V720.005C807.21 720.005 809.927 792.423 810 800C810.073 792.423 812.79 720.005 890 720.005V719.995C812.79 719.995 810.073 647.577 810 640Z" fill="#F9F4FC"/>
<path d="M990 640C989.927 647.577 987.21 719.995 910 719.995V720.005C987.21 720.005 989.927 792.423 990 800C990.073 792.423 992.79 720.005 1070 720.005V719.995C992.79 719.995 990.073 647.577 990 640Z" fill="#F9F4FC"/>
<path d="M1170 640C1169.93 647.577 1167.21 719.995 1090 719.995V720.005C1167.21 720.005 1169.93 792.423 1170 800C1170.07 792.423 1172.79 720.005 1250 720.005V719.995C1172.79 719.995 1170.07 647.577 1170 640Z" fill="#F9F4FC"/>
<path d="M1350 640C1349.93 647.577 1347.21 719.995 1270 719.995V720.005C1347.21 720.005 1349.93 792.423 1350 800C1350.07 792.423 1352.79 720.005 1430 720.005V719.995C1352.79 719.995 1350.07 647.577 1350 640Z" fill="#F9F4FC"/>
<path d="M90.0002 820C89.9274 827.577 87.2099 899.995 10 899.995V900.005C87.2099 900.005 89.9274 972.423 90.0002 980C90.0731 972.423 92.7901 900.005 170 900.005V899.995C92.7901 899.995 90.0731 827.577 90.0002 820Z" fill="#F9F4FC"/>
<path d="M270 820C269.927 827.577 267.21 899.995 190 899.995V900.005C267.21 900.005 269.927 972.423 270 980C270.073 972.423 272.79 900.005 350 900.005V899.995C272.79 899.995 270.073 827.577 270 820Z" fill="#F9F4FC"/>
<path d="M450 820C449.927 827.577 447.21 899.995 370 899.995V900.005C447.21 900.005 449.927 972.423 450 980C450.073 972.423 452.79 900.005 530 900.005V899.995C452.79 899.995 450.073 827.577 450 820Z" fill="#F9F4FC"/>
<path d="M630 820C629.927 827.577 627.21 899.995 550 899.995V900.005C627.21 900.005 629.927 972.423 630 980C630.073 972.423 632.79 900.005 710 900.005V899.995C632.79 899.995 630.073 827.577 630 820Z" fill="#F9F4FC"/>
<path d="M810 820C809.927 827.577 807.21 899.995 730 899.995V900.005C807.21 900.005 809.927 972.423 810 980C810.073 972.423 812.79 900.005 890 900.005V899.995C812.79 899.995 810.073 827.577 810 820Z" fill="#F9F4FC"/>
<path d="M990 820C989.927 827.577 987.21 899.995 910 899.995V900.005C987.21 900.005 989.927 972.423 990 980C990.073 972.423 992.79 900.005 1070 900.005V899.995C992.79 899.995 990.073 827.577 990 820Z" fill="#F9F4FC"/>
<path d="M1170 820C1169.93 827.577 1167.21 899.995 1090 899.995V900.005C1167.21 900.005 1169.93 972.423 1170 980C1170.07 972.423 1172.79 900.005 1250 900.005V899.995C1172.79 899.995 1170.07 827.577 1170 820Z" fill="#F9F4FC"/>
<path d="M1350 820C1349.93 827.577 1347.21 899.995 1270 899.995V900.005C1347.21 900.005 1349.93 972.423 1350 980C1350.07 972.423 1352.79 900.005 1430 900.005V899.995C1352.79 899.995 1350.07 827.577 1350 820Z" fill="#F9F4FC"/>
</svg>
