<svg width="101" height="20" viewBox="0 0 101 20" fill="none" xmlns="http://www.w3.org/2000/svg">
<path d="M28.0999 0H24V20H28.0999V0Z" fill="#101010"/>
<path d="M42.333 20L48.952 0H44.7534L39.9619 14.4376L35.1952 0H30.9965L37.5909 20H42.333Z" fill="#101010"/>
<path d="M51.8509 0V20H66.1264V16.0198H56.173V11.5698L64.4716 11.5946V7.61434L56.173 7.56489V4.00494H66.1264V0H51.8509Z" fill="#101010"/>
<path d="M73.4646 15.9951V0H69.0436V20H83.2203V15.9951H73.4646Z" fill="#101010"/>
<path d="M90.5072 15.9951V0H86.0863V20H100.263V15.9951H90.5072Z" fill="#101010"/>
<path d="M9.87261 0C4.42012 0 0 4.42012 0 9.87261H4.88152C4.88154 7.11611 7.11611 4.88152 9.87261 4.88148V0Z" fill="#101010"/>
<path d="M14.8638 9.87261H19.7452C19.7452 15.3251 15.3251 19.7452 9.87261 19.7452V14.8638C12.6291 14.8638 14.8638 12.6292 14.8638 9.87261Z" fill="#101010"/>
<rect x="9.80859" y="9.80884" width="9.93631" height="3.82166" fill="#101010"/>
<rect x="16.1777" y="20" width="10.1911" height="3.82166" transform="rotate(-90 16.1777 20)" fill="#101010"/>
<path d="M9.34765 14.8365C6.86821 15.0986 4.93631 17.1963 4.93631 19.7452C4.93631 17.019 2.72625 14.8089 0 14.8089C2.54905 14.8089 4.64683 12.8768 4.90876 10.3972C5.15289 12.7346 7.01028 14.5922 9.34765 14.8365Z" fill="#101010"/>
<path d="M10.3984 4.90874C12.8779 4.6467 14.8099 2.54897 14.8099 0C14.8099 2.72625 17.02 4.93631 19.7462 4.93631C17.1974 4.93631 15.0997 6.86809 14.8375 9.34741C14.5931 7.0102 12.7357 5.15294 10.3984 4.90874Z" fill="#101010"/>
</svg>
