<svg width="141" height="141" viewBox="0 0 141 141" fill="none" xmlns="http://www.w3.org/2000/svg">
<path d="M69.6075 0.497803C31.4388 0.497803 0.49707 31.4396 0.49707 69.6082H34.6688C34.6689 50.312 50.3114 34.6694 69.6075 34.6692V0.497803Z" fill="#101010"/>
<path d="M104.547 69.6082H138.718C138.718 107.777 107.776 138.719 69.6075 138.719V104.547C88.9038 104.547 104.547 88.9045 104.547 69.6082Z" fill="#101010"/>
<rect x="69.1611" y="69.1628" width="69.5563" height="26.7524" fill="#101010"/>
<rect x="113.745" y="140.502" width="71.3397" height="26.7524" transform="rotate(-90 113.745 140.502)" fill="#101010"/>
<path d="M65.9326 104.357C48.576 106.192 35.0523 120.876 35.0523 138.719C35.0523 119.635 19.5814 104.164 0.49707 104.164C18.341 104.164 33.0259 90.6386 34.8595 73.2808C36.5684 89.6433 49.5705 102.646 65.9326 104.357Z" fill="#101010"/>
<path d="M73.2883 34.86C90.6454 33.0257 104.17 18.3411 104.17 0.497803C104.17 19.5821 119.641 35.053 138.725 35.053C120.882 35.053 106.199 48.5759 104.363 65.9316C102.652 49.5706 89.6498 36.5695 73.2883 34.86Z" fill="#101010"/>
</svg>
