<svg width="58" height="928" viewBox="0 0 58 928" fill="none" xmlns="http://www.w3.org/2000/svg">
<path d="M29.0001 0C28.9737 2.74665 27.9886 28.9983 0 28.9983V29.0017C27.9886 29.0017 28.9737 55.2533 29.0001 58C29.0265 55.2533 30.0114 29.0017 58 29.0017V28.9983C30.0114 28.9983 29.0265 2.74665 29.0001 0Z" fill="white"/>
<path d="M29.0001 58C28.9737 60.7466 27.9886 86.9983 0 86.9983V87.0017C27.9886 87.0017 28.9737 113.253 29.0001 116C29.0265 113.253 30.0114 87.0017 58 87.0017V86.9983C30.0114 86.9983 29.0265 60.7466 29.0001 58Z" fill="white"/>
<path d="M29.0001 116C28.9737 118.747 27.9886 144.998 0 144.998V145.002C27.9886 145.002 28.9737 171.253 29.0001 174C29.0265 171.253 30.0114 145.002 58 145.002V144.998C30.0114 144.998 29.0265 118.747 29.0001 116Z" fill="white"/>
<path d="M29.0001 174C28.9737 176.747 27.9886 202.998 0 202.998V203.002C27.9886 203.002 28.9737 229.253 29.0001 232C29.0265 229.253 30.0114 203.002 58 203.002V202.998C30.0114 202.998 29.0265 176.747 29.0001 174Z" fill="white"/>
<path d="M29.0001 232C28.9737 234.747 27.9886 260.998 0 260.998V261.002C27.9886 261.002 28.9737 287.253 29.0001 290C29.0265 287.253 30.0114 261.002 58 261.002V260.998C30.0114 260.998 29.0265 234.747 29.0001 232Z" fill="white"/>
<path d="M29.0001 290C28.9737 292.747 27.9886 318.998 0 318.998V319.002C27.9886 319.002 28.9737 345.253 29.0001 348C29.0265 345.253 30.0114 319.002 58 319.002V318.998C30.0114 318.998 29.0265 292.747 29.0001 290Z" fill="white"/>
<path d="M29.0001 348C28.9737 350.747 27.9886 376.998 0 376.998V377.002C27.9886 377.002 28.9737 403.253 29.0001 406C29.0265 403.253 30.0114 377.002 58 377.002V376.998C30.0114 376.998 29.0265 350.747 29.0001 348Z" fill="white"/>
<path d="M29.0001 406C28.9737 408.747 27.9886 434.998 0 434.998V435.002C27.9886 435.002 28.9737 461.253 29.0001 464C29.0265 461.253 30.0114 435.002 58 435.002V434.998C30.0114 434.998 29.0265 408.747 29.0001 406Z" fill="white"/>
<path d="M29.0001 464C28.9737 466.747 27.9886 492.998 0 492.998V493.002C27.9886 493.002 28.9737 519.253 29.0001 522C29.0265 519.253 30.0114 493.002 58 493.002V492.998C30.0114 492.998 29.0265 466.747 29.0001 464Z" fill="white"/>
<path d="M29.0001 522C28.9737 524.747 27.9886 550.998 0 550.998V551.002C27.9886 551.002 28.9737 577.253 29.0001 580C29.0265 577.253 30.0114 551.002 58 551.002V550.998C30.0114 550.998 29.0265 524.747 29.0001 522Z" fill="white"/>
<path d="M29.0001 580C28.9737 582.747 27.9886 608.998 0 608.998V609.002C27.9886 609.002 28.9737 635.253 29.0001 638C29.0265 635.253 30.0114 609.002 58 609.002V608.998C30.0114 608.998 29.0265 582.747 29.0001 580Z" fill="white"/>
<path d="M29.0001 638C28.9737 640.747 27.9886 666.998 0 666.998V667.002C27.9886 667.002 28.9737 693.253 29.0001 696C29.0265 693.253 30.0114 667.002 58 667.002V666.998C30.0114 666.998 29.0265 640.747 29.0001 638Z" fill="white"/>
<path d="M29.0001 696C28.9737 698.747 27.9886 724.998 0 724.998V725.002C27.9886 725.002 28.9737 751.253 29.0001 754C29.0265 751.253 30.0114 725.002 58 725.002V724.998C30.0114 724.998 29.0265 698.747 29.0001 696Z" fill="white"/>
<path d="M29.0001 754C28.9737 756.747 27.9886 782.998 0 782.998V783.002C27.9886 783.002 28.9737 809.253 29.0001 812C29.0265 809.253 30.0114 783.002 58 783.002V782.998C30.0114 782.998 29.0265 756.747 29.0001 754Z" fill="white"/>
<path d="M29.0001 812C28.9737 814.747 27.9886 840.998 0 840.998V841.002C27.9886 841.002 28.9737 867.253 29.0001 870C29.0265 867.253 30.0114 841.002 58 841.002V840.998C30.0114 840.998 29.0265 814.747 29.0001 812Z" fill="white"/>
<path d="M29.0001 870C28.9737 872.747 27.9886 898.998 0 898.998V899.002C27.9886 899.002 28.9737 925.253 29.0001 928C29.0265 925.253 30.0114 899.002 58 899.002V898.998C30.0114 898.998 29.0265 872.747 29.0001 870Z" fill="white"/>
</svg>
