<svg width="339" height="560" viewBox="0 0 339 560" fill="none" xmlns="http://www.w3.org/2000/svg">
<rect width="339" height="531" fill="#F8F7FF"/>
<path d="M29.0001 502C28.9737 504.747 27.9886 530.998 0 530.998V531.002C27.9886 531.002 28.9737 557.253 29.0001 560C29.0265 557.253 30.0114 531.002 58 531.002V530.998C30.0114 530.998 29.0265 504.747 29.0001 502Z" fill="white"/>
<path d="M87.0001 502C86.9737 504.747 85.9886 530.998 58 530.998V531.002C85.9886 531.002 86.9737 557.253 87.0001 560C87.0265 557.253 88.0114 531.002 116 531.002V530.998C88.0114 530.998 87.0265 504.747 87.0001 502Z" fill="white"/>
<path d="M145 502C144.974 504.747 143.989 530.998 116 530.998V531.002C143.989 531.002 144.974 557.253 145 560C145.026 557.253 146.011 531.002 174 531.002V530.998C146.011 530.998 145.026 504.747 145 502Z" fill="white"/>
<path d="M203 502C202.974 504.747 201.989 530.998 174 530.998V531.002C201.989 531.002 202.974 557.253 203 560C203.026 557.253 204.011 531.002 232 531.002V530.998C204.011 530.998 203.026 504.747 203 502Z" fill="white"/>
<path d="M261 502C260.974 504.747 259.989 530.998 232 530.998V531.002C259.989 531.002 260.974 557.253 261 560C261.026 557.253 262.011 531.002 290 531.002V530.998C262.011 530.998 261.026 504.747 261 502Z" fill="white"/>
<path d="M319 502C318.974 504.747 317.989 530.998 290 530.998V531.002C317.989 531.002 318.974 557.253 319 560C319.026 557.253 320.011 531.002 348 531.002V530.998C320.011 530.998 319.026 504.747 319 502Z" fill="white"/>
</svg>
