<svg width="447" height="1667" viewBox="0 0 447 1667" fill="none" xmlns="http://www.w3.org/2000/svg">
<path d="M20.0001 0C19.9819 1.89424 19.3025 19.9988 0 19.9988V20.0012C19.3025 20.0012 19.9819 38.1058 20.0001 40C20.0183 38.1058 20.6975 20.0012 40 20.0012V19.9988C20.6975 19.9988 20.0183 1.89424 20.0001 0Z" fill="#F9F4FC"/>
<path d="M65.1797 0C65.1615 1.89424 64.4822 19.9988 45.1797 19.9988V20.0012C64.4822 20.0012 65.1615 38.1058 65.1797 40C65.198 38.1058 65.8772 20.0012 85.1797 20.0012V19.9988C65.8772 19.9988 65.198 1.89424 65.1797 0Z" fill="#F9F4FC"/>
<path d="M110.359 0C110.341 1.89424 109.662 19.9988 90.3594 19.9988V20.0012C109.662 20.0012 110.341 38.1058 110.359 40C110.378 38.1058 111.057 20.0012 130.359 20.0012V19.9988C111.057 19.9988 110.378 1.89424 110.359 0Z" fill="#F9F4FC"/>
<path d="M155.539 0C155.521 1.89424 154.842 19.9988 135.539 19.9988V20.0012C154.842 20.0012 155.521 38.1058 155.539 40C155.557 38.1058 156.237 20.0012 175.539 20.0012V19.9988C156.237 19.9988 155.557 1.89424 155.539 0Z" fill="#F9F4FC"/>
<path d="M200.719 0C200.701 1.89424 200.021 19.9988 180.719 19.9988V20.0012C200.021 20.0012 200.701 38.1058 200.719 40C200.737 38.1058 201.416 20.0012 220.719 20.0012V19.9988C201.416 19.9988 200.737 1.89424 200.719 0Z" fill="#F9F4FC"/>
<path d="M245.898 0C245.88 1.89424 245.201 19.9988 225.898 19.9988V20.0012C245.201 20.0012 245.88 38.1058 245.898 40C245.917 38.1058 246.596 20.0012 265.898 20.0012V19.9988C246.596 19.9988 245.917 1.89424 245.898 0Z" fill="#F9F4FC"/>
<path d="M291.078 0C291.06 1.89424 290.381 19.9988 271.078 19.9988V20.0012C290.381 20.0012 291.06 38.1058 291.078 40C291.096 38.1058 291.776 20.0012 311.078 20.0012V19.9988C291.776 19.9988 291.096 1.89424 291.078 0Z" fill="#F9F4FC"/>
<path d="M336.258 0C336.24 1.89424 335.56 19.9988 316.258 19.9988V20.0012C335.56 20.0012 336.24 38.1058 336.258 40C336.276 38.1058 336.955 20.0012 356.258 20.0012V19.9988C336.955 19.9988 336.276 1.89424 336.258 0Z" fill="#F9F4FC"/>
<path d="M381.438 0C381.419 1.89424 380.74 19.9988 361.438 19.9988V20.0012C380.74 20.0012 381.419 38.1058 381.438 40C381.456 38.1058 382.135 20.0012 401.438 20.0012V19.9988C382.135 19.9988 381.456 1.89424 381.438 0Z" fill="#F9F4FC"/>
<path d="M426.617 0C426.599 1.89424 425.92 19.9988 406.617 19.9988V20.0012C425.92 20.0012 426.599 38.1058 426.617 40C426.635 38.1058 427.315 20.0012 446.617 20.0012V19.9988C427.315 19.9988 426.635 1.89424 426.617 0Z" fill="#F9F4FC"/>
<path d="M20.0001 45.1797C19.9819 47.0739 19.3025 65.1785 0 65.1785V65.1809C19.3025 65.1809 19.9819 83.2854 20.0001 85.1797C20.0183 83.2854 20.6975 65.1809 40 65.1809V65.1785C20.6975 65.1785 20.0183 47.0739 20.0001 45.1797Z" fill="#F9F4FC"/>
<path d="M65.1797 45.1797C65.1615 47.0739 64.4822 65.1785 45.1797 65.1785V65.1809C64.4822 65.1809 65.1615 83.2854 65.1797 85.1797C65.198 83.2854 65.8772 65.1809 85.1797 65.1809V65.1785C65.8772 65.1785 65.198 47.0739 65.1797 45.1797Z" fill="#F9F4FC"/>
<path d="M110.359 45.1797C110.341 47.0739 109.662 65.1785 90.3594 65.1785V65.1809C109.662 65.1809 110.341 83.2854 110.359 85.1797C110.378 83.2854 111.057 65.1809 130.359 65.1809V65.1785C111.057 65.1785 110.378 47.0739 110.359 45.1797Z" fill="#F9F4FC"/>
<path d="M155.539 45.1797C155.521 47.0739 154.842 65.1785 135.539 65.1785V65.1809C154.842 65.1809 155.521 83.2854 155.539 85.1797C155.557 83.2854 156.237 65.1809 175.539 65.1809V65.1785C156.237 65.1785 155.557 47.0739 155.539 45.1797Z" fill="#F9F4FC"/>
<path d="M200.719 45.1797C200.701 47.0739 200.021 65.1785 180.719 65.1785V65.1809C200.021 65.1809 200.701 83.2854 200.719 85.1797C200.737 83.2854 201.416 65.1809 220.719 65.1809V65.1785C201.416 65.1785 200.737 47.0739 200.719 45.1797Z" fill="#F9F4FC"/>
<path d="M245.898 45.1797C245.88 47.0739 245.201 65.1785 225.898 65.1785V65.1809C245.201 65.1809 245.88 83.2854 245.898 85.1797C245.917 83.2854 246.596 65.1809 265.898 65.1809V65.1785C246.596 65.1785 245.917 47.0739 245.898 45.1797Z" fill="#F9F4FC"/>
<path d="M291.078 45.1797C291.06 47.0739 290.381 65.1785 271.078 65.1785V65.1809C290.381 65.1809 291.06 83.2854 291.078 85.1797C291.096 83.2854 291.776 65.1809 311.078 65.1809V65.1785C291.776 65.1785 291.096 47.0739 291.078 45.1797Z" fill="#F9F4FC"/>
<path d="M336.258 45.1797C336.24 47.0739 335.56 65.1785 316.258 65.1785V65.1809C335.56 65.1809 336.24 83.2854 336.258 85.1797C336.276 83.2854 336.955 65.1809 356.258 65.1809V65.1785C336.955 65.1785 336.276 47.0739 336.258 45.1797Z" fill="#F9F4FC"/>
<path d="M381.438 45.1797C381.419 47.0739 380.74 65.1785 361.438 65.1785V65.1809C380.74 65.1809 381.419 83.2854 381.438 85.1797C381.456 83.2854 382.135 65.1809 401.438 65.1809V65.1785C382.135 65.1785 381.456 47.0739 381.438 45.1797Z" fill="#F9F4FC"/>
<path d="M426.617 45.1797C426.599 47.0739 425.92 65.1785 406.617 65.1785V65.1809C425.92 65.1809 426.599 83.2854 426.617 85.1797C426.635 83.2854 427.315 65.1809 446.617 65.1809V65.1785C427.315 65.1785 426.635 47.0739 426.617 45.1797Z" fill="#F9F4FC"/>
<path d="M20.0001 90.3594C19.9819 92.2536 19.3025 110.358 0 110.358V110.361C19.3025 110.361 19.9819 128.465 20.0001 130.359C20.0183 128.465 20.6975 110.361 40 110.361V110.358C20.6975 110.358 20.0183 92.2536 20.0001 90.3594Z" fill="#F9F4FC"/>
<path d="M65.1797 90.3594C65.1615 92.2536 64.4822 110.358 45.1797 110.358V110.361C64.4822 110.361 65.1615 128.465 65.1797 130.359C65.198 128.465 65.8772 110.361 85.1797 110.361V110.358C65.8772 110.358 65.198 92.2536 65.1797 90.3594Z" fill="#F9F4FC"/>
<path d="M110.359 90.3594C110.341 92.2536 109.662 110.358 90.3594 110.358V110.361C109.662 110.361 110.341 128.465 110.359 130.359C110.378 128.465 111.057 110.361 130.359 110.361V110.358C111.057 110.358 110.378 92.2536 110.359 90.3594Z" fill="#F9F4FC"/>
<path d="M155.539 90.3594C155.521 92.2536 154.842 110.358 135.539 110.358V110.361C154.842 110.361 155.521 128.465 155.539 130.359C155.557 128.465 156.237 110.361 175.539 110.361V110.358C156.237 110.358 155.557 92.2536 155.539 90.3594Z" fill="#F9F4FC"/>
<path d="M200.719 90.3594C200.701 92.2536 200.021 110.358 180.719 110.358V110.361C200.021 110.361 200.701 128.465 200.719 130.359C200.737 128.465 201.416 110.361 220.719 110.361V110.358C201.416 110.358 200.737 92.2536 200.719 90.3594Z" fill="#F9F4FC"/>
<path d="M245.898 90.3594C245.88 92.2536 245.201 110.358 225.898 110.358V110.361C245.201 110.361 245.88 128.465 245.898 130.359C245.917 128.465 246.596 110.361 265.898 110.361V110.358C246.596 110.358 245.917 92.2536 245.898 90.3594Z" fill="#F9F4FC"/>
<path d="M291.078 90.3594C291.06 92.2536 290.381 110.358 271.078 110.358V110.361C290.381 110.361 291.06 128.465 291.078 130.359C291.096 128.465 291.776 110.361 311.078 110.361V110.358C291.776 110.358 291.096 92.2536 291.078 90.3594Z" fill="#F9F4FC"/>
<path d="M336.258 90.3594C336.24 92.2536 335.56 110.358 316.258 110.358V110.361C335.56 110.361 336.24 128.465 336.258 130.359C336.276 128.465 336.955 110.361 356.258 110.361V110.358C336.955 110.358 336.276 92.2536 336.258 90.3594Z" fill="#F9F4FC"/>
<path d="M381.438 90.3594C381.419 92.2536 380.74 110.358 361.438 110.358V110.361C380.74 110.361 381.419 128.465 381.438 130.359C381.456 128.465 382.135 110.361 401.438 110.361V110.358C382.135 110.358 381.456 92.2536 381.438 90.3594Z" fill="#F9F4FC"/>
<path d="M426.617 90.3594C426.599 92.2536 425.92 110.358 406.617 110.358V110.361C425.92 110.361 426.599 128.465 426.617 130.359C426.635 128.465 427.315 110.361 446.617 110.361V110.358C427.315 110.358 426.635 92.2536 426.617 90.3594Z" fill="#F9F4FC"/>
<path d="M20.0001 135.54C19.9819 137.434 19.3025 155.538 0 155.538V155.541C19.3025 155.541 19.9819 173.645 20.0001 175.54C20.0183 173.645 20.6975 155.541 40 155.541V155.538C20.6975 155.538 20.0183 137.434 20.0001 135.54Z" fill="#F9F4FC"/>
<path d="M65.1797 135.54C65.1615 137.434 64.4822 155.538 45.1797 155.538V155.541C64.4822 155.541 65.1615 173.645 65.1797 175.54C65.198 173.645 65.8772 155.541 85.1797 155.541V155.538C65.8772 155.538 65.198 137.434 65.1797 135.54Z" fill="#F9F4FC"/>
<path d="M110.359 135.54C110.341 137.434 109.662 155.538 90.3594 155.538V155.541C109.662 155.541 110.341 173.645 110.359 175.54C110.378 173.645 111.057 155.541 130.359 155.541V155.538C111.057 155.538 110.378 137.434 110.359 135.54Z" fill="#F9F4FC"/>
<path d="M155.539 135.54C155.521 137.434 154.842 155.538 135.539 155.538V155.541C154.842 155.541 155.521 173.645 155.539 175.54C155.557 173.645 156.237 155.541 175.539 155.541V155.538C156.237 155.538 155.557 137.434 155.539 135.54Z" fill="#F9F4FC"/>
<path d="M200.719 135.54C200.701 137.434 200.021 155.538 180.719 155.538V155.541C200.021 155.541 200.701 173.645 200.719 175.54C200.737 173.645 201.416 155.541 220.719 155.541V155.538C201.416 155.538 200.737 137.434 200.719 135.54Z" fill="#F9F4FC"/>
<path d="M245.898 135.54C245.88 137.434 245.201 155.538 225.898 155.538V155.541C245.201 155.541 245.88 173.645 245.898 175.54C245.917 173.645 246.596 155.541 265.898 155.541V155.538C246.596 155.538 245.917 137.434 245.898 135.54Z" fill="#F9F4FC"/>
<path d="M291.078 135.54C291.06 137.434 290.381 155.538 271.078 155.538V155.541C290.381 155.541 291.06 173.645 291.078 175.54C291.096 173.645 291.776 155.541 311.078 155.541V155.538C291.776 155.538 291.096 137.434 291.078 135.54Z" fill="#F9F4FC"/>
<path d="M336.258 135.54C336.24 137.434 335.56 155.538 316.258 155.538V155.541C335.56 155.541 336.24 173.645 336.258 175.54C336.276 173.645 336.955 155.541 356.258 155.541V155.538C336.955 155.538 336.276 137.434 336.258 135.54Z" fill="#F9F4FC"/>
<path d="M381.438 135.54C381.419 137.434 380.74 155.538 361.438 155.538V155.541C380.74 155.541 381.419 173.645 381.438 175.54C381.456 173.645 382.135 155.541 401.438 155.541V155.538C382.135 155.538 381.456 137.434 381.438 135.54Z" fill="#F9F4FC"/>
<path d="M426.617 135.54C426.599 137.434 425.92 155.538 406.617 155.538V155.541C425.92 155.541 426.599 173.645 426.617 175.54C426.635 173.645 427.315 155.541 446.617 155.541V155.538C427.315 155.538 426.635 137.434 426.617 135.54Z" fill="#F9F4FC"/>
<path d="M20.0001 180.719C19.9819 182.613 19.3025 200.718 0 200.718V200.72C19.3025 200.72 19.9819 218.825 20.0001 220.719C20.0183 218.825 20.6975 200.72 40 200.72V200.718C20.6975 200.718 20.0183 182.613 20.0001 180.719Z" fill="#F9F4FC"/>
<path d="M65.1797 180.719C65.1615 182.613 64.4822 200.718 45.1797 200.718V200.72C64.4822 200.72 65.1615 218.825 65.1797 220.719C65.198 218.825 65.8772 200.72 85.1797 200.72V200.718C65.8772 200.718 65.198 182.613 65.1797 180.719Z" fill="#F9F4FC"/>
<path d="M110.359 180.719C110.341 182.613 109.662 200.718 90.3594 200.718V200.72C109.662 200.72 110.341 218.825 110.359 220.719C110.378 218.825 111.057 200.72 130.359 200.72V200.718C111.057 200.718 110.378 182.613 110.359 180.719Z" fill="#F9F4FC"/>
<path d="M155.539 180.719C155.521 182.613 154.842 200.718 135.539 200.718V200.72C154.842 200.72 155.521 218.825 155.539 220.719C155.557 218.825 156.237 200.72 175.539 200.72V200.718C156.237 200.718 155.557 182.613 155.539 180.719Z" fill="#F9F4FC"/>
<path d="M200.719 180.719C200.701 182.613 200.021 200.718 180.719 200.718V200.72C200.021 200.72 200.701 218.825 200.719 220.719C200.737 218.825 201.416 200.72 220.719 200.72V200.718C201.416 200.718 200.737 182.613 200.719 180.719Z" fill="#F9F4FC"/>
<path d="M245.898 180.719C245.88 182.613 245.201 200.718 225.898 200.718V200.72C245.201 200.72 245.88 218.825 245.898 220.719C245.917 218.825 246.596 200.72 265.898 200.72V200.718C246.596 200.718 245.917 182.613 245.898 180.719Z" fill="#F9F4FC"/>
<path d="M291.078 180.719C291.06 182.613 290.381 200.718 271.078 200.718V200.72C290.381 200.72 291.06 218.825 291.078 220.719C291.096 218.825 291.776 200.72 311.078 200.72V200.718C291.776 200.718 291.096 182.613 291.078 180.719Z" fill="#F9F4FC"/>
<path d="M336.258 180.719C336.24 182.613 335.56 200.718 316.258 200.718V200.72C335.56 200.72 336.24 218.825 336.258 220.719C336.276 218.825 336.955 200.72 356.258 200.72V200.718C336.955 200.718 336.276 182.613 336.258 180.719Z" fill="#F9F4FC"/>
<path d="M381.438 180.719C381.419 182.613 380.74 200.718 361.438 200.718V200.72C380.74 200.72 381.419 218.825 381.438 220.719C381.456 218.825 382.135 200.72 401.438 200.72V200.718C382.135 200.718 381.456 182.613 381.438 180.719Z" fill="#F9F4FC"/>
<path d="M426.617 180.719C426.599 182.613 425.92 200.718 406.617 200.718V200.72C425.92 200.72 426.599 218.825 426.617 220.719C426.635 218.825 427.315 200.72 446.617 200.72V200.718C427.315 200.718 426.635 182.613 426.617 180.719Z" fill="#F9F4FC"/>
<path d="M20.0001 225.899C19.9819 227.793 19.3025 245.898 0 245.898V245.9C19.3025 245.9 19.9819 264.005 20.0001 265.899C20.0183 264.005 20.6975 245.9 40 245.9V245.898C20.6975 245.898 20.0183 227.793 20.0001 225.899Z" fill="#F9F4FC"/>
<path d="M65.1797 225.899C65.1615 227.793 64.4822 245.898 45.1797 245.898V245.9C64.4822 245.9 65.1615 264.005 65.1797 265.899C65.198 264.005 65.8772 245.9 85.1797 245.9V245.898C65.8772 245.898 65.198 227.793 65.1797 225.899Z" fill="#F9F4FC"/>
<path d="M110.359 225.899C110.341 227.793 109.662 245.898 90.3594 245.898V245.9C109.662 245.9 110.341 264.005 110.359 265.899C110.378 264.005 111.057 245.9 130.359 245.9V245.898C111.057 245.898 110.378 227.793 110.359 225.899Z" fill="#F9F4FC"/>
<path d="M155.539 225.899C155.521 227.793 154.842 245.898 135.539 245.898V245.9C154.842 245.9 155.521 264.005 155.539 265.899C155.557 264.005 156.237 245.9 175.539 245.9V245.898C156.237 245.898 155.557 227.793 155.539 225.899Z" fill="#F9F4FC"/>
<path d="M200.719 225.899C200.701 227.793 200.021 245.898 180.719 245.898V245.9C200.021 245.9 200.701 264.005 200.719 265.899C200.737 264.005 201.416 245.9 220.719 245.9V245.898C201.416 245.898 200.737 227.793 200.719 225.899Z" fill="#F9F4FC"/>
<path d="M245.898 225.899C245.88 227.793 245.201 245.898 225.898 245.898V245.9C245.201 245.9 245.88 264.005 245.898 265.899C245.917 264.005 246.596 245.9 265.898 245.9V245.898C246.596 245.898 245.917 227.793 245.898 225.899Z" fill="#F9F4FC"/>
<path d="M291.078 225.899C291.06 227.793 290.381 245.898 271.078 245.898V245.9C290.381 245.9 291.06 264.005 291.078 265.899C291.096 264.005 291.776 245.9 311.078 245.9V245.898C291.776 245.898 291.096 227.793 291.078 225.899Z" fill="#F9F4FC"/>
<path d="M336.258 225.899C336.24 227.793 335.56 245.898 316.258 245.898V245.9C335.56 245.9 336.24 264.005 336.258 265.899C336.276 264.005 336.955 245.9 356.258 245.9V245.898C336.955 245.898 336.276 227.793 336.258 225.899Z" fill="#F9F4FC"/>
<path d="M381.438 225.899C381.419 227.793 380.74 245.898 361.438 245.898V245.9C380.74 245.9 381.419 264.005 381.438 265.899C381.456 264.005 382.135 245.9 401.438 245.9V245.898C382.135 245.898 381.456 227.793 381.438 225.899Z" fill="#F9F4FC"/>
<path d="M426.617 225.899C426.599 227.793 425.92 245.898 406.617 245.898V245.9C425.92 245.9 426.599 264.005 426.617 265.899C426.635 264.005 427.315 245.9 446.617 245.9V245.898C427.315 245.898 426.635 227.793 426.617 225.899Z" fill="#F9F4FC"/>
<path d="M20.0001 271.079C19.9819 272.973 19.3025 291.077 0 291.077V291.08C19.3025 291.08 19.9819 309.184 20.0001 311.079C20.0183 309.184 20.6975 291.08 40 291.08V291.077C20.6975 291.077 20.0183 272.973 20.0001 271.079Z" fill="#F9F4FC"/>
<path d="M65.1797 271.079C65.1615 272.973 64.4822 291.077 45.1797 291.077V291.08C64.4822 291.08 65.1615 309.184 65.1797 311.079C65.198 309.184 65.8772 291.08 85.1797 291.08V291.077C65.8772 291.077 65.198 272.973 65.1797 271.079Z" fill="#F9F4FC"/>
<path d="M110.359 271.079C110.341 272.973 109.662 291.077 90.3594 291.077V291.08C109.662 291.08 110.341 309.184 110.359 311.079C110.378 309.184 111.057 291.08 130.359 291.08V291.077C111.057 291.077 110.378 272.973 110.359 271.079Z" fill="#F9F4FC"/>
<path d="M155.539 271.079C155.521 272.973 154.842 291.077 135.539 291.077V291.08C154.842 291.08 155.521 309.184 155.539 311.079C155.557 309.184 156.237 291.08 175.539 291.08V291.077C156.237 291.077 155.557 272.973 155.539 271.079Z" fill="#F9F4FC"/>
<path d="M200.719 271.079C200.701 272.973 200.021 291.077 180.719 291.077V291.08C200.021 291.08 200.701 309.184 200.719 311.079C200.737 309.184 201.416 291.08 220.719 291.08V291.077C201.416 291.077 200.737 272.973 200.719 271.079Z" fill="#F9F4FC"/>
<path d="M245.898 271.079C245.88 272.973 245.201 291.077 225.898 291.077V291.08C245.201 291.08 245.88 309.184 245.898 311.079C245.917 309.184 246.596 291.08 265.898 291.08V291.077C246.596 291.077 245.917 272.973 245.898 271.079Z" fill="#F9F4FC"/>
<path d="M291.078 271.079C291.06 272.973 290.381 291.077 271.078 291.077V291.08C290.381 291.08 291.06 309.184 291.078 311.079C291.096 309.184 291.776 291.08 311.078 291.08V291.077C291.776 291.077 291.096 272.973 291.078 271.079Z" fill="#F9F4FC"/>
<path d="M336.258 271.079C336.24 272.973 335.56 291.077 316.258 291.077V291.08C335.56 291.08 336.24 309.184 336.258 311.079C336.276 309.184 336.955 291.08 356.258 291.08V291.077C336.955 291.077 336.276 272.973 336.258 271.079Z" fill="#F9F4FC"/>
<path d="M381.438 271.079C381.419 272.973 380.74 291.077 361.438 291.077V291.08C380.74 291.08 381.419 309.184 381.438 311.079C381.456 309.184 382.135 291.08 401.438 291.08V291.077C382.135 291.077 381.456 272.973 381.438 271.079Z" fill="#F9F4FC"/>
<path d="M426.617 271.079C426.599 272.973 425.92 291.077 406.617 291.077V291.08C425.92 291.08 426.599 309.184 426.617 311.079C426.635 309.184 427.315 291.08 446.617 291.08V291.077C427.315 291.077 426.635 272.973 426.617 271.079Z" fill="#F9F4FC"/>
<path d="M20.0001 316.258C19.9819 318.153 19.3025 336.257 0 336.257V336.26C19.3025 336.26 19.9819 354.364 20.0001 356.258C20.0183 354.364 20.6975 336.26 40 336.26V336.257C20.6975 336.257 20.0183 318.153 20.0001 316.258Z" fill="#F9F4FC"/>
<path d="M65.1797 316.258C65.1615 318.153 64.4822 336.257 45.1797 336.257V336.26C64.4822 336.26 65.1615 354.364 65.1797 356.258C65.198 354.364 65.8772 336.26 85.1797 336.26V336.257C65.8772 336.257 65.198 318.153 65.1797 316.258Z" fill="#F9F4FC"/>
<path d="M110.359 316.258C110.341 318.153 109.662 336.257 90.3594 336.257V336.26C109.662 336.26 110.341 354.364 110.359 356.258C110.378 354.364 111.057 336.26 130.359 336.26V336.257C111.057 336.257 110.378 318.153 110.359 316.258Z" fill="#F9F4FC"/>
<path d="M155.539 316.258C155.521 318.153 154.842 336.257 135.539 336.257V336.26C154.842 336.26 155.521 354.364 155.539 356.258C155.557 354.364 156.237 336.26 175.539 336.26V336.257C156.237 336.257 155.557 318.153 155.539 316.258Z" fill="#F9F4FC"/>
<path d="M200.719 316.258C200.701 318.153 200.021 336.257 180.719 336.257V336.26C200.021 336.26 200.701 354.364 200.719 356.258C200.737 354.364 201.416 336.26 220.719 336.26V336.257C201.416 336.257 200.737 318.153 200.719 316.258Z" fill="#F9F4FC"/>
<path d="M245.898 316.258C245.88 318.153 245.201 336.257 225.898 336.257V336.26C245.201 336.26 245.88 354.364 245.898 356.258C245.917 354.364 246.596 336.26 265.898 336.26V336.257C246.596 336.257 245.917 318.153 245.898 316.258Z" fill="#F9F4FC"/>
<path d="M291.078 316.258C291.06 318.153 290.381 336.257 271.078 336.257V336.26C290.381 336.26 291.06 354.364 291.078 356.258C291.096 354.364 291.776 336.26 311.078 336.26V336.257C291.776 336.257 291.096 318.153 291.078 316.258Z" fill="#F9F4FC"/>
<path d="M336.258 316.258C336.24 318.153 335.56 336.257 316.258 336.257V336.26C335.56 336.26 336.24 354.364 336.258 356.258C336.276 354.364 336.955 336.26 356.258 336.26V336.257C336.955 336.257 336.276 318.153 336.258 316.258Z" fill="#F9F4FC"/>
<path d="M381.438 316.258C381.419 318.153 380.74 336.257 361.438 336.257V336.26C380.74 336.26 381.419 354.364 381.438 356.258C381.456 354.364 382.135 336.26 401.438 336.26V336.257C382.135 336.257 381.456 318.153 381.438 316.258Z" fill="#F9F4FC"/>
<path d="M426.617 316.258C426.599 318.153 425.92 336.257 406.617 336.257V336.26C425.92 336.26 426.599 354.364 426.617 356.258C426.635 354.364 427.315 336.26 446.617 336.26V336.257C427.315 336.257 426.635 318.153 426.617 316.258Z" fill="#F9F4FC"/>
<path d="M20.0001 361.438C19.9819 363.332 19.3025 381.437 0 381.437V381.439C19.3025 381.439 19.9819 399.544 20.0001 401.438C20.0183 399.544 20.6975 381.439 40 381.439V381.437C20.6975 381.437 20.0183 363.332 20.0001 361.438Z" fill="#F9F4FC"/>
<path d="M65.1797 361.438C65.1615 363.332 64.4822 381.437 45.1797 381.437V381.439C64.4822 381.439 65.1615 399.544 65.1797 401.438C65.198 399.544 65.8772 381.439 85.1797 381.439V381.437C65.8772 381.437 65.198 363.332 65.1797 361.438Z" fill="#F9F4FC"/>
<path d="M110.359 361.438C110.341 363.332 109.662 381.437 90.3594 381.437V381.439C109.662 381.439 110.341 399.544 110.359 401.438C110.378 399.544 111.057 381.439 130.359 381.439V381.437C111.057 381.437 110.378 363.332 110.359 361.438Z" fill="#F9F4FC"/>
<path d="M155.539 361.438C155.521 363.332 154.842 381.437 135.539 381.437V381.439C154.842 381.439 155.521 399.544 155.539 401.438C155.557 399.544 156.237 381.439 175.539 381.439V381.437C156.237 381.437 155.557 363.332 155.539 361.438Z" fill="#F9F4FC"/>
<path d="M200.719 361.438C200.701 363.332 200.021 381.437 180.719 381.437V381.439C200.021 381.439 200.701 399.544 200.719 401.438C200.737 399.544 201.416 381.439 220.719 381.439V381.437C201.416 381.437 200.737 363.332 200.719 361.438Z" fill="#F9F4FC"/>
<path d="M245.898 361.438C245.88 363.332 245.201 381.437 225.898 381.437V381.439C245.201 381.439 245.88 399.544 245.898 401.438C245.917 399.544 246.596 381.439 265.898 381.439V381.437C246.596 381.437 245.917 363.332 245.898 361.438Z" fill="#F9F4FC"/>
<path d="M291.078 361.438C291.06 363.332 290.381 381.437 271.078 381.437V381.439C290.381 381.439 291.06 399.544 291.078 401.438C291.096 399.544 291.776 381.439 311.078 381.439V381.437C291.776 381.437 291.096 363.332 291.078 361.438Z" fill="#F9F4FC"/>
<path d="M336.258 361.438C336.24 363.332 335.56 381.437 316.258 381.437V381.439C335.56 381.439 336.24 399.544 336.258 401.438C336.276 399.544 336.955 381.439 356.258 381.439V381.437C336.955 381.437 336.276 363.332 336.258 361.438Z" fill="#F9F4FC"/>
<path d="M381.438 361.438C381.419 363.332 380.74 381.437 361.438 381.437V381.439C380.74 381.439 381.419 399.544 381.438 401.438C381.456 399.544 382.135 381.439 401.438 381.439V381.437C382.135 381.437 381.456 363.332 381.438 361.438Z" fill="#F9F4FC"/>
<path d="M426.617 361.438C426.599 363.332 425.92 381.437 406.617 381.437V381.439C425.92 381.439 426.599 399.544 426.617 401.438C426.635 399.544 427.315 381.439 446.617 381.439V381.437C427.315 381.437 426.635 363.332 426.617 361.438Z" fill="#F9F4FC"/>
<path d="M20.0001 406.618C19.9819 408.512 19.3025 426.617 0 426.617V426.619C19.3025 426.619 19.9819 444.724 20.0001 446.618C20.0183 444.724 20.6975 426.619 40 426.619V426.617C20.6975 426.617 20.0183 408.512 20.0001 406.618Z" fill="#F9F4FC"/>
<path d="M65.1797 406.618C65.1615 408.512 64.4822 426.617 45.1797 426.617V426.619C64.4822 426.619 65.1615 444.724 65.1797 446.618C65.198 444.724 65.8772 426.619 85.1797 426.619V426.617C65.8772 426.617 65.198 408.512 65.1797 406.618Z" fill="#F9F4FC"/>
<path d="M110.359 406.618C110.341 408.512 109.662 426.617 90.3594 426.617V426.619C109.662 426.619 110.341 444.724 110.359 446.618C110.378 444.724 111.057 426.619 130.359 426.619V426.617C111.057 426.617 110.378 408.512 110.359 406.618Z" fill="#F9F4FC"/>
<path d="M155.539 406.618C155.521 408.512 154.842 426.617 135.539 426.617V426.619C154.842 426.619 155.521 444.724 155.539 446.618C155.557 444.724 156.237 426.619 175.539 426.619V426.617C156.237 426.617 155.557 408.512 155.539 406.618Z" fill="#F9F4FC"/>
<path d="M200.719 406.618C200.701 408.512 200.021 426.617 180.719 426.617V426.619C200.021 426.619 200.701 444.724 200.719 446.618C200.737 444.724 201.416 426.619 220.719 426.619V426.617C201.416 426.617 200.737 408.512 200.719 406.618Z" fill="#F9F4FC"/>
<path d="M245.898 406.618C245.88 408.512 245.201 426.617 225.898 426.617V426.619C245.201 426.619 245.88 444.724 245.898 446.618C245.917 444.724 246.596 426.619 265.898 426.619V426.617C246.596 426.617 245.917 408.512 245.898 406.618Z" fill="#F9F4FC"/>
<path d="M291.078 406.618C291.06 408.512 290.381 426.617 271.078 426.617V426.619C290.381 426.619 291.06 444.724 291.078 446.618C291.096 444.724 291.776 426.619 311.078 426.619V426.617C291.776 426.617 291.096 408.512 291.078 406.618Z" fill="#F9F4FC"/>
<path d="M336.258 406.618C336.24 408.512 335.56 426.617 316.258 426.617V426.619C335.56 426.619 336.24 444.724 336.258 446.618C336.276 444.724 336.955 426.619 356.258 426.619V426.617C336.955 426.617 336.276 408.512 336.258 406.618Z" fill="#F9F4FC"/>
<path d="M381.438 406.618C381.419 408.512 380.74 426.617 361.438 426.617V426.619C380.74 426.619 381.419 444.724 381.438 446.618C381.456 444.724 382.135 426.619 401.438 426.619V426.617C382.135 426.617 381.456 408.512 381.438 406.618Z" fill="#F9F4FC"/>
<path d="M426.617 406.618C426.599 408.512 425.92 426.617 406.617 426.617V426.619C425.92 426.619 426.599 444.724 426.617 446.618C426.635 444.724 427.315 426.619 446.617 426.619V426.617C427.315 426.617 426.635 408.512 426.617 406.618Z" fill="#F9F4FC"/>
<path d="M20.0001 451.798C19.9819 453.692 19.3025 471.797 0 471.797V471.799C19.3025 471.799 19.9819 489.904 20.0001 491.798C20.0183 489.904 20.6975 471.799 40 471.799V471.797C20.6975 471.797 20.0183 453.692 20.0001 451.798Z" fill="#F9F4FC"/>
<path d="M65.1797 451.798C65.1615 453.692 64.4822 471.797 45.1797 471.797V471.799C64.4822 471.799 65.1615 489.904 65.1797 491.798C65.198 489.904 65.8772 471.799 85.1797 471.799V471.797C65.8772 471.797 65.198 453.692 65.1797 451.798Z" fill="#F9F4FC"/>
<path d="M110.359 451.798C110.341 453.692 109.662 471.797 90.3594 471.797V471.799C109.662 471.799 110.341 489.904 110.359 491.798C110.378 489.904 111.057 471.799 130.359 471.799V471.797C111.057 471.797 110.378 453.692 110.359 451.798Z" fill="#F9F4FC"/>
<path d="M155.539 451.798C155.521 453.692 154.842 471.797 135.539 471.797V471.799C154.842 471.799 155.521 489.904 155.539 491.798C155.557 489.904 156.237 471.799 175.539 471.799V471.797C156.237 471.797 155.557 453.692 155.539 451.798Z" fill="#F9F4FC"/>
<path d="M200.719 451.798C200.701 453.692 200.021 471.797 180.719 471.797V471.799C200.021 471.799 200.701 489.904 200.719 491.798C200.737 489.904 201.416 471.799 220.719 471.799V471.797C201.416 471.797 200.737 453.692 200.719 451.798Z" fill="#F9F4FC"/>
<path d="M245.898 451.798C245.88 453.692 245.201 471.797 225.898 471.797V471.799C245.201 471.799 245.88 489.904 245.898 491.798C245.917 489.904 246.596 471.799 265.898 471.799V471.797C246.596 471.797 245.917 453.692 245.898 451.798Z" fill="#F9F4FC"/>
<path d="M291.078 451.798C291.06 453.692 290.381 471.797 271.078 471.797V471.799C290.381 471.799 291.06 489.904 291.078 491.798C291.096 489.904 291.776 471.799 311.078 471.799V471.797C291.776 471.797 291.096 453.692 291.078 451.798Z" fill="#F9F4FC"/>
<path d="M336.258 451.798C336.24 453.692 335.56 471.797 316.258 471.797V471.799C335.56 471.799 336.24 489.904 336.258 491.798C336.276 489.904 336.955 471.799 356.258 471.799V471.797C336.955 471.797 336.276 453.692 336.258 451.798Z" fill="#F9F4FC"/>
<path d="M381.438 451.798C381.419 453.692 380.74 471.797 361.438 471.797V471.799C380.74 471.799 381.419 489.904 381.438 491.798C381.456 489.904 382.135 471.799 401.438 471.799V471.797C382.135 471.797 381.456 453.692 381.438 451.798Z" fill="#F9F4FC"/>
<path d="M426.617 451.798C426.599 453.692 425.92 471.797 406.617 471.797V471.799C425.92 471.799 426.599 489.904 426.617 491.798C426.635 489.904 427.315 471.799 446.617 471.799V471.797C427.315 471.797 426.635 453.692 426.617 451.798Z" fill="#F9F4FC"/>
<path d="M20.0001 496.978C19.9819 498.872 19.3025 516.976 0 516.976V516.979C19.3025 516.979 19.9819 535.083 20.0001 536.978C20.0183 535.083 20.6975 516.979 40 516.979V516.976C20.6975 516.976 20.0183 498.872 20.0001 496.978Z" fill="#F9F4FC"/>
<path d="M65.1797 496.978C65.1615 498.872 64.4822 516.976 45.1797 516.976V516.979C64.4822 516.979 65.1615 535.083 65.1797 536.978C65.198 535.083 65.8772 516.979 85.1797 516.979V516.976C65.8772 516.976 65.198 498.872 65.1797 496.978Z" fill="#F9F4FC"/>
<path d="M110.359 496.978C110.341 498.872 109.662 516.976 90.3594 516.976V516.979C109.662 516.979 110.341 535.083 110.359 536.978C110.378 535.083 111.057 516.979 130.359 516.979V516.976C111.057 516.976 110.378 498.872 110.359 496.978Z" fill="#F9F4FC"/>
<path d="M155.539 496.978C155.521 498.872 154.842 516.976 135.539 516.976V516.979C154.842 516.979 155.521 535.083 155.539 536.978C155.557 535.083 156.237 516.979 175.539 516.979V516.976C156.237 516.976 155.557 498.872 155.539 496.978Z" fill="#F9F4FC"/>
<path d="M200.719 496.978C200.701 498.872 200.021 516.976 180.719 516.976V516.979C200.021 516.979 200.701 535.083 200.719 536.978C200.737 535.083 201.416 516.979 220.719 516.979V516.976C201.416 516.976 200.737 498.872 200.719 496.978Z" fill="#F9F4FC"/>
<path d="M245.898 496.978C245.88 498.872 245.201 516.976 225.898 516.976V516.979C245.201 516.979 245.88 535.083 245.898 536.978C245.917 535.083 246.596 516.979 265.898 516.979V516.976C246.596 516.976 245.917 498.872 245.898 496.978Z" fill="#F9F4FC"/>
<path d="M291.078 496.978C291.06 498.872 290.381 516.976 271.078 516.976V516.979C290.381 516.979 291.06 535.083 291.078 536.978C291.096 535.083 291.776 516.979 311.078 516.979V516.976C291.776 516.976 291.096 498.872 291.078 496.978Z" fill="#F9F4FC"/>
<path d="M336.258 496.978C336.24 498.872 335.56 516.976 316.258 516.976V516.979C335.56 516.979 336.24 535.083 336.258 536.978C336.276 535.083 336.955 516.979 356.258 516.979V516.976C336.955 516.976 336.276 498.872 336.258 496.978Z" fill="#F9F4FC"/>
<path d="M381.438 496.978C381.419 498.872 380.74 516.976 361.438 516.976V516.979C380.74 516.979 381.419 535.083 381.438 536.978C381.456 535.083 382.135 516.979 401.438 516.979V516.976C382.135 516.976 381.456 498.872 381.438 496.978Z" fill="#F9F4FC"/>
<path d="M426.617 496.978C426.599 498.872 425.92 516.976 406.617 516.976V516.979C425.92 516.979 426.599 535.083 426.617 536.978C426.635 535.083 427.315 516.979 446.617 516.979V516.976C427.315 516.976 426.635 498.872 426.617 496.978Z" fill="#F9F4FC"/>
<path d="M20.0001 542.157C19.9819 544.051 19.3025 562.156 0 562.156V562.158C19.3025 562.158 19.9819 580.263 20.0001 582.157C20.0183 580.263 20.6975 562.158 40 562.158V562.156C20.6975 562.156 20.0183 544.051 20.0001 542.157Z" fill="#F9F4FC"/>
<path d="M65.1797 542.157C65.1615 544.051 64.4822 562.156 45.1797 562.156V562.158C64.4822 562.158 65.1615 580.263 65.1797 582.157C65.198 580.263 65.8772 562.158 85.1797 562.158V562.156C65.8772 562.156 65.198 544.051 65.1797 542.157Z" fill="#F9F4FC"/>
<path d="M110.359 542.157C110.341 544.051 109.662 562.156 90.3594 562.156V562.158C109.662 562.158 110.341 580.263 110.359 582.157C110.378 580.263 111.057 562.158 130.359 562.158V562.156C111.057 562.156 110.378 544.051 110.359 542.157Z" fill="#F9F4FC"/>
<path d="M155.539 542.157C155.521 544.051 154.842 562.156 135.539 562.156V562.158C154.842 562.158 155.521 580.263 155.539 582.157C155.557 580.263 156.237 562.158 175.539 562.158V562.156C156.237 562.156 155.557 544.051 155.539 542.157Z" fill="#F9F4FC"/>
<path d="M200.719 542.157C200.701 544.051 200.021 562.156 180.719 562.156V562.158C200.021 562.158 200.701 580.263 200.719 582.157C200.737 580.263 201.416 562.158 220.719 562.158V562.156C201.416 562.156 200.737 544.051 200.719 542.157Z" fill="#F9F4FC"/>
<path d="M245.898 542.157C245.88 544.051 245.201 562.156 225.898 562.156V562.158C245.201 562.158 245.88 580.263 245.898 582.157C245.917 580.263 246.596 562.158 265.898 562.158V562.156C246.596 562.156 245.917 544.051 245.898 542.157Z" fill="#F9F4FC"/>
<path d="M291.078 542.157C291.06 544.051 290.381 562.156 271.078 562.156V562.158C290.381 562.158 291.06 580.263 291.078 582.157C291.096 580.263 291.776 562.158 311.078 562.158V562.156C291.776 562.156 291.096 544.051 291.078 542.157Z" fill="#F9F4FC"/>
<path d="M336.258 542.157C336.24 544.051 335.56 562.156 316.258 562.156V562.158C335.56 562.158 336.24 580.263 336.258 582.157C336.276 580.263 336.955 562.158 356.258 562.158V562.156C336.955 562.156 336.276 544.051 336.258 542.157Z" fill="#F9F4FC"/>
<path d="M381.438 542.157C381.419 544.051 380.74 562.156 361.438 562.156V562.158C380.74 562.158 381.419 580.263 381.438 582.157C381.456 580.263 382.135 562.158 401.438 562.158V562.156C382.135 562.156 381.456 544.051 381.438 542.157Z" fill="#F9F4FC"/>
<path d="M426.617 542.157C426.599 544.051 425.92 562.156 406.617 562.156V562.158C425.92 562.158 426.599 580.263 426.617 582.157C426.635 580.263 427.315 562.158 446.617 562.158V562.156C427.315 562.156 426.635 544.051 426.617 542.157Z" fill="#F9F4FC"/>
<path d="M20.0001 587.337C19.9819 589.231 19.3025 607.336 0 607.336V607.338C19.3025 607.338 19.9819 625.443 20.0001 627.337C20.0183 625.443 20.6975 607.338 40 607.338V607.336C20.6975 607.336 20.0183 589.231 20.0001 587.337Z" fill="#F9F4FC"/>
<path d="M65.1797 587.337C65.1615 589.231 64.4822 607.336 45.1797 607.336V607.338C64.4822 607.338 65.1615 625.443 65.1797 627.337C65.198 625.443 65.8772 607.338 85.1797 607.338V607.336C65.8772 607.336 65.198 589.231 65.1797 587.337Z" fill="#F9F4FC"/>
<path d="M110.359 587.337C110.341 589.231 109.662 607.336 90.3594 607.336V607.338C109.662 607.338 110.341 625.443 110.359 627.337C110.378 625.443 111.057 607.338 130.359 607.338V607.336C111.057 607.336 110.378 589.231 110.359 587.337Z" fill="#F9F4FC"/>
<path d="M155.539 587.337C155.521 589.231 154.842 607.336 135.539 607.336V607.338C154.842 607.338 155.521 625.443 155.539 627.337C155.557 625.443 156.237 607.338 175.539 607.338V607.336C156.237 607.336 155.557 589.231 155.539 587.337Z" fill="#F9F4FC"/>
<path d="M200.719 587.337C200.701 589.231 200.021 607.336 180.719 607.336V607.338C200.021 607.338 200.701 625.443 200.719 627.337C200.737 625.443 201.416 607.338 220.719 607.338V607.336C201.416 607.336 200.737 589.231 200.719 587.337Z" fill="#F9F4FC"/>
<path d="M245.898 587.337C245.88 589.231 245.201 607.336 225.898 607.336V607.338C245.201 607.338 245.88 625.443 245.898 627.337C245.917 625.443 246.596 607.338 265.898 607.338V607.336C246.596 607.336 245.917 589.231 245.898 587.337Z" fill="#F9F4FC"/>
<path d="M291.078 587.337C291.06 589.231 290.381 607.336 271.078 607.336V607.338C290.381 607.338 291.06 625.443 291.078 627.337C291.096 625.443 291.776 607.338 311.078 607.338V607.336C291.776 607.336 291.096 589.231 291.078 587.337Z" fill="#F9F4FC"/>
<path d="M336.258 587.337C336.24 589.231 335.56 607.336 316.258 607.336V607.338C335.56 607.338 336.24 625.443 336.258 627.337C336.276 625.443 336.955 607.338 356.258 607.338V607.336C336.955 607.336 336.276 589.231 336.258 587.337Z" fill="#F9F4FC"/>
<path d="M381.438 587.337C381.419 589.231 380.74 607.336 361.438 607.336V607.338C380.74 607.338 381.419 625.443 381.438 627.337C381.456 625.443 382.135 607.338 401.438 607.338V607.336C382.135 607.336 381.456 589.231 381.438 587.337Z" fill="#F9F4FC"/>
<path d="M426.617 587.337C426.599 589.231 425.92 607.336 406.617 607.336V607.338C425.92 607.338 426.599 625.443 426.617 627.337C426.635 625.443 427.315 607.338 446.617 607.338V607.336C427.315 607.336 426.635 589.231 426.617 587.337Z" fill="#F9F4FC"/>
<path d="M20.0001 632.517C19.9819 634.411 19.3025 652.515 0 652.515V652.518C19.3025 652.518 19.9819 670.622 20.0001 672.517C20.0183 670.622 20.6975 652.518 40 652.518V652.515C20.6975 652.515 20.0183 634.411 20.0001 632.517Z" fill="#F9F4FC"/>
<path d="M65.1797 632.517C65.1615 634.411 64.4822 652.515 45.1797 652.515V652.518C64.4822 652.518 65.1615 670.622 65.1797 672.517C65.198 670.622 65.8772 652.518 85.1797 652.518V652.515C65.8772 652.515 65.198 634.411 65.1797 632.517Z" fill="#F9F4FC"/>
<path d="M110.359 632.517C110.341 634.411 109.662 652.515 90.3594 652.515V652.518C109.662 652.518 110.341 670.622 110.359 672.517C110.378 670.622 111.057 652.518 130.359 652.518V652.515C111.057 652.515 110.378 634.411 110.359 632.517Z" fill="#F9F4FC"/>
<path d="M155.539 632.517C155.521 634.411 154.842 652.515 135.539 652.515V652.518C154.842 652.518 155.521 670.622 155.539 672.517C155.557 670.622 156.237 652.518 175.539 652.518V652.515C156.237 652.515 155.557 634.411 155.539 632.517Z" fill="#F9F4FC"/>
<path d="M200.719 632.517C200.701 634.411 200.021 652.515 180.719 652.515V652.518C200.021 652.518 200.701 670.622 200.719 672.517C200.737 670.622 201.416 652.518 220.719 652.518V652.515C201.416 652.515 200.737 634.411 200.719 632.517Z" fill="#F9F4FC"/>
<path d="M245.898 632.517C245.88 634.411 245.201 652.515 225.898 652.515V652.518C245.201 652.518 245.88 670.622 245.898 672.517C245.917 670.622 246.596 652.518 265.898 652.518V652.515C246.596 652.515 245.917 634.411 245.898 632.517Z" fill="#F9F4FC"/>
<path d="M291.078 632.517C291.06 634.411 290.381 652.515 271.078 652.515V652.518C290.381 652.518 291.06 670.622 291.078 672.517C291.096 670.622 291.776 652.518 311.078 652.518V652.515C291.776 652.515 291.096 634.411 291.078 632.517Z" fill="#F9F4FC"/>
<path d="M336.258 632.517C336.24 634.411 335.56 652.515 316.258 652.515V652.518C335.56 652.518 336.24 670.622 336.258 672.517C336.276 670.622 336.955 652.518 356.258 652.518V652.515C336.955 652.515 336.276 634.411 336.258 632.517Z" fill="#F9F4FC"/>
<path d="M381.438 632.517C381.419 634.411 380.74 652.515 361.438 652.515V652.518C380.74 652.518 381.419 670.622 381.438 672.517C381.456 670.622 382.135 652.518 401.438 652.518V652.515C382.135 652.515 381.456 634.411 381.438 632.517Z" fill="#F9F4FC"/>
<path d="M426.617 632.517C426.599 634.411 425.92 652.515 406.617 652.515V652.518C425.92 652.518 426.599 670.622 426.617 672.517C426.635 670.622 427.315 652.518 446.617 652.518V652.515C427.315 652.515 426.635 634.411 426.617 632.517Z" fill="#F9F4FC"/>
<path d="M20.0001 677.696C19.9819 679.591 19.3025 697.695 0 697.695V697.697C19.3025 697.697 19.9819 715.802 20.0001 717.696C20.0183 715.802 20.6975 697.697 40 697.697V697.695C20.6975 697.695 20.0183 679.591 20.0001 677.696Z" fill="#F9F4FC"/>
<path d="M65.1797 677.696C65.1615 679.591 64.4822 697.695 45.1797 697.695V697.697C64.4822 697.697 65.1615 715.802 65.1797 717.696C65.198 715.802 65.8772 697.697 85.1797 697.697V697.695C65.8772 697.695 65.198 679.591 65.1797 677.696Z" fill="#F9F4FC"/>
<path d="M110.359 677.696C110.341 679.591 109.662 697.695 90.3594 697.695V697.697C109.662 697.697 110.341 715.802 110.359 717.696C110.378 715.802 111.057 697.697 130.359 697.697V697.695C111.057 697.695 110.378 679.591 110.359 677.696Z" fill="#F9F4FC"/>
<path d="M155.539 677.696C155.521 679.591 154.842 697.695 135.539 697.695V697.697C154.842 697.697 155.521 715.802 155.539 717.696C155.557 715.802 156.237 697.697 175.539 697.697V697.695C156.237 697.695 155.557 679.591 155.539 677.696Z" fill="#F9F4FC"/>
<path d="M200.719 677.696C200.701 679.591 200.021 697.695 180.719 697.695V697.697C200.021 697.697 200.701 715.802 200.719 717.696C200.737 715.802 201.416 697.697 220.719 697.697V697.695C201.416 697.695 200.737 679.591 200.719 677.696Z" fill="#F9F4FC"/>
<path d="M245.898 677.696C245.88 679.591 245.201 697.695 225.898 697.695V697.697C245.201 697.697 245.88 715.802 245.898 717.696C245.917 715.802 246.596 697.697 265.898 697.697V697.695C246.596 697.695 245.917 679.591 245.898 677.696Z" fill="#F9F4FC"/>
<path d="M291.078 677.696C291.06 679.591 290.381 697.695 271.078 697.695V697.697C290.381 697.697 291.06 715.802 291.078 717.696C291.096 715.802 291.776 697.697 311.078 697.697V697.695C291.776 697.695 291.096 679.591 291.078 677.696Z" fill="#F9F4FC"/>
<path d="M336.258 677.696C336.24 679.591 335.56 697.695 316.258 697.695V697.697C335.56 697.697 336.24 715.802 336.258 717.696C336.276 715.802 336.955 697.697 356.258 697.697V697.695C336.955 697.695 336.276 679.591 336.258 677.696Z" fill="#F9F4FC"/>
<path d="M381.438 677.696C381.419 679.591 380.74 697.695 361.438 697.695V697.697C380.74 697.697 381.419 715.802 381.438 717.696C381.456 715.802 382.135 697.697 401.438 697.697V697.695C382.135 697.695 381.456 679.591 381.438 677.696Z" fill="#F9F4FC"/>
<path d="M426.617 677.696C426.599 679.591 425.92 697.695 406.617 697.695V697.697C425.92 697.697 426.599 715.802 426.617 717.696C426.635 715.802 427.315 697.697 446.617 697.697V697.695C427.315 697.695 426.635 679.591 426.617 677.696Z" fill="#F9F4FC"/>
<path d="M20.0001 722.876C19.9819 724.771 19.3025 742.875 0 742.875V742.878C19.3025 742.878 19.9819 760.982 20.0001 762.876C20.0183 760.982 20.6975 742.878 40 742.878V742.875C20.6975 742.875 20.0183 724.771 20.0001 722.876Z" fill="#F9F4FC"/>
<path d="M65.1797 722.876C65.1615 724.771 64.4822 742.875 45.1797 742.875V742.878C64.4822 742.878 65.1615 760.982 65.1797 762.876C65.198 760.982 65.8772 742.878 85.1797 742.878V742.875C65.8772 742.875 65.198 724.771 65.1797 722.876Z" fill="#F9F4FC"/>
<path d="M110.359 722.876C110.341 724.771 109.662 742.875 90.3594 742.875V742.878C109.662 742.878 110.341 760.982 110.359 762.876C110.378 760.982 111.057 742.878 130.359 742.878V742.875C111.057 742.875 110.378 724.771 110.359 722.876Z" fill="#F9F4FC"/>
<path d="M155.539 722.876C155.521 724.771 154.842 742.875 135.539 742.875V742.878C154.842 742.878 155.521 760.982 155.539 762.876C155.557 760.982 156.237 742.878 175.539 742.878V742.875C156.237 742.875 155.557 724.771 155.539 722.876Z" fill="#F9F4FC"/>
<path d="M200.719 722.876C200.701 724.771 200.021 742.875 180.719 742.875V742.878C200.021 742.878 200.701 760.982 200.719 762.876C200.737 760.982 201.416 742.878 220.719 742.878V742.875C201.416 742.875 200.737 724.771 200.719 722.876Z" fill="#F9F4FC"/>
<path d="M245.898 722.876C245.88 724.771 245.201 742.875 225.898 742.875V742.878C245.201 742.878 245.88 760.982 245.898 762.876C245.917 760.982 246.596 742.878 265.898 742.878V742.875C246.596 742.875 245.917 724.771 245.898 722.876Z" fill="#F9F4FC"/>
<path d="M291.078 722.876C291.06 724.771 290.381 742.875 271.078 742.875V742.878C290.381 742.878 291.06 760.982 291.078 762.876C291.096 760.982 291.776 742.878 311.078 742.878V742.875C291.776 742.875 291.096 724.771 291.078 722.876Z" fill="#F9F4FC"/>
<path d="M336.258 722.876C336.24 724.771 335.56 742.875 316.258 742.875V742.878C335.56 742.878 336.24 760.982 336.258 762.876C336.276 760.982 336.955 742.878 356.258 742.878V742.875C336.955 742.875 336.276 724.771 336.258 722.876Z" fill="#F9F4FC"/>
<path d="M381.438 722.876C381.419 724.771 380.74 742.875 361.438 742.875V742.878C380.74 742.878 381.419 760.982 381.438 762.876C381.456 760.982 382.135 742.878 401.438 742.878V742.875C382.135 742.875 381.456 724.771 381.438 722.876Z" fill="#F9F4FC"/>
<path d="M426.617 722.876C426.599 724.771 425.92 742.875 406.617 742.875V742.878C425.92 742.878 426.599 760.982 426.617 762.876C426.635 760.982 427.315 742.878 446.617 742.878V742.875C427.315 742.875 426.635 724.771 426.617 722.876Z" fill="#F9F4FC"/>
<path d="M20.0001 768.056C19.9819 769.95 19.3025 788.055 0 788.055V788.057C19.3025 788.057 19.9819 806.162 20.0001 808.056C20.0183 806.162 20.6975 788.057 40 788.057V788.055C20.6975 788.055 20.0183 769.95 20.0001 768.056Z" fill="#F9F4FC"/>
<path d="M65.1797 768.056C65.1615 769.95 64.4822 788.055 45.1797 788.055V788.057C64.4822 788.057 65.1615 806.162 65.1797 808.056C65.198 806.162 65.8772 788.057 85.1797 788.057V788.055C65.8772 788.055 65.198 769.95 65.1797 768.056Z" fill="#F9F4FC"/>
<path d="M110.359 768.056C110.341 769.95 109.662 788.055 90.3594 788.055V788.057C109.662 788.057 110.341 806.162 110.359 808.056C110.378 806.162 111.057 788.057 130.359 788.057V788.055C111.057 788.055 110.378 769.95 110.359 768.056Z" fill="#F9F4FC"/>
<path d="M155.539 768.056C155.521 769.95 154.842 788.055 135.539 788.055V788.057C154.842 788.057 155.521 806.162 155.539 808.056C155.557 806.162 156.237 788.057 175.539 788.057V788.055C156.237 788.055 155.557 769.95 155.539 768.056Z" fill="#F9F4FC"/>
<path d="M200.719 768.056C200.701 769.95 200.021 788.055 180.719 788.055V788.057C200.021 788.057 200.701 806.162 200.719 808.056C200.737 806.162 201.416 788.057 220.719 788.057V788.055C201.416 788.055 200.737 769.95 200.719 768.056Z" fill="#F9F4FC"/>
<path d="M245.898 768.056C245.88 769.95 245.201 788.055 225.898 788.055V788.057C245.201 788.057 245.88 806.162 245.898 808.056C245.917 806.162 246.596 788.057 265.898 788.057V788.055C246.596 788.055 245.917 769.95 245.898 768.056Z" fill="#F9F4FC"/>
<path d="M291.078 768.056C291.06 769.95 290.381 788.055 271.078 788.055V788.057C290.381 788.057 291.06 806.162 291.078 808.056C291.096 806.162 291.776 788.057 311.078 788.057V788.055C291.776 788.055 291.096 769.95 291.078 768.056Z" fill="#F9F4FC"/>
<path d="M336.258 768.056C336.24 769.95 335.56 788.055 316.258 788.055V788.057C335.56 788.057 336.24 806.162 336.258 808.056C336.276 806.162 336.955 788.057 356.258 788.057V788.055C336.955 788.055 336.276 769.95 336.258 768.056Z" fill="#F9F4FC"/>
<path d="M381.438 768.056C381.419 769.95 380.74 788.055 361.438 788.055V788.057C380.74 788.057 381.419 806.162 381.438 808.056C381.456 806.162 382.135 788.057 401.438 788.057V788.055C382.135 788.055 381.456 769.95 381.438 768.056Z" fill="#F9F4FC"/>
<path d="M426.617 768.056C426.599 769.95 425.92 788.055 406.617 788.055V788.057C425.92 788.057 426.599 806.162 426.617 808.056C426.635 806.162 427.315 788.057 446.617 788.057V788.055C427.315 788.055 426.635 769.95 426.617 768.056Z" fill="#F9F4FC"/>
<path d="M20.0001 813.236C19.9819 815.13 19.3025 833.235 0 833.235V833.237C19.3025 833.237 19.9819 851.342 20.0001 853.236C20.0183 851.342 20.6975 833.237 40 833.237V833.235C20.6975 833.235 20.0183 815.13 20.0001 813.236Z" fill="#F9F4FC"/>
<path d="M65.1797 813.236C65.1615 815.13 64.4822 833.235 45.1797 833.235V833.237C64.4822 833.237 65.1615 851.342 65.1797 853.236C65.198 851.342 65.8772 833.237 85.1797 833.237V833.235C65.8772 833.235 65.198 815.13 65.1797 813.236Z" fill="#F9F4FC"/>
<path d="M110.359 813.236C110.341 815.13 109.662 833.235 90.3594 833.235V833.237C109.662 833.237 110.341 851.342 110.359 853.236C110.378 851.342 111.057 833.237 130.359 833.237V833.235C111.057 833.235 110.378 815.13 110.359 813.236Z" fill="#F9F4FC"/>
<path d="M155.539 813.236C155.521 815.13 154.842 833.235 135.539 833.235V833.237C154.842 833.237 155.521 851.342 155.539 853.236C155.557 851.342 156.237 833.237 175.539 833.237V833.235C156.237 833.235 155.557 815.13 155.539 813.236Z" fill="#F9F4FC"/>
<path d="M200.719 813.236C200.701 815.13 200.021 833.235 180.719 833.235V833.237C200.021 833.237 200.701 851.342 200.719 853.236C200.737 851.342 201.416 833.237 220.719 833.237V833.235C201.416 833.235 200.737 815.13 200.719 813.236Z" fill="#F9F4FC"/>
<path d="M245.898 813.236C245.88 815.13 245.201 833.235 225.898 833.235V833.237C245.201 833.237 245.88 851.342 245.898 853.236C245.917 851.342 246.596 833.237 265.898 833.237V833.235C246.596 833.235 245.917 815.13 245.898 813.236Z" fill="#F9F4FC"/>
<path d="M291.078 813.236C291.06 815.13 290.381 833.235 271.078 833.235V833.237C290.381 833.237 291.06 851.342 291.078 853.236C291.096 851.342 291.776 833.237 311.078 833.237V833.235C291.776 833.235 291.096 815.13 291.078 813.236Z" fill="#F9F4FC"/>
<path d="M336.258 813.236C336.24 815.13 335.56 833.235 316.258 833.235V833.237C335.56 833.237 336.24 851.342 336.258 853.236C336.276 851.342 336.955 833.237 356.258 833.237V833.235C336.955 833.235 336.276 815.13 336.258 813.236Z" fill="#F9F4FC"/>
<path d="M381.438 813.236C381.419 815.13 380.74 833.235 361.438 833.235V833.237C380.74 833.237 381.419 851.342 381.438 853.236C381.456 851.342 382.135 833.237 401.438 833.237V833.235C382.135 833.235 381.456 815.13 381.438 813.236Z" fill="#F9F4FC"/>
<path d="M426.617 813.236C426.599 815.13 425.92 833.235 406.617 833.235V833.237C425.92 833.237 426.599 851.342 426.617 853.236C426.635 851.342 427.315 833.237 446.617 833.237V833.235C427.315 833.235 426.635 815.13 426.617 813.236Z" fill="#F9F4FC"/>
<path d="M20.0001 858.416C19.9819 860.31 19.3025 878.414 0 878.414V878.417C19.3025 878.417 19.9819 896.521 20.0001 898.416C20.0183 896.521 20.6975 878.417 40 878.417V878.414C20.6975 878.414 20.0183 860.31 20.0001 858.416Z" fill="#F9F4FC"/>
<path d="M65.1797 858.416C65.1615 860.31 64.4822 878.414 45.1797 878.414V878.417C64.4822 878.417 65.1615 896.521 65.1797 898.416C65.198 896.521 65.8772 878.417 85.1797 878.417V878.414C65.8772 878.414 65.198 860.31 65.1797 858.416Z" fill="#F9F4FC"/>
<path d="M110.359 858.416C110.341 860.31 109.662 878.414 90.3594 878.414V878.417C109.662 878.417 110.341 896.521 110.359 898.416C110.378 896.521 111.057 878.417 130.359 878.417V878.414C111.057 878.414 110.378 860.31 110.359 858.416Z" fill="#F9F4FC"/>
<path d="M155.539 858.416C155.521 860.31 154.842 878.414 135.539 878.414V878.417C154.842 878.417 155.521 896.521 155.539 898.416C155.557 896.521 156.237 878.417 175.539 878.417V878.414C156.237 878.414 155.557 860.31 155.539 858.416Z" fill="#F9F4FC"/>
<path d="M200.719 858.416C200.701 860.31 200.021 878.414 180.719 878.414V878.417C200.021 878.417 200.701 896.521 200.719 898.416C200.737 896.521 201.416 878.417 220.719 878.417V878.414C201.416 878.414 200.737 860.31 200.719 858.416Z" fill="#F9F4FC"/>
<path d="M245.898 858.416C245.88 860.31 245.201 878.414 225.898 878.414V878.417C245.201 878.417 245.88 896.521 245.898 898.416C245.917 896.521 246.596 878.417 265.898 878.417V878.414C246.596 878.414 245.917 860.31 245.898 858.416Z" fill="#F9F4FC"/>
<path d="M291.078 858.416C291.06 860.31 290.381 878.414 271.078 878.414V878.417C290.381 878.417 291.06 896.521 291.078 898.416C291.096 896.521 291.776 878.417 311.078 878.417V878.414C291.776 878.414 291.096 860.31 291.078 858.416Z" fill="#F9F4FC"/>
<path d="M336.258 858.416C336.24 860.31 335.56 878.414 316.258 878.414V878.417C335.56 878.417 336.24 896.521 336.258 898.416C336.276 896.521 336.955 878.417 356.258 878.417V878.414C336.955 878.414 336.276 860.31 336.258 858.416Z" fill="#F9F4FC"/>
<path d="M381.438 858.416C381.419 860.31 380.74 878.414 361.438 878.414V878.417C380.74 878.417 381.419 896.521 381.438 898.416C381.456 896.521 382.135 878.417 401.438 878.417V878.414C382.135 878.414 381.456 860.31 381.438 858.416Z" fill="#F9F4FC"/>
<path d="M426.617 858.416C426.599 860.31 425.92 878.414 406.617 878.414V878.417C425.92 878.417 426.599 896.521 426.617 898.416C426.635 896.521 427.315 878.417 446.617 878.417V878.414C427.315 878.414 426.635 860.31 426.617 858.416Z" fill="#F9F4FC"/>
<path d="M20.0001 903.595C19.9819 905.489 19.3025 923.594 0 923.594V923.596C19.3025 923.596 19.9819 941.701 20.0001 943.595C20.0183 941.701 20.6975 923.596 40 923.596V923.594C20.6975 923.594 20.0183 905.489 20.0001 903.595Z" fill="#F9F4FC"/>
<path d="M65.1797 903.595C65.1615 905.489 64.4822 923.594 45.1797 923.594V923.596C64.4822 923.596 65.1615 941.701 65.1797 943.595C65.198 941.701 65.8772 923.596 85.1797 923.596V923.594C65.8772 923.594 65.198 905.489 65.1797 903.595Z" fill="#F9F4FC"/>
<path d="M110.359 903.595C110.341 905.489 109.662 923.594 90.3594 923.594V923.596C109.662 923.596 110.341 941.701 110.359 943.595C110.378 941.701 111.057 923.596 130.359 923.596V923.594C111.057 923.594 110.378 905.489 110.359 903.595Z" fill="#F9F4FC"/>
<path d="M155.539 903.595C155.521 905.489 154.842 923.594 135.539 923.594V923.596C154.842 923.596 155.521 941.701 155.539 943.595C155.557 941.701 156.237 923.596 175.539 923.596V923.594C156.237 923.594 155.557 905.489 155.539 903.595Z" fill="#F9F4FC"/>
<path d="M200.719 903.595C200.701 905.489 200.021 923.594 180.719 923.594V923.596C200.021 923.596 200.701 941.701 200.719 943.595C200.737 941.701 201.416 923.596 220.719 923.596V923.594C201.416 923.594 200.737 905.489 200.719 903.595Z" fill="#F9F4FC"/>
<path d="M245.898 903.595C245.88 905.489 245.201 923.594 225.898 923.594V923.596C245.201 923.596 245.88 941.701 245.898 943.595C245.917 941.701 246.596 923.596 265.898 923.596V923.594C246.596 923.594 245.917 905.489 245.898 903.595Z" fill="#F9F4FC"/>
<path d="M291.078 903.595C291.06 905.489 290.381 923.594 271.078 923.594V923.596C290.381 923.596 291.06 941.701 291.078 943.595C291.096 941.701 291.776 923.596 311.078 923.596V923.594C291.776 923.594 291.096 905.489 291.078 903.595Z" fill="#F9F4FC"/>
<path d="M336.258 903.595C336.24 905.489 335.56 923.594 316.258 923.594V923.596C335.56 923.596 336.24 941.701 336.258 943.595C336.276 941.701 336.955 923.596 356.258 923.596V923.594C336.955 923.594 336.276 905.489 336.258 903.595Z" fill="#F9F4FC"/>
<path d="M381.438 903.595C381.419 905.489 380.74 923.594 361.438 923.594V923.596C380.74 923.596 381.419 941.701 381.438 943.595C381.456 941.701 382.135 923.596 401.438 923.596V923.594C382.135 923.594 381.456 905.489 381.438 903.595Z" fill="#F9F4FC"/>
<path d="M426.617 903.595C426.599 905.489 425.92 923.594 406.617 923.594V923.596C425.92 923.596 426.599 941.701 426.617 943.595C426.635 941.701 427.315 923.596 446.617 923.596V923.594C427.315 923.594 426.635 905.489 426.617 903.595Z" fill="#F9F4FC"/>
<path d="M20.0001 948.775C19.9819 950.669 19.3025 968.774 0 968.774V968.776C19.3025 968.776 19.9819 986.881 20.0001 988.775C20.0183 986.881 20.6975 968.776 40 968.776V968.774C20.6975 968.774 20.0183 950.669 20.0001 948.775Z" fill="#F9F4FC"/>
<path d="M65.1797 948.775C65.1615 950.669 64.4822 968.774 45.1797 968.774V968.776C64.4822 968.776 65.1615 986.881 65.1797 988.775C65.198 986.881 65.8772 968.776 85.1797 968.776V968.774C65.8772 968.774 65.198 950.669 65.1797 948.775Z" fill="#F9F4FC"/>
<path d="M110.359 948.775C110.341 950.669 109.662 968.774 90.3594 968.774V968.776C109.662 968.776 110.341 986.881 110.359 988.775C110.378 986.881 111.057 968.776 130.359 968.776V968.774C111.057 968.774 110.378 950.669 110.359 948.775Z" fill="#F9F4FC"/>
<path d="M155.539 948.775C155.521 950.669 154.842 968.774 135.539 968.774V968.776C154.842 968.776 155.521 986.881 155.539 988.775C155.557 986.881 156.237 968.776 175.539 968.776V968.774C156.237 968.774 155.557 950.669 155.539 948.775Z" fill="#F9F4FC"/>
<path d="M200.719 948.775C200.701 950.669 200.021 968.774 180.719 968.774V968.776C200.021 968.776 200.701 986.881 200.719 988.775C200.737 986.881 201.416 968.776 220.719 968.776V968.774C201.416 968.774 200.737 950.669 200.719 948.775Z" fill="#F9F4FC"/>
<path d="M245.898 948.775C245.88 950.669 245.201 968.774 225.898 968.774V968.776C245.201 968.776 245.88 986.881 245.898 988.775C245.917 986.881 246.596 968.776 265.898 968.776V968.774C246.596 968.774 245.917 950.669 245.898 948.775Z" fill="#F9F4FC"/>
<path d="M291.078 948.775C291.06 950.669 290.381 968.774 271.078 968.774V968.776C290.381 968.776 291.06 986.881 291.078 988.775C291.096 986.881 291.776 968.776 311.078 968.776V968.774C291.776 968.774 291.096 950.669 291.078 948.775Z" fill="#F9F4FC"/>
<path d="M336.258 948.775C336.24 950.669 335.56 968.774 316.258 968.774V968.776C335.56 968.776 336.24 986.881 336.258 988.775C336.276 986.881 336.955 968.776 356.258 968.776V968.774C336.955 968.774 336.276 950.669 336.258 948.775Z" fill="#F9F4FC"/>
<path d="M381.438 948.775C381.419 950.669 380.74 968.774 361.438 968.774V968.776C380.74 968.776 381.419 986.881 381.438 988.775C381.456 986.881 382.135 968.776 401.438 968.776V968.774C382.135 968.774 381.456 950.669 381.438 948.775Z" fill="#F9F4FC"/>
<path d="M426.617 948.775C426.599 950.669 425.92 968.774 406.617 968.774V968.776C425.92 968.776 426.599 986.881 426.617 988.775C426.635 986.881 427.315 968.776 446.617 968.776V968.774C427.315 968.774 426.635 950.669 426.617 948.775Z" fill="#F9F4FC"/>
<path d="M20.0001 993.955C19.9819 995.849 19.3025 1013.95 0 1013.95V1013.96C19.3025 1013.96 19.9819 1032.06 20.0001 1033.95C20.0183 1032.06 20.6975 1013.96 40 1013.96V1013.95C20.6975 1013.95 20.0183 995.849 20.0001 993.955Z" fill="#F9F4FC"/>
<path d="M65.1797 993.955C65.1615 995.849 64.4822 1013.95 45.1797 1013.95V1013.96C64.4822 1013.96 65.1615 1032.06 65.1797 1033.95C65.198 1032.06 65.8772 1013.96 85.1797 1013.96V1013.95C65.8772 1013.95 65.198 995.849 65.1797 993.955Z" fill="#F9F4FC"/>
<path d="M110.359 993.955C110.341 995.849 109.662 1013.95 90.3594 1013.95V1013.96C109.662 1013.96 110.341 1032.06 110.359 1033.95C110.378 1032.06 111.057 1013.96 130.359 1013.96V1013.95C111.057 1013.95 110.378 995.849 110.359 993.955Z" fill="#F9F4FC"/>
<path d="M155.539 993.955C155.521 995.849 154.842 1013.95 135.539 1013.95V1013.96C154.842 1013.96 155.521 1032.06 155.539 1033.95C155.557 1032.06 156.237 1013.96 175.539 1013.96V1013.95C156.237 1013.95 155.557 995.849 155.539 993.955Z" fill="#F9F4FC"/>
<path d="M200.719 993.955C200.701 995.849 200.021 1013.95 180.719 1013.95V1013.96C200.021 1013.96 200.701 1032.06 200.719 1033.95C200.737 1032.06 201.416 1013.96 220.719 1013.96V1013.95C201.416 1013.95 200.737 995.849 200.719 993.955Z" fill="#F9F4FC"/>
<path d="M245.898 993.955C245.88 995.849 245.201 1013.95 225.898 1013.95V1013.96C245.201 1013.96 245.88 1032.06 245.898 1033.95C245.917 1032.06 246.596 1013.96 265.898 1013.96V1013.95C246.596 1013.95 245.917 995.849 245.898 993.955Z" fill="#F9F4FC"/>
<path d="M291.078 993.955C291.06 995.849 290.381 1013.95 271.078 1013.95V1013.96C290.381 1013.96 291.06 1032.06 291.078 1033.95C291.096 1032.06 291.776 1013.96 311.078 1013.96V1013.95C291.776 1013.95 291.096 995.849 291.078 993.955Z" fill="#F9F4FC"/>
<path d="M336.258 993.955C336.24 995.849 335.56 1013.95 316.258 1013.95V1013.96C335.56 1013.96 336.24 1032.06 336.258 1033.95C336.276 1032.06 336.955 1013.96 356.258 1013.96V1013.95C336.955 1013.95 336.276 995.849 336.258 993.955Z" fill="#F9F4FC"/>
<path d="M381.438 993.955C381.419 995.849 380.74 1013.95 361.438 1013.95V1013.96C380.74 1013.96 381.419 1032.06 381.438 1033.95C381.456 1032.06 382.135 1013.96 401.438 1013.96V1013.95C382.135 1013.95 381.456 995.849 381.438 993.955Z" fill="#F9F4FC"/>
<path d="M426.617 993.955C426.599 995.849 425.92 1013.95 406.617 1013.95V1013.96C425.92 1013.96 426.599 1032.06 426.617 1033.95C426.635 1032.06 427.315 1013.96 446.617 1013.96V1013.95C427.315 1013.95 426.635 995.849 426.617 993.955Z" fill="#F9F4FC"/>
<path d="M20.0001 1039.13C19.9819 1041.03 19.3025 1059.13 0 1059.13V1059.14C19.3025 1059.14 19.9819 1077.24 20.0001 1079.13C20.0183 1077.24 20.6975 1059.14 40 1059.14V1059.13C20.6975 1059.13 20.0183 1041.03 20.0001 1039.13Z" fill="#F9F4FC"/>
<path d="M65.1797 1039.13C65.1615 1041.03 64.4822 1059.13 45.1797 1059.13V1059.14C64.4822 1059.14 65.1615 1077.24 65.1797 1079.13C65.198 1077.24 65.8772 1059.14 85.1797 1059.14V1059.13C65.8772 1059.13 65.198 1041.03 65.1797 1039.13Z" fill="#F9F4FC"/>
<path d="M110.359 1039.13C110.341 1041.03 109.662 1059.13 90.3594 1059.13V1059.14C109.662 1059.14 110.341 1077.24 110.359 1079.13C110.378 1077.24 111.057 1059.14 130.359 1059.14V1059.13C111.057 1059.13 110.378 1041.03 110.359 1039.13Z" fill="#F9F4FC"/>
<path d="M155.539 1039.13C155.521 1041.03 154.842 1059.13 135.539 1059.13V1059.14C154.842 1059.14 155.521 1077.24 155.539 1079.13C155.557 1077.24 156.237 1059.14 175.539 1059.14V1059.13C156.237 1059.13 155.557 1041.03 155.539 1039.13Z" fill="#F9F4FC"/>
<path d="M200.719 1039.13C200.701 1041.03 200.021 1059.13 180.719 1059.13V1059.14C200.021 1059.14 200.701 1077.24 200.719 1079.13C200.737 1077.24 201.416 1059.14 220.719 1059.14V1059.13C201.416 1059.13 200.737 1041.03 200.719 1039.13Z" fill="#F9F4FC"/>
<path d="M245.898 1039.13C245.88 1041.03 245.201 1059.13 225.898 1059.13V1059.14C245.201 1059.14 245.88 1077.24 245.898 1079.13C245.917 1077.24 246.596 1059.14 265.898 1059.14V1059.13C246.596 1059.13 245.917 1041.03 245.898 1039.13Z" fill="#F9F4FC"/>
<path d="M291.078 1039.13C291.06 1041.03 290.381 1059.13 271.078 1059.13V1059.14C290.381 1059.14 291.06 1077.24 291.078 1079.13C291.096 1077.24 291.776 1059.14 311.078 1059.14V1059.13C291.776 1059.13 291.096 1041.03 291.078 1039.13Z" fill="#F9F4FC"/>
<path d="M336.258 1039.13C336.24 1041.03 335.56 1059.13 316.258 1059.13V1059.14C335.56 1059.14 336.24 1077.24 336.258 1079.13C336.276 1077.24 336.955 1059.14 356.258 1059.14V1059.13C336.955 1059.13 336.276 1041.03 336.258 1039.13Z" fill="#F9F4FC"/>
<path d="M381.438 1039.13C381.419 1041.03 380.74 1059.13 361.438 1059.13V1059.14C380.74 1059.14 381.419 1077.24 381.438 1079.13C381.456 1077.24 382.135 1059.14 401.438 1059.14V1059.13C382.135 1059.13 381.456 1041.03 381.438 1039.13Z" fill="#F9F4FC"/>
<path d="M426.617 1039.13C426.599 1041.03 425.92 1059.13 406.617 1059.13V1059.14C425.92 1059.14 426.599 1077.24 426.617 1079.13C426.635 1077.24 427.315 1059.14 446.617 1059.14V1059.13C427.315 1059.13 426.635 1041.03 426.617 1039.13Z" fill="#F9F4FC"/>
<path d="M20.0001 1084.31C19.9819 1086.21 19.3025 1104.31 0 1104.31V1104.32C19.3025 1104.32 19.9819 1122.42 20.0001 1124.31C20.0183 1122.42 20.6975 1104.32 40 1104.32V1104.31C20.6975 1104.31 20.0183 1086.21 20.0001 1084.31Z" fill="#F9F4FC"/>
<path d="M65.1797 1084.31C65.1615 1086.21 64.4822 1104.31 45.1797 1104.31V1104.32C64.4822 1104.32 65.1615 1122.42 65.1797 1124.31C65.198 1122.42 65.8772 1104.32 85.1797 1104.32V1104.31C65.8772 1104.31 65.198 1086.21 65.1797 1084.31Z" fill="#F9F4FC"/>
<path d="M110.359 1084.31C110.341 1086.21 109.662 1104.31 90.3594 1104.31V1104.32C109.662 1104.32 110.341 1122.42 110.359 1124.31C110.378 1122.42 111.057 1104.32 130.359 1104.32V1104.31C111.057 1104.31 110.378 1086.21 110.359 1084.31Z" fill="#F9F4FC"/>
<path d="M155.539 1084.31C155.521 1086.21 154.842 1104.31 135.539 1104.31V1104.32C154.842 1104.32 155.521 1122.42 155.539 1124.31C155.557 1122.42 156.237 1104.32 175.539 1104.32V1104.31C156.237 1104.31 155.557 1086.21 155.539 1084.31Z" fill="#F9F4FC"/>
<path d="M200.719 1084.31C200.701 1086.21 200.021 1104.31 180.719 1104.31V1104.32C200.021 1104.32 200.701 1122.42 200.719 1124.31C200.737 1122.42 201.416 1104.32 220.719 1104.32V1104.31C201.416 1104.31 200.737 1086.21 200.719 1084.31Z" fill="#F9F4FC"/>
<path d="M245.898 1084.31C245.88 1086.21 245.201 1104.31 225.898 1104.31V1104.32C245.201 1104.32 245.88 1122.42 245.898 1124.31C245.917 1122.42 246.596 1104.32 265.898 1104.32V1104.31C246.596 1104.31 245.917 1086.21 245.898 1084.31Z" fill="#F9F4FC"/>
<path d="M291.078 1084.31C291.06 1086.21 290.381 1104.31 271.078 1104.31V1104.32C290.381 1104.32 291.06 1122.42 291.078 1124.31C291.096 1122.42 291.776 1104.32 311.078 1104.32V1104.31C291.776 1104.31 291.096 1086.21 291.078 1084.31Z" fill="#F9F4FC"/>
<path d="M336.258 1084.31C336.24 1086.21 335.56 1104.31 316.258 1104.31V1104.32C335.56 1104.32 336.24 1122.42 336.258 1124.31C336.276 1122.42 336.955 1104.32 356.258 1104.32V1104.31C336.955 1104.31 336.276 1086.21 336.258 1084.31Z" fill="#F9F4FC"/>
<path d="M381.438 1084.31C381.419 1086.21 380.74 1104.31 361.438 1104.31V1104.32C380.74 1104.32 381.419 1122.42 381.438 1124.31C381.456 1122.42 382.135 1104.32 401.438 1104.32V1104.31C382.135 1104.31 381.456 1086.21 381.438 1084.31Z" fill="#F9F4FC"/>
<path d="M426.617 1084.31C426.599 1086.21 425.92 1104.31 406.617 1104.31V1104.32C425.92 1104.32 426.599 1122.42 426.617 1124.31C426.635 1122.42 427.315 1104.32 446.617 1104.32V1104.31C427.315 1104.31 426.635 1086.21 426.617 1084.31Z" fill="#F9F4FC"/>
<path d="M20.0001 1129.49C19.9819 1131.39 19.3025 1149.49 0 1149.49V1149.5C19.3025 1149.5 19.9819 1167.6 20.0001 1169.49C20.0183 1167.6 20.6975 1149.5 40 1149.5V1149.49C20.6975 1149.49 20.0183 1131.39 20.0001 1129.49Z" fill="#F9F4FC"/>
<path d="M65.1797 1129.49C65.1615 1131.39 64.4822 1149.49 45.1797 1149.49V1149.5C64.4822 1149.5 65.1615 1167.6 65.1797 1169.49C65.198 1167.6 65.8772 1149.5 85.1797 1149.5V1149.49C65.8772 1149.49 65.198 1131.39 65.1797 1129.49Z" fill="#F9F4FC"/>
<path d="M110.359 1129.49C110.341 1131.39 109.662 1149.49 90.3594 1149.49V1149.5C109.662 1149.5 110.341 1167.6 110.359 1169.49C110.378 1167.6 111.057 1149.5 130.359 1149.5V1149.49C111.057 1149.49 110.378 1131.39 110.359 1129.49Z" fill="#F9F4FC"/>
<path d="M155.539 1129.49C155.521 1131.39 154.842 1149.49 135.539 1149.49V1149.5C154.842 1149.5 155.521 1167.6 155.539 1169.49C155.557 1167.6 156.237 1149.5 175.539 1149.5V1149.49C156.237 1149.49 155.557 1131.39 155.539 1129.49Z" fill="#F9F4FC"/>
<path d="M200.719 1129.49C200.701 1131.39 200.021 1149.49 180.719 1149.49V1149.5C200.021 1149.5 200.701 1167.6 200.719 1169.49C200.737 1167.6 201.416 1149.5 220.719 1149.5V1149.49C201.416 1149.49 200.737 1131.39 200.719 1129.49Z" fill="#F9F4FC"/>
<path d="M245.898 1129.49C245.88 1131.39 245.201 1149.49 225.898 1149.49V1149.5C245.201 1149.5 245.88 1167.6 245.898 1169.49C245.917 1167.6 246.596 1149.5 265.898 1149.5V1149.49C246.596 1149.49 245.917 1131.39 245.898 1129.49Z" fill="#F9F4FC"/>
<path d="M291.078 1129.49C291.06 1131.39 290.381 1149.49 271.078 1149.49V1149.5C290.381 1149.5 291.06 1167.6 291.078 1169.49C291.096 1167.6 291.776 1149.5 311.078 1149.5V1149.49C291.776 1149.49 291.096 1131.39 291.078 1129.49Z" fill="#F9F4FC"/>
<path d="M336.258 1129.49C336.24 1131.39 335.56 1149.49 316.258 1149.49V1149.5C335.56 1149.5 336.24 1167.6 336.258 1169.49C336.276 1167.6 336.955 1149.5 356.258 1149.5V1149.49C336.955 1149.49 336.276 1131.39 336.258 1129.49Z" fill="#F9F4FC"/>
<path d="M381.438 1129.49C381.419 1131.39 380.74 1149.49 361.438 1149.49V1149.5C380.74 1149.5 381.419 1167.6 381.438 1169.49C381.456 1167.6 382.135 1149.5 401.438 1149.5V1149.49C382.135 1149.49 381.456 1131.39 381.438 1129.49Z" fill="#F9F4FC"/>
<path d="M426.617 1129.49C426.599 1131.39 425.92 1149.49 406.617 1149.49V1149.5C425.92 1149.5 426.599 1167.6 426.617 1169.49C426.635 1167.6 427.315 1149.5 446.617 1149.5V1149.49C427.315 1149.49 426.635 1131.39 426.617 1129.49Z" fill="#F9F4FC"/>
<path d="M20.0001 1174.67C19.9819 1176.57 19.3025 1194.67 0 1194.67V1194.68C19.3025 1194.68 19.9819 1212.78 20.0001 1214.67C20.0183 1212.78 20.6975 1194.68 40 1194.68V1194.67C20.6975 1194.67 20.0183 1176.57 20.0001 1174.67Z" fill="#F9F4FC"/>
<path d="M65.1797 1174.67C65.1615 1176.57 64.4822 1194.67 45.1797 1194.67V1194.68C64.4822 1194.68 65.1615 1212.78 65.1797 1214.67C65.198 1212.78 65.8772 1194.68 85.1797 1194.68V1194.67C65.8772 1194.67 65.198 1176.57 65.1797 1174.67Z" fill="#F9F4FC"/>
<path d="M110.359 1174.67C110.341 1176.57 109.662 1194.67 90.3594 1194.67V1194.68C109.662 1194.68 110.341 1212.78 110.359 1214.67C110.378 1212.78 111.057 1194.68 130.359 1194.68V1194.67C111.057 1194.67 110.378 1176.57 110.359 1174.67Z" fill="#F9F4FC"/>
<path d="M155.539 1174.67C155.521 1176.57 154.842 1194.67 135.539 1194.67V1194.68C154.842 1194.68 155.521 1212.78 155.539 1214.67C155.557 1212.78 156.237 1194.68 175.539 1194.68V1194.67C156.237 1194.67 155.557 1176.57 155.539 1174.67Z" fill="#F9F4FC"/>
<path d="M200.719 1174.67C200.701 1176.57 200.021 1194.67 180.719 1194.67V1194.68C200.021 1194.68 200.701 1212.78 200.719 1214.67C200.737 1212.78 201.416 1194.68 220.719 1194.68V1194.67C201.416 1194.67 200.737 1176.57 200.719 1174.67Z" fill="#F9F4FC"/>
<path d="M245.898 1174.67C245.88 1176.57 245.201 1194.67 225.898 1194.67V1194.68C245.201 1194.68 245.88 1212.78 245.898 1214.67C245.917 1212.78 246.596 1194.68 265.898 1194.68V1194.67C246.596 1194.67 245.917 1176.57 245.898 1174.67Z" fill="#F9F4FC"/>
<path d="M291.078 1174.67C291.06 1176.57 290.381 1194.67 271.078 1194.67V1194.68C290.381 1194.68 291.06 1212.78 291.078 1214.67C291.096 1212.78 291.776 1194.68 311.078 1194.68V1194.67C291.776 1194.67 291.096 1176.57 291.078 1174.67Z" fill="#F9F4FC"/>
<path d="M336.258 1174.67C336.24 1176.57 335.56 1194.67 316.258 1194.67V1194.68C335.56 1194.68 336.24 1212.78 336.258 1214.67C336.276 1212.78 336.955 1194.68 356.258 1194.68V1194.67C336.955 1194.67 336.276 1176.57 336.258 1174.67Z" fill="#F9F4FC"/>
<path d="M381.438 1174.67C381.419 1176.57 380.74 1194.67 361.438 1194.67V1194.68C380.74 1194.68 381.419 1212.78 381.438 1214.67C381.456 1212.78 382.135 1194.68 401.438 1194.68V1194.67C382.135 1194.67 381.456 1176.57 381.438 1174.67Z" fill="#F9F4FC"/>
<path d="M426.617 1174.67C426.599 1176.57 425.92 1194.67 406.617 1194.67V1194.68C425.92 1194.68 426.599 1212.78 426.617 1214.67C426.635 1212.78 427.315 1194.68 446.617 1194.68V1194.67C427.315 1194.67 426.635 1176.57 426.617 1174.67Z" fill="#F9F4FC"/>
<path d="M20.0001 1219.85C19.9819 1221.75 19.3025 1239.85 0 1239.85V1239.85C19.3025 1239.85 19.9819 1257.96 20.0001 1259.85C20.0183 1257.96 20.6975 1239.85 40 1239.85V1239.85C20.6975 1239.85 20.0183 1221.75 20.0001 1219.85Z" fill="#F9F4FC"/>
<path d="M65.1797 1219.85C65.1615 1221.75 64.4822 1239.85 45.1797 1239.85V1239.85C64.4822 1239.85 65.1615 1257.96 65.1797 1259.85C65.198 1257.96 65.8772 1239.85 85.1797 1239.85V1239.85C65.8772 1239.85 65.198 1221.75 65.1797 1219.85Z" fill="#F9F4FC"/>
<path d="M110.359 1219.85C110.341 1221.75 109.662 1239.85 90.3594 1239.85V1239.85C109.662 1239.85 110.341 1257.96 110.359 1259.85C110.378 1257.96 111.057 1239.85 130.359 1239.85V1239.85C111.057 1239.85 110.378 1221.75 110.359 1219.85Z" fill="#F9F4FC"/>
<path d="M155.539 1219.85C155.521 1221.75 154.842 1239.85 135.539 1239.85V1239.85C154.842 1239.85 155.521 1257.96 155.539 1259.85C155.557 1257.96 156.237 1239.85 175.539 1239.85V1239.85C156.237 1239.85 155.557 1221.75 155.539 1219.85Z" fill="#F9F4FC"/>
<path d="M200.719 1219.85C200.701 1221.75 200.021 1239.85 180.719 1239.85V1239.85C200.021 1239.85 200.701 1257.96 200.719 1259.85C200.737 1257.96 201.416 1239.85 220.719 1239.85V1239.85C201.416 1239.85 200.737 1221.75 200.719 1219.85Z" fill="#F9F4FC"/>
<path d="M245.898 1219.85C245.88 1221.75 245.201 1239.85 225.898 1239.85V1239.85C245.201 1239.85 245.88 1257.96 245.898 1259.85C245.917 1257.96 246.596 1239.85 265.898 1239.85V1239.85C246.596 1239.85 245.917 1221.75 245.898 1219.85Z" fill="#F9F4FC"/>
<path d="M291.078 1219.85C291.06 1221.75 290.381 1239.85 271.078 1239.85V1239.85C290.381 1239.85 291.06 1257.96 291.078 1259.85C291.096 1257.96 291.776 1239.85 311.078 1239.85V1239.85C291.776 1239.85 291.096 1221.75 291.078 1219.85Z" fill="#F9F4FC"/>
<path d="M336.258 1219.85C336.24 1221.75 335.56 1239.85 316.258 1239.85V1239.85C335.56 1239.85 336.24 1257.96 336.258 1259.85C336.276 1257.96 336.955 1239.85 356.258 1239.85V1239.85C336.955 1239.85 336.276 1221.75 336.258 1219.85Z" fill="#F9F4FC"/>
<path d="M381.438 1219.85C381.419 1221.75 380.74 1239.85 361.438 1239.85V1239.85C380.74 1239.85 381.419 1257.96 381.438 1259.85C381.456 1257.96 382.135 1239.85 401.438 1239.85V1239.85C382.135 1239.85 381.456 1221.75 381.438 1219.85Z" fill="#F9F4FC"/>
<path d="M426.617 1219.85C426.599 1221.75 425.92 1239.85 406.617 1239.85V1239.85C425.92 1239.85 426.599 1257.96 426.617 1259.85C426.635 1257.96 427.315 1239.85 446.617 1239.85V1239.85C427.315 1239.85 426.635 1221.75 426.617 1219.85Z" fill="#F9F4FC"/>
<path d="M20.0001 1265.03C19.9819 1266.93 19.3025 1285.03 0 1285.03V1285.03C19.3025 1285.03 19.9819 1303.14 20.0001 1305.03C20.0183 1303.14 20.6975 1285.03 40 1285.03V1285.03C20.6975 1285.03 20.0183 1266.93 20.0001 1265.03Z" fill="#F9F4FC"/>
<path d="M65.1797 1265.03C65.1615 1266.93 64.4822 1285.03 45.1797 1285.03V1285.03C64.4822 1285.03 65.1615 1303.14 65.1797 1305.03C65.198 1303.14 65.8772 1285.03 85.1797 1285.03V1285.03C65.8772 1285.03 65.198 1266.93 65.1797 1265.03Z" fill="#F9F4FC"/>
<path d="M110.359 1265.03C110.341 1266.93 109.662 1285.03 90.3594 1285.03V1285.03C109.662 1285.03 110.341 1303.14 110.359 1305.03C110.378 1303.14 111.057 1285.03 130.359 1285.03V1285.03C111.057 1285.03 110.378 1266.93 110.359 1265.03Z" fill="#F9F4FC"/>
<path d="M155.539 1265.03C155.521 1266.93 154.842 1285.03 135.539 1285.03V1285.03C154.842 1285.03 155.521 1303.14 155.539 1305.03C155.557 1303.14 156.237 1285.03 175.539 1285.03V1285.03C156.237 1285.03 155.557 1266.93 155.539 1265.03Z" fill="#F9F4FC"/>
<path d="M200.719 1265.03C200.701 1266.93 200.021 1285.03 180.719 1285.03V1285.03C200.021 1285.03 200.701 1303.14 200.719 1305.03C200.737 1303.14 201.416 1285.03 220.719 1285.03V1285.03C201.416 1285.03 200.737 1266.93 200.719 1265.03Z" fill="#F9F4FC"/>
<path d="M245.898 1265.03C245.88 1266.93 245.201 1285.03 225.898 1285.03V1285.03C245.201 1285.03 245.88 1303.14 245.898 1305.03C245.917 1303.14 246.596 1285.03 265.898 1285.03V1285.03C246.596 1285.03 245.917 1266.93 245.898 1265.03Z" fill="#F9F4FC"/>
<path d="M291.078 1265.03C291.06 1266.93 290.381 1285.03 271.078 1285.03V1285.03C290.381 1285.03 291.06 1303.14 291.078 1305.03C291.096 1303.14 291.776 1285.03 311.078 1285.03V1285.03C291.776 1285.03 291.096 1266.93 291.078 1265.03Z" fill="#F9F4FC"/>
<path d="M336.258 1265.03C336.24 1266.93 335.56 1285.03 316.258 1285.03V1285.03C335.56 1285.03 336.24 1303.14 336.258 1305.03C336.276 1303.14 336.955 1285.03 356.258 1285.03V1285.03C336.955 1285.03 336.276 1266.93 336.258 1265.03Z" fill="#F9F4FC"/>
<path d="M381.438 1265.03C381.419 1266.93 380.74 1285.03 361.438 1285.03V1285.03C380.74 1285.03 381.419 1303.14 381.438 1305.03C381.456 1303.14 382.135 1285.03 401.438 1285.03V1285.03C382.135 1285.03 381.456 1266.93 381.438 1265.03Z" fill="#F9F4FC"/>
<path d="M426.617 1265.03C426.599 1266.93 425.92 1285.03 406.617 1285.03V1285.03C425.92 1285.03 426.599 1303.14 426.617 1305.03C426.635 1303.14 427.315 1285.03 446.617 1285.03V1285.03C427.315 1285.03 426.635 1266.93 426.617 1265.03Z" fill="#F9F4FC"/>
<path d="M20.0001 1310.21C19.9819 1312.11 19.3025 1330.21 0 1330.21V1330.21C19.3025 1330.21 19.9819 1348.32 20.0001 1350.21C20.0183 1348.32 20.6975 1330.21 40 1330.21V1330.21C20.6975 1330.21 20.0183 1312.11 20.0001 1310.21Z" fill="#F9F4FC"/>
<path d="M65.1797 1310.21C65.1615 1312.11 64.4822 1330.21 45.1797 1330.21V1330.21C64.4822 1330.21 65.1615 1348.32 65.1797 1350.21C65.198 1348.32 65.8772 1330.21 85.1797 1330.21V1330.21C65.8772 1330.21 65.198 1312.11 65.1797 1310.21Z" fill="#F9F4FC"/>
<path d="M110.359 1310.21C110.341 1312.11 109.662 1330.21 90.3594 1330.21V1330.21C109.662 1330.21 110.341 1348.32 110.359 1350.21C110.378 1348.32 111.057 1330.21 130.359 1330.21V1330.21C111.057 1330.21 110.378 1312.11 110.359 1310.21Z" fill="#F9F4FC"/>
<path d="M155.539 1310.21C155.521 1312.11 154.842 1330.21 135.539 1330.21V1330.21C154.842 1330.21 155.521 1348.32 155.539 1350.21C155.557 1348.32 156.237 1330.21 175.539 1330.21V1330.21C156.237 1330.21 155.557 1312.11 155.539 1310.21Z" fill="#F9F4FC"/>
<path d="M200.719 1310.21C200.701 1312.11 200.021 1330.21 180.719 1330.21V1330.21C200.021 1330.21 200.701 1348.32 200.719 1350.21C200.737 1348.32 201.416 1330.21 220.719 1330.21V1330.21C201.416 1330.21 200.737 1312.11 200.719 1310.21Z" fill="#F9F4FC"/>
<path d="M245.898 1310.21C245.88 1312.11 245.201 1330.21 225.898 1330.21V1330.21C245.201 1330.21 245.88 1348.32 245.898 1350.21C245.917 1348.32 246.596 1330.21 265.898 1330.21V1330.21C246.596 1330.21 245.917 1312.11 245.898 1310.21Z" fill="#F9F4FC"/>
<path d="M291.078 1310.21C291.06 1312.11 290.381 1330.21 271.078 1330.21V1330.21C290.381 1330.21 291.06 1348.32 291.078 1350.21C291.096 1348.32 291.776 1330.21 311.078 1330.21V1330.21C291.776 1330.21 291.096 1312.11 291.078 1310.21Z" fill="#F9F4FC"/>
<path d="M336.258 1310.21C336.24 1312.11 335.56 1330.21 316.258 1330.21V1330.21C335.56 1330.21 336.24 1348.32 336.258 1350.21C336.276 1348.32 336.955 1330.21 356.258 1330.21V1330.21C336.955 1330.21 336.276 1312.11 336.258 1310.21Z" fill="#F9F4FC"/>
<path d="M381.438 1310.21C381.419 1312.11 380.74 1330.21 361.438 1330.21V1330.21C380.74 1330.21 381.419 1348.32 381.438 1350.21C381.456 1348.32 382.135 1330.21 401.438 1330.21V1330.21C382.135 1330.21 381.456 1312.11 381.438 1310.21Z" fill="#F9F4FC"/>
<path d="M426.617 1310.21C426.599 1312.11 425.92 1330.21 406.617 1330.21V1330.21C425.92 1330.21 426.599 1348.32 426.617 1350.21C426.635 1348.32 427.315 1330.21 446.617 1330.21V1330.21C427.315 1330.21 426.635 1312.11 426.617 1310.21Z" fill="#F9F4FC"/>
<path d="M20.0001 1355.39C19.9819 1357.29 19.3025 1375.39 0 1375.39V1375.39C19.3025 1375.39 19.9819 1393.5 20.0001 1395.39C20.0183 1393.5 20.6975 1375.39 40 1375.39V1375.39C20.6975 1375.39 20.0183 1357.29 20.0001 1355.39Z" fill="#F9F4FC"/>
<path d="M65.1797 1355.39C65.1615 1357.29 64.4822 1375.39 45.1797 1375.39V1375.39C64.4822 1375.39 65.1615 1393.5 65.1797 1395.39C65.198 1393.5 65.8772 1375.39 85.1797 1375.39V1375.39C65.8772 1375.39 65.198 1357.29 65.1797 1355.39Z" fill="#F9F4FC"/>
<path d="M110.359 1355.39C110.341 1357.29 109.662 1375.39 90.3594 1375.39V1375.39C109.662 1375.39 110.341 1393.5 110.359 1395.39C110.378 1393.5 111.057 1375.39 130.359 1375.39V1375.39C111.057 1375.39 110.378 1357.29 110.359 1355.39Z" fill="#F9F4FC"/>
<path d="M155.539 1355.39C155.521 1357.29 154.842 1375.39 135.539 1375.39V1375.39C154.842 1375.39 155.521 1393.5 155.539 1395.39C155.557 1393.5 156.237 1375.39 175.539 1375.39V1375.39C156.237 1375.39 155.557 1357.29 155.539 1355.39Z" fill="#F9F4FC"/>
<path d="M200.719 1355.39C200.701 1357.29 200.021 1375.39 180.719 1375.39V1375.39C200.021 1375.39 200.701 1393.5 200.719 1395.39C200.737 1393.5 201.416 1375.39 220.719 1375.39V1375.39C201.416 1375.39 200.737 1357.29 200.719 1355.39Z" fill="#F9F4FC"/>
<path d="M245.898 1355.39C245.88 1357.29 245.201 1375.39 225.898 1375.39V1375.39C245.201 1375.39 245.88 1393.5 245.898 1395.39C245.917 1393.5 246.596 1375.39 265.898 1375.39V1375.39C246.596 1375.39 245.917 1357.29 245.898 1355.39Z" fill="#F9F4FC"/>
<path d="M291.078 1355.39C291.06 1357.29 290.381 1375.39 271.078 1375.39V1375.39C290.381 1375.39 291.06 1393.5 291.078 1395.39C291.096 1393.5 291.776 1375.39 311.078 1375.39V1375.39C291.776 1375.39 291.096 1357.29 291.078 1355.39Z" fill="#F9F4FC"/>
<path d="M336.258 1355.39C336.24 1357.29 335.56 1375.39 316.258 1375.39V1375.39C335.56 1375.39 336.24 1393.5 336.258 1395.39C336.276 1393.5 336.955 1375.39 356.258 1375.39V1375.39C336.955 1375.39 336.276 1357.29 336.258 1355.39Z" fill="#F9F4FC"/>
<path d="M381.438 1355.39C381.419 1357.29 380.74 1375.39 361.438 1375.39V1375.39C380.74 1375.39 381.419 1393.5 381.438 1395.39C381.456 1393.5 382.135 1375.39 401.438 1375.39V1375.39C382.135 1375.39 381.456 1357.29 381.438 1355.39Z" fill="#F9F4FC"/>
<path d="M426.617 1355.39C426.599 1357.29 425.92 1375.39 406.617 1375.39V1375.39C425.92 1375.39 426.599 1393.5 426.617 1395.39C426.635 1393.5 427.315 1375.39 446.617 1375.39V1375.39C427.315 1375.39 426.635 1357.29 426.617 1355.39Z" fill="#F9F4FC"/>
<path d="M20.0001 1400.57C19.9819 1402.47 19.3025 1420.57 0 1420.57V1420.57C19.3025 1420.57 19.9819 1438.68 20.0001 1440.57C20.0183 1438.68 20.6975 1420.57 40 1420.57V1420.57C20.6975 1420.57 20.0183 1402.47 20.0001 1400.57Z" fill="#F9F4FC"/>
<path d="M65.1797 1400.57C65.1615 1402.47 64.4822 1420.57 45.1797 1420.57V1420.57C64.4822 1420.57 65.1615 1438.68 65.1797 1440.57C65.198 1438.68 65.8772 1420.57 85.1797 1420.57V1420.57C65.8772 1420.57 65.198 1402.47 65.1797 1400.57Z" fill="#F9F4FC"/>
<path d="M110.359 1400.57C110.341 1402.47 109.662 1420.57 90.3594 1420.57V1420.57C109.662 1420.57 110.341 1438.68 110.359 1440.57C110.378 1438.68 111.057 1420.57 130.359 1420.57V1420.57C111.057 1420.57 110.378 1402.47 110.359 1400.57Z" fill="#F9F4FC"/>
<path d="M155.539 1400.57C155.521 1402.47 154.842 1420.57 135.539 1420.57V1420.57C154.842 1420.57 155.521 1438.68 155.539 1440.57C155.557 1438.68 156.237 1420.57 175.539 1420.57V1420.57C156.237 1420.57 155.557 1402.47 155.539 1400.57Z" fill="#F9F4FC"/>
<path d="M200.719 1400.57C200.701 1402.47 200.021 1420.57 180.719 1420.57V1420.57C200.021 1420.57 200.701 1438.68 200.719 1440.57C200.737 1438.68 201.416 1420.57 220.719 1420.57V1420.57C201.416 1420.57 200.737 1402.47 200.719 1400.57Z" fill="#F9F4FC"/>
<path d="M245.898 1400.57C245.88 1402.47 245.201 1420.57 225.898 1420.57V1420.57C245.201 1420.57 245.88 1438.68 245.898 1440.57C245.917 1438.68 246.596 1420.57 265.898 1420.57V1420.57C246.596 1420.57 245.917 1402.47 245.898 1400.57Z" fill="#F9F4FC"/>
<path d="M291.078 1400.57C291.06 1402.47 290.381 1420.57 271.078 1420.57V1420.57C290.381 1420.57 291.06 1438.68 291.078 1440.57C291.096 1438.68 291.776 1420.57 311.078 1420.57V1420.57C291.776 1420.57 291.096 1402.47 291.078 1400.57Z" fill="#F9F4FC"/>
<path d="M336.258 1400.57C336.24 1402.47 335.56 1420.57 316.258 1420.57V1420.57C335.56 1420.57 336.24 1438.68 336.258 1440.57C336.276 1438.68 336.955 1420.57 356.258 1420.57V1420.57C336.955 1420.57 336.276 1402.47 336.258 1400.57Z" fill="#F9F4FC"/>
<path d="M381.438 1400.57C381.419 1402.47 380.74 1420.57 361.438 1420.57V1420.57C380.74 1420.57 381.419 1438.68 381.438 1440.57C381.456 1438.68 382.135 1420.57 401.438 1420.57V1420.57C382.135 1420.57 381.456 1402.47 381.438 1400.57Z" fill="#F9F4FC"/>
<path d="M426.617 1400.57C426.599 1402.47 425.92 1420.57 406.617 1420.57V1420.57C425.92 1420.57 426.599 1438.68 426.617 1440.57C426.635 1438.68 427.315 1420.57 446.617 1420.57V1420.57C427.315 1420.57 426.635 1402.47 426.617 1400.57Z" fill="#F9F4FC"/>
<path d="M20.0001 1445.75C19.9819 1447.65 19.3025 1465.75 0 1465.75V1465.75C19.3025 1465.75 19.9819 1483.86 20.0001 1485.75C20.0183 1483.86 20.6975 1465.75 40 1465.75V1465.75C20.6975 1465.75 20.0183 1447.65 20.0001 1445.75Z" fill="#F9F4FC"/>
<path d="M65.1797 1445.75C65.1615 1447.65 64.4822 1465.75 45.1797 1465.75V1465.75C64.4822 1465.75 65.1615 1483.86 65.1797 1485.75C65.198 1483.86 65.8772 1465.75 85.1797 1465.75V1465.75C65.8772 1465.75 65.198 1447.65 65.1797 1445.75Z" fill="#F9F4FC"/>
<path d="M110.359 1445.75C110.341 1447.65 109.662 1465.75 90.3594 1465.75V1465.75C109.662 1465.75 110.341 1483.86 110.359 1485.75C110.378 1483.86 111.057 1465.75 130.359 1465.75V1465.75C111.057 1465.75 110.378 1447.65 110.359 1445.75Z" fill="#F9F4FC"/>
<path d="M155.539 1445.75C155.521 1447.65 154.842 1465.75 135.539 1465.75V1465.75C154.842 1465.75 155.521 1483.86 155.539 1485.75C155.557 1483.86 156.237 1465.75 175.539 1465.75V1465.75C156.237 1465.75 155.557 1447.65 155.539 1445.75Z" fill="#F9F4FC"/>
<path d="M200.719 1445.75C200.701 1447.65 200.021 1465.75 180.719 1465.75V1465.75C200.021 1465.75 200.701 1483.86 200.719 1485.75C200.737 1483.86 201.416 1465.75 220.719 1465.75V1465.75C201.416 1465.75 200.737 1447.65 200.719 1445.75Z" fill="#F9F4FC"/>
<path d="M245.898 1445.75C245.88 1447.65 245.201 1465.75 225.898 1465.75V1465.75C245.201 1465.75 245.88 1483.86 245.898 1485.75C245.917 1483.86 246.596 1465.75 265.898 1465.75V1465.75C246.596 1465.75 245.917 1447.65 245.898 1445.75Z" fill="#F9F4FC"/>
<path d="M291.078 1445.75C291.06 1447.65 290.381 1465.75 271.078 1465.75V1465.75C290.381 1465.75 291.06 1483.86 291.078 1485.75C291.096 1483.86 291.776 1465.75 311.078 1465.75V1465.75C291.776 1465.75 291.096 1447.65 291.078 1445.75Z" fill="#F9F4FC"/>
<path d="M336.258 1445.75C336.24 1447.65 335.56 1465.75 316.258 1465.75V1465.75C335.56 1465.75 336.24 1483.86 336.258 1485.75C336.276 1483.86 336.955 1465.75 356.258 1465.75V1465.75C336.955 1465.75 336.276 1447.65 336.258 1445.75Z" fill="#F9F4FC"/>
<path d="M381.438 1445.75C381.419 1447.65 380.74 1465.75 361.438 1465.75V1465.75C380.74 1465.75 381.419 1483.86 381.438 1485.75C381.456 1483.86 382.135 1465.75 401.438 1465.75V1465.75C382.135 1465.75 381.456 1447.65 381.438 1445.75Z" fill="#F9F4FC"/>
<path d="M426.617 1445.75C426.599 1447.65 425.92 1465.75 406.617 1465.75V1465.75C425.92 1465.75 426.599 1483.86 426.617 1485.75C426.635 1483.86 427.315 1465.75 446.617 1465.75V1465.75C427.315 1465.75 426.635 1447.65 426.617 1445.75Z" fill="#F9F4FC"/>
<path d="M20.0001 1490.93C19.9819 1492.83 19.3025 1510.93 0 1510.93V1510.93C19.3025 1510.93 19.9819 1529.04 20.0001 1530.93C20.0183 1529.04 20.6975 1510.93 40 1510.93V1510.93C20.6975 1510.93 20.0183 1492.83 20.0001 1490.93Z" fill="#F9F4FC"/>
<path d="M65.1797 1490.93C65.1615 1492.83 64.4822 1510.93 45.1797 1510.93V1510.93C64.4822 1510.93 65.1615 1529.04 65.1797 1530.93C65.198 1529.04 65.8772 1510.93 85.1797 1510.93V1510.93C65.8772 1510.93 65.198 1492.83 65.1797 1490.93Z" fill="#F9F4FC"/>
<path d="M110.359 1490.93C110.341 1492.83 109.662 1510.93 90.3594 1510.93V1510.93C109.662 1510.93 110.341 1529.04 110.359 1530.93C110.378 1529.04 111.057 1510.93 130.359 1510.93V1510.93C111.057 1510.93 110.378 1492.83 110.359 1490.93Z" fill="#F9F4FC"/>
<path d="M155.539 1490.93C155.521 1492.83 154.842 1510.93 135.539 1510.93V1510.93C154.842 1510.93 155.521 1529.04 155.539 1530.93C155.557 1529.04 156.237 1510.93 175.539 1510.93V1510.93C156.237 1510.93 155.557 1492.83 155.539 1490.93Z" fill="#F9F4FC"/>
<path d="M200.719 1490.93C200.701 1492.83 200.021 1510.93 180.719 1510.93V1510.93C200.021 1510.93 200.701 1529.04 200.719 1530.93C200.737 1529.04 201.416 1510.93 220.719 1510.93V1510.93C201.416 1510.93 200.737 1492.83 200.719 1490.93Z" fill="#F9F4FC"/>
<path d="M245.898 1490.93C245.88 1492.83 245.201 1510.93 225.898 1510.93V1510.93C245.201 1510.93 245.88 1529.04 245.898 1530.93C245.917 1529.04 246.596 1510.93 265.898 1510.93V1510.93C246.596 1510.93 245.917 1492.83 245.898 1490.93Z" fill="#F9F4FC"/>
<path d="M291.078 1490.93C291.06 1492.83 290.381 1510.93 271.078 1510.93V1510.93C290.381 1510.93 291.06 1529.04 291.078 1530.93C291.096 1529.04 291.776 1510.93 311.078 1510.93V1510.93C291.776 1510.93 291.096 1492.83 291.078 1490.93Z" fill="#F9F4FC"/>
<path d="M336.258 1490.93C336.24 1492.83 335.56 1510.93 316.258 1510.93V1510.93C335.56 1510.93 336.24 1529.04 336.258 1530.93C336.276 1529.04 336.955 1510.93 356.258 1510.93V1510.93C336.955 1510.93 336.276 1492.83 336.258 1490.93Z" fill="#F9F4FC"/>
<path d="M381.438 1490.93C381.419 1492.83 380.74 1510.93 361.438 1510.93V1510.93C380.74 1510.93 381.419 1529.04 381.438 1530.93C381.456 1529.04 382.135 1510.93 401.438 1510.93V1510.93C382.135 1510.93 381.456 1492.83 381.438 1490.93Z" fill="#F9F4FC"/>
<path d="M426.617 1490.93C426.599 1492.83 425.92 1510.93 406.617 1510.93V1510.93C425.92 1510.93 426.599 1529.04 426.617 1530.93C426.635 1529.04 427.315 1510.93 446.617 1510.93V1510.93C427.315 1510.93 426.635 1492.83 426.617 1490.93Z" fill="#F9F4FC"/>
<path d="M20.0001 1536.11C19.9819 1538.01 19.3025 1556.11 0 1556.11V1556.11C19.3025 1556.11 19.9819 1574.22 20.0001 1576.11C20.0183 1574.22 20.6975 1556.11 40 1556.11V1556.11C20.6975 1556.11 20.0183 1538.01 20.0001 1536.11Z" fill="#F9F4FC"/>
<path d="M65.1797 1536.11C65.1615 1538.01 64.4822 1556.11 45.1797 1556.11V1556.11C64.4822 1556.11 65.1615 1574.22 65.1797 1576.11C65.198 1574.22 65.8772 1556.11 85.1797 1556.11V1556.11C65.8772 1556.11 65.198 1538.01 65.1797 1536.11Z" fill="#F9F4FC"/>
<path d="M110.359 1536.11C110.341 1538.01 109.662 1556.11 90.3594 1556.11V1556.11C109.662 1556.11 110.341 1574.22 110.359 1576.11C110.378 1574.22 111.057 1556.11 130.359 1556.11V1556.11C111.057 1556.11 110.378 1538.01 110.359 1536.11Z" fill="#F9F4FC"/>
<path d="M155.539 1536.11C155.521 1538.01 154.842 1556.11 135.539 1556.11V1556.11C154.842 1556.11 155.521 1574.22 155.539 1576.11C155.557 1574.22 156.237 1556.11 175.539 1556.11V1556.11C156.237 1556.11 155.557 1538.01 155.539 1536.11Z" fill="#F9F4FC"/>
<path d="M200.719 1536.11C200.701 1538.01 200.021 1556.11 180.719 1556.11V1556.11C200.021 1556.11 200.701 1574.22 200.719 1576.11C200.737 1574.22 201.416 1556.11 220.719 1556.11V1556.11C201.416 1556.11 200.737 1538.01 200.719 1536.11Z" fill="#F9F4FC"/>
<path d="M245.898 1536.11C245.88 1538.01 245.201 1556.11 225.898 1556.11V1556.11C245.201 1556.11 245.88 1574.22 245.898 1576.11C245.917 1574.22 246.596 1556.11 265.898 1556.11V1556.11C246.596 1556.11 245.917 1538.01 245.898 1536.11Z" fill="#F9F4FC"/>
<path d="M291.078 1536.11C291.06 1538.01 290.381 1556.11 271.078 1556.11V1556.11C290.381 1556.11 291.06 1574.22 291.078 1576.11C291.096 1574.22 291.776 1556.11 311.078 1556.11V1556.11C291.776 1556.11 291.096 1538.01 291.078 1536.11Z" fill="#F9F4FC"/>
<path d="M336.258 1536.11C336.24 1538.01 335.56 1556.11 316.258 1556.11V1556.11C335.56 1556.11 336.24 1574.22 336.258 1576.11C336.276 1574.22 336.955 1556.11 356.258 1556.11V1556.11C336.955 1556.11 336.276 1538.01 336.258 1536.11Z" fill="#F9F4FC"/>
<path d="M381.438 1536.11C381.419 1538.01 380.74 1556.11 361.438 1556.11V1556.11C380.74 1556.11 381.419 1574.22 381.438 1576.11C381.456 1574.22 382.135 1556.11 401.438 1556.11V1556.11C382.135 1556.11 381.456 1538.01 381.438 1536.11Z" fill="#F9F4FC"/>
<path d="M426.617 1536.11C426.599 1538.01 425.92 1556.11 406.617 1556.11V1556.11C425.92 1556.11 426.599 1574.22 426.617 1576.11C426.635 1574.22 427.315 1556.11 446.617 1556.11V1556.11C427.315 1556.11 426.635 1538.01 426.617 1536.11Z" fill="#F9F4FC"/>
<path d="M20.0001 1581.29C19.9819 1583.19 19.3025 1601.29 0 1601.29V1601.29C19.3025 1601.29 19.9819 1619.4 20.0001 1621.29C20.0183 1619.4 20.6975 1601.29 40 1601.29V1601.29C20.6975 1601.29 20.0183 1583.19 20.0001 1581.29Z" fill="#F9F4FC"/>
<path d="M65.1797 1581.29C65.1615 1583.19 64.4822 1601.29 45.1797 1601.29V1601.29C64.4822 1601.29 65.1615 1619.4 65.1797 1621.29C65.198 1619.4 65.8772 1601.29 85.1797 1601.29V1601.29C65.8772 1601.29 65.198 1583.19 65.1797 1581.29Z" fill="#F9F4FC"/>
<path d="M110.359 1581.29C110.341 1583.19 109.662 1601.29 90.3594 1601.29V1601.29C109.662 1601.29 110.341 1619.4 110.359 1621.29C110.378 1619.4 111.057 1601.29 130.359 1601.29V1601.29C111.057 1601.29 110.378 1583.19 110.359 1581.29Z" fill="#F9F4FC"/>
<path d="M155.539 1581.29C155.521 1583.19 154.842 1601.29 135.539 1601.29V1601.29C154.842 1601.29 155.521 1619.4 155.539 1621.29C155.557 1619.4 156.237 1601.29 175.539 1601.29V1601.29C156.237 1601.29 155.557 1583.19 155.539 1581.29Z" fill="#F9F4FC"/>
<path d="M200.719 1581.29C200.701 1583.19 200.021 1601.29 180.719 1601.29V1601.29C200.021 1601.29 200.701 1619.4 200.719 1621.29C200.737 1619.4 201.416 1601.29 220.719 1601.29V1601.29C201.416 1601.29 200.737 1583.19 200.719 1581.29Z" fill="#F9F4FC"/>
<path d="M245.898 1581.29C245.88 1583.19 245.201 1601.29 225.898 1601.29V1601.29C245.201 1601.29 245.88 1619.4 245.898 1621.29C245.917 1619.4 246.596 1601.29 265.898 1601.29V1601.29C246.596 1601.29 245.917 1583.19 245.898 1581.29Z" fill="#F9F4FC"/>
<path d="M291.078 1581.29C291.06 1583.19 290.381 1601.29 271.078 1601.29V1601.29C290.381 1601.29 291.06 1619.4 291.078 1621.29C291.096 1619.4 291.776 1601.29 311.078 1601.29V1601.29C291.776 1601.29 291.096 1583.19 291.078 1581.29Z" fill="#F9F4FC"/>
<path d="M336.258 1581.29C336.24 1583.19 335.56 1601.29 316.258 1601.29V1601.29C335.56 1601.29 336.24 1619.4 336.258 1621.29C336.276 1619.4 336.955 1601.29 356.258 1601.29V1601.29C336.955 1601.29 336.276 1583.19 336.258 1581.29Z" fill="#F9F4FC"/>
<path d="M381.438 1581.29C381.419 1583.19 380.74 1601.29 361.438 1601.29V1601.29C380.74 1601.29 381.419 1619.4 381.438 1621.29C381.456 1619.4 382.135 1601.29 401.438 1601.29V1601.29C382.135 1601.29 381.456 1583.19 381.438 1581.29Z" fill="#F9F4FC"/>
<path d="M426.617 1581.29C426.599 1583.19 425.92 1601.29 406.617 1601.29V1601.29C425.92 1601.29 426.599 1619.4 426.617 1621.29C426.635 1619.4 427.315 1601.29 446.617 1601.29V1601.29C427.315 1601.29 426.635 1583.19 426.617 1581.29Z" fill="#F9F4FC"/>
<path d="M20.0001 1626.47C19.9819 1628.37 19.3025 1646.47 0 1646.47V1646.47C19.3025 1646.47 19.9819 1664.58 20.0001 1666.47C20.0183 1664.58 20.6975 1646.47 40 1646.47V1646.47C20.6975 1646.47 20.0183 1628.37 20.0001 1626.47Z" fill="#F9F4FC"/>
<path d="M65.1797 1626.47C65.1615 1628.37 64.4822 1646.47 45.1797 1646.47V1646.47C64.4822 1646.47 65.1615 1664.58 65.1797 1666.47C65.198 1664.58 65.8772 1646.47 85.1797 1646.47V1646.47C65.8772 1646.47 65.198 1628.37 65.1797 1626.47Z" fill="#F9F4FC"/>
<path d="M110.359 1626.47C110.341 1628.37 109.662 1646.47 90.3594 1646.47V1646.47C109.662 1646.47 110.341 1664.58 110.359 1666.47C110.378 1664.58 111.057 1646.47 130.359 1646.47V1646.47C111.057 1646.47 110.378 1628.37 110.359 1626.47Z" fill="#F9F4FC"/>
<path d="M155.539 1626.47C155.521 1628.37 154.842 1646.47 135.539 1646.47V1646.47C154.842 1646.47 155.521 1664.58 155.539 1666.47C155.557 1664.58 156.237 1646.47 175.539 1646.47V1646.47C156.237 1646.47 155.557 1628.37 155.539 1626.47Z" fill="#F9F4FC"/>
<path d="M200.719 1626.47C200.701 1628.37 200.021 1646.47 180.719 1646.47V1646.47C200.021 1646.47 200.701 1664.58 200.719 1666.47C200.737 1664.58 201.416 1646.47 220.719 1646.47V1646.47C201.416 1646.47 200.737 1628.37 200.719 1626.47Z" fill="#F9F4FC"/>
<path d="M245.898 1626.47C245.88 1628.37 245.201 1646.47 225.898 1646.47V1646.47C245.201 1646.47 245.88 1664.58 245.898 1666.47C245.917 1664.58 246.596 1646.47 265.898 1646.47V1646.47C246.596 1646.47 245.917 1628.37 245.898 1626.47Z" fill="#F9F4FC"/>
<path d="M291.078 1626.47C291.06 1628.37 290.381 1646.47 271.078 1646.47V1646.47C290.381 1646.47 291.06 1664.58 291.078 1666.47C291.096 1664.58 291.776 1646.47 311.078 1646.47V1646.47C291.776 1646.47 291.096 1628.37 291.078 1626.47Z" fill="#F9F4FC"/>
<path d="M336.258 1626.47C336.24 1628.37 335.56 1646.47 316.258 1646.47V1646.47C335.56 1646.47 336.24 1664.58 336.258 1666.47C336.276 1664.58 336.955 1646.47 356.258 1646.47V1646.47C336.955 1646.47 336.276 1628.37 336.258 1626.47Z" fill="#F9F4FC"/>
<path d="M381.438 1626.47C381.419 1628.37 380.74 1646.47 361.438 1646.47V1646.47C380.74 1646.47 381.419 1664.58 381.438 1666.47C381.456 1664.58 382.135 1646.47 401.438 1646.47V1646.47C382.135 1646.47 381.456 1628.37 381.438 1626.47Z" fill="#F9F4FC"/>
<path d="M426.617 1626.47C426.599 1628.37 425.92 1646.47 406.617 1646.47V1646.47C425.92 1646.47 426.599 1664.58 426.617 1666.47C426.635 1664.58 427.315 1646.47 446.617 1646.47V1646.47C427.315 1646.47 426.635 1628.37 426.617 1626.47Z" fill="#F9F4FC"/>
</svg>
