<svg width="447" height="3354" viewBox="0 0 447 3354" fill="none" xmlns="http://www.w3.org/2000/svg">
<rect x="41" width="365" height="3354" fill="#CDBFF5"/>
<path d="M20.0001 3334C19.9819 3335.89 19.3025 3354 0 3354V3354C19.3025 3354 19.9819 3372.11 20.0001 3374C20.0183 3372.11 20.6975 3354 40 3354V3354C20.6975 3354 20.0183 3335.89 20.0001 3334Z" fill="#F9F4FC"/>
<path d="M65.1797 3334C65.1615 3335.89 64.4822 3354 45.1797 3354V3354C64.4822 3354 65.1615 3372.11 65.1797 3374C65.198 3372.11 65.8772 3354 85.1797 3354V3354C65.8772 3354 65.198 3335.89 65.1797 3334Z" fill="#F9F4FC"/>
<path d="M110.359 3334C110.341 3335.89 109.662 3354 90.3594 3354V3354C109.662 3354 110.341 3372.11 110.359 3374C110.378 3372.11 111.057 3354 130.359 3354V3354C111.057 3354 110.378 3335.89 110.359 3334Z" fill="#F9F4FC"/>
<path d="M155.539 3334C155.521 3335.89 154.842 3354 135.539 3354V3354C154.842 3354 155.521 3372.11 155.539 3374C155.557 3372.11 156.237 3354 175.539 3354V3354C156.237 3354 155.557 3335.89 155.539 3334Z" fill="#F9F4FC"/>
<path d="M200.719 3334C200.701 3335.89 200.021 3354 180.719 3354V3354C200.021 3354 200.701 3372.11 200.719 3374C200.737 3372.11 201.416 3354 220.719 3354V3354C201.416 3354 200.737 3335.89 200.719 3334Z" fill="#F9F4FC"/>
<path d="M245.898 3334C245.88 3335.89 245.201 3354 225.898 3354V3354C245.201 3354 245.88 3372.11 245.898 3374C245.917 3372.11 246.596 3354 265.898 3354V3354C246.596 3354 245.917 3335.89 245.898 3334Z" fill="#F9F4FC"/>
<path d="M291.078 3334C291.06 3335.89 290.381 3354 271.078 3354V3354C290.381 3354 291.06 3372.11 291.078 3374C291.096 3372.11 291.776 3354 311.078 3354V3354C291.776 3354 291.096 3335.89 291.078 3334Z" fill="#F9F4FC"/>
<path d="M336.258 3334C336.24 3335.89 335.56 3354 316.258 3354V3354C335.56 3354 336.24 3372.11 336.258 3374C336.276 3372.11 336.955 3354 356.258 3354V3354C336.955 3354 336.276 3335.89 336.258 3334Z" fill="#F9F4FC"/>
<path d="M381.438 3334C381.419 3335.89 380.74 3354 361.438 3354V3354C380.74 3354 381.419 3372.11 381.438 3374C381.456 3372.11 382.135 3354 401.438 3354V3354C382.135 3354 381.456 3335.89 381.438 3334Z" fill="#F9F4FC"/>
<path d="M426.617 3334C426.599 3335.89 425.92 3354 406.617 3354V3354C425.92 3354 426.599 3372.11 426.617 3374C426.635 3372.11 427.315 3354 446.617 3354V3354C427.315 3354 426.635 3335.89 426.617 3334Z" fill="#F9F4FC"/>
</svg>
