<svg width="361" height="294" viewBox="0 0 361 294" fill="none" xmlns="http://www.w3.org/2000/svg">
<path d="M49.7518 0C49.6931 6.1334 47.5026 64.7545 -14.7324 64.7545V64.7623C47.5026 64.7623 49.6931 123.383 49.7518 129.517C49.8105 123.383 52.0005 64.7623 114.236 64.7623V64.7545C52.0005 64.7545 49.8105 6.1334 49.7518 0Z" fill="white"/>
<g filter="url(#filter0_d_97_274)">
<path d="M66.3926 2.74399C66.3926 1.22852 67.6211 0 69.1366 0H264.445C265.96 0 267.189 1.22853 267.189 2.744V268.083C267.189 269.598 265.96 270.827 264.445 270.827H69.1366C67.6211 270.827 66.3926 269.598 66.3926 268.083V2.74399Z" fill="#F4F4F4"/>
<path d="M69.1366 0.8232H264.445C265.506 0.8232 266.365 1.68317 266.365 2.744V268.083C266.365 269.144 265.506 270.004 264.445 270.004H69.1366C68.0758 270.004 67.2158 269.144 67.2158 268.083V2.74399C67.2158 1.68316 68.0757 0.8232 69.1366 0.8232Z" stroke="#101010" stroke-width="1.6464"/>
</g>
<g filter="url(#filter1_d_97_274)">
<rect x="114.234" y="31.2817" width="181.104" height="43.904" rx="2.744" fill="#FFDCDC"/>
<rect x="115.058" y="32.1049" width="179.458" height="42.2576" rx="1.9208" stroke="#101010" stroke-width="1.6464"/>
</g>
<g filter="url(#filter2_d_97_274)">
<rect x="16" y="199.763" width="150.907" height="44.0016" rx="2.744" fill="#C1F4F8"/>
<rect x="16.8232" y="200.586" width="149.261" height="42.3552" rx="1.9208" stroke="#101010" stroke-width="1.6464"/>
</g>
<g filter="url(#filter3_d_97_274)">
<rect x="175.152" y="104.821" width="183.848" height="75.1856" rx="2.744" fill="#F3D4AF"/>
<rect x="175.976" y="105.644" width="182.202" height="73.5392" rx="1.9208" stroke="#101010" stroke-width="1.6464"/>
</g>
<path d="M247.594 205.8C247.554 209.958 246.062 249.701 203.689 249.701V249.706C246.062 249.706 247.554 289.45 247.594 293.608C247.634 289.45 249.125 249.706 291.497 249.706V249.701C249.125 249.701 247.634 209.958 247.594 205.8Z" fill="#FFCA62"/>
<g filter="url(#filter4_d_97_274)">
<path fill-rule="evenodd" clip-rule="evenodd" d="M135.927 124.843L144.152 144.393C144.506 145.234 145.699 145.232 146.05 144.39L147.936 139.869L152.183 144.117C153.389 145.322 155.343 145.322 156.549 144.117C157.754 142.911 157.754 140.956 156.549 139.751L152.302 135.504L156.822 133.618C157.664 133.267 157.666 132.074 156.825 131.72L137.275 123.495C136.425 123.137 135.57 123.993 135.927 124.843Z" fill="#12131A"/>
</g>
<path fill-rule="evenodd" clip-rule="evenodd" d="M147.219 136.242L153.638 142.661C154.04 143.063 154.692 143.063 155.093 142.661C155.495 142.259 155.495 141.608 155.093 141.206L148.674 134.787L153.762 132.664L138.803 126.371L145.097 141.33L147.219 136.242ZM156.822 133.618C157.664 133.267 157.666 132.074 156.825 131.72L137.275 123.495C136.425 123.137 135.57 123.993 135.927 124.843L144.152 144.393C144.506 145.234 145.699 145.232 146.05 144.39L147.936 139.869L152.183 144.117C153.389 145.322 155.343 145.322 156.549 144.117C157.754 142.911 157.754 140.956 156.549 139.751L152.302 135.504L156.822 133.618Z" fill="white"/>
<defs>
<filter id="filter0_d_97_274" x="66.3926" y="0" width="202.443" height="272.473" filterUnits="userSpaceOnUse" color-interpolation-filters="sRGB">
<feFlood flood-opacity="0" result="BackgroundImageFix"/>
<feColorMatrix in="SourceAlpha" type="matrix" values="0 0 0 0 0 0 0 0 0 0 0 0 0 0 0 0 0 0 127 0" result="hardAlpha"/>
<feOffset dx="1.6464" dy="1.6464"/>
<feComposite in2="hardAlpha" operator="out"/>
<feColorMatrix type="matrix" values="0 0 0 0 0.0627451 0 0 0 0 0.0627451 0 0 0 0 0.0627451 0 0 0 1 0"/>
<feBlend mode="normal" in2="BackgroundImageFix" result="effect1_dropShadow_97_274"/>
<feBlend mode="normal" in="SourceGraphic" in2="effect1_dropShadow_97_274" result="shape"/>
</filter>
<filter id="filter1_d_97_274" x="114.234" y="31.2817" width="182.75" height="45.5502" filterUnits="userSpaceOnUse" color-interpolation-filters="sRGB">
<feFlood flood-opacity="0" result="BackgroundImageFix"/>
<feColorMatrix in="SourceAlpha" type="matrix" values="0 0 0 0 0 0 0 0 0 0 0 0 0 0 0 0 0 0 127 0" result="hardAlpha"/>
<feOffset dx="1.6464" dy="1.6464"/>
<feComposite in2="hardAlpha" operator="out"/>
<feColorMatrix type="matrix" values="0 0 0 0 0.0627451 0 0 0 0 0.0627451 0 0 0 0 0.0627451 0 0 0 1 0"/>
<feBlend mode="normal" in2="BackgroundImageFix" result="effect1_dropShadow_97_274"/>
<feBlend mode="normal" in="SourceGraphic" in2="effect1_dropShadow_97_274" result="shape"/>
</filter>
<filter id="filter2_d_97_274" x="16" y="199.763" width="152.553" height="45.6479" filterUnits="userSpaceOnUse" color-interpolation-filters="sRGB">
<feFlood flood-opacity="0" result="BackgroundImageFix"/>
<feColorMatrix in="SourceAlpha" type="matrix" values="0 0 0 0 0 0 0 0 0 0 0 0 0 0 0 0 0 0 127 0" result="hardAlpha"/>
<feOffset dx="1.6464" dy="1.6464"/>
<feComposite in2="hardAlpha" operator="out"/>
<feColorMatrix type="matrix" values="0 0 0 0 0.0627451 0 0 0 0 0.0627451 0 0 0 0 0.0627451 0 0 0 1 0"/>
<feBlend mode="normal" in2="BackgroundImageFix" result="effect1_dropShadow_97_274"/>
<feBlend mode="normal" in="SourceGraphic" in2="effect1_dropShadow_97_274" result="shape"/>
</filter>
<filter id="filter3_d_97_274" x="175.152" y="104.821" width="185.494" height="76.8319" filterUnits="userSpaceOnUse" color-interpolation-filters="sRGB">
<feFlood flood-opacity="0" result="BackgroundImageFix"/>
<feColorMatrix in="SourceAlpha" type="matrix" values="0 0 0 0 0 0 0 0 0 0 0 0 0 0 0 0 0 0 127 0" result="hardAlpha"/>
<feOffset dx="1.6464" dy="1.6464"/>
<feComposite in2="hardAlpha" operator="out"/>
<feColorMatrix type="matrix" values="0 0 0 0 0.0627451 0 0 0 0 0.0627451 0 0 0 0 0.0627451 0 0 0 1 0"/>
<feBlend mode="normal" in2="BackgroundImageFix" result="effect1_dropShadow_97_274"/>
<feBlend mode="normal" in="SourceGraphic" in2="effect1_dropShadow_97_274" result="shape"/>
</filter>
<filter id="filter4_d_97_274" x="132.757" y="121.868" width="27.7853" height="27.7848" filterUnits="userSpaceOnUse" color-interpolation-filters="sRGB">
<feFlood flood-opacity="0" result="BackgroundImageFix"/>
<feColorMatrix in="SourceAlpha" type="matrix" values="0 0 0 0 0 0 0 0 0 0 0 0 0 0 0 0 0 0 127 0" result="hardAlpha"/>
<feOffset dy="1.5435"/>
<feGaussianBlur stdDeviation="1.5435"/>
<feComposite in2="hardAlpha" operator="out"/>
<feColorMatrix type="matrix" values="0 0 0 0 0.0705882 0 0 0 0 0.0745098 0 0 0 0 0.101961 0 0 0 0.25 0"/>
<feBlend mode="normal" in2="BackgroundImageFix" result="effect1_dropShadow_97_274"/>
<feBlend mode="normal" in="SourceGraphic" in2="effect1_dropShadow_97_274" result="shape"/>
</filter>
</defs>
</svg>
