<svg width="1440" height="900" viewBox="0 0 1440 900" fill="none" xmlns="http://www.w3.org/2000/svg">
<g clip-path="url(#clip0_141_9343)">
<rect width="1440" height="900" fill="#CDBFF5"/>
<path d="M90.0002 820C89.9274 827.577 87.2099 899.995 10 899.995V900.005C87.2099 900.005 89.9274 972.423 90.0002 980C90.0731 972.423 92.7901 900.005 170 900.005V899.995C92.7901 899.995 90.0731 827.577 90.0002 820Z" fill="#F9F4FC"/>
<path d="M270 820C269.927 827.577 267.21 899.995 190 899.995V900.005C267.21 900.005 269.927 972.423 270 980C270.073 972.423 272.79 900.005 350 900.005V899.995C272.79 899.995 270.073 827.577 270 820Z" fill="#F9F4FC"/>
<path d="M450 820C449.927 827.577 447.21 899.995 370 899.995V900.005C447.21 900.005 449.927 972.423 450 980C450.073 972.423 452.79 900.005 530 900.005V899.995C452.79 899.995 450.073 827.577 450 820Z" fill="#F9F4FC"/>
<path d="M630 820C629.927 827.577 627.21 899.995 550 899.995V900.005C627.21 900.005 629.927 972.423 630 980C630.073 972.423 632.79 900.005 710 900.005V899.995C632.79 899.995 630.073 827.577 630 820Z" fill="#F9F4FC"/>
<path d="M810 820C809.927 827.577 807.21 899.995 730 899.995V900.005C807.21 900.005 809.927 972.423 810 980C810.073 972.423 812.79 900.005 890 900.005V899.995C812.79 899.995 810.073 827.577 810 820Z" fill="#F9F4FC"/>
<path d="M990 820C989.927 827.577 987.21 899.995 910 899.995V900.005C987.21 900.005 989.927 972.423 990 980C990.073 972.423 992.79 900.005 1070 900.005V899.995C992.79 899.995 990.073 827.577 990 820Z" fill="#F9F4FC"/>
<path d="M1170 820C1169.93 827.577 1167.21 899.995 1090 899.995V900.005C1167.21 900.005 1169.93 972.423 1170 980C1170.07 972.423 1172.79 900.005 1250 900.005V899.995C1172.79 899.995 1170.07 827.577 1170 820Z" fill="#F9F4FC"/>
<path d="M1350 820C1349.93 827.577 1347.21 899.995 1270 899.995V900.005C1347.21 900.005 1349.93 972.423 1350 980C1350.07 972.423 1352.79 900.005 1430 900.005V899.995C1352.79 899.995 1350.07 827.577 1350 820Z" fill="#F9F4FC"/>
</g>
<defs>
<clipPath id="clip0_141_9343">
<rect width="1440" height="900" fill="white"/>
</clipPath>
</defs>
</svg>
