<svg width="24" height="24" viewBox="0 0 24 24" fill="none" xmlns="http://www.w3.org/2000/svg">
<g clip-path="url(#clip0_714_603)">
<mask id="mask0_714_603" style="mask-type:luminance" maskUnits="userSpaceOnUse" x="0" y="0" width="24" height="24">
<path d="M24 0H0V24H24V0Z" fill="white"/>
</mask>
<g mask="url(#mask0_714_603)">
<path d="M22 4.01001C21 4.50001 20.02 4.69901 19 5.00001C17.879 3.73501 16.217 3.66501 14.62 4.26301C13.023 4.86101 11.977 6.32301 12 8.00001V9.00001C8.755 9.08301 5.865 7.60501 4 5.00001C4 5.00001 -0.182 12.433 8 16C6.128 17.247 4.261 18.088 2 18C5.308 19.803 8.913 20.423 12.034 19.517C15.614 18.477 18.556 15.794 19.685 11.775C20.0218 10.5527 20.189 9.28987 20.182 8.02201C20.18 7.77301 21.692 5.25101 22 4.01001Z" fill="#F99090"/>
<path fill-rule="evenodd" clip-rule="evenodd" d="M19.2186 4.15736C17.8338 2.91567 15.9714 2.95611 14.357 3.56064C12.4823 4.26261 11.2247 5.99583 11.25 8.00491V8.24027C8.55855 8.09657 6.19107 6.77213 4.60978 4.56342C4.46054 4.35496 4.21515 4.23717 3.95916 4.25112C3.70316 4.26507 3.47202 4.40881 3.34631 4.63225L3.99996 5.00001C3.34631 4.63225 3.34653 4.63186 3.34631 4.63225L3.34537 4.63393L3.34405 4.63629L3.34029 4.64307L3.32847 4.66473C3.31874 4.68272 3.30539 4.70779 3.28894 4.73957C3.25604 4.80312 3.21066 4.89369 3.15694 5.00848C3.04964 5.23778 2.90832 5.56536 2.76671 5.9687C2.48496 6.77122 2.19417 7.89595 2.18174 9.15498C2.16926 10.4198 2.43821 11.8326 3.28944 13.1775C3.96554 14.2457 4.98677 15.236 6.45716 16.0693C5.04425 16.8587 3.63906 17.3132 2.02913 17.2506C1.68106 17.237 1.36948 17.4649 1.27692 17.8007C1.18436 18.1365 1.33518 18.4918 1.64103 18.6585C5.07547 20.5305 8.88581 21.2119 12.2431 20.2373C16.0582 19.1291 19.2042 16.2598 20.407 11.9778L20.408 11.9742C20.7528 10.7229 20.929 9.43141 20.9322 8.13385C20.9327 8.13262 20.9332 8.13138 20.9338 8.13012C20.9672 8.05386 21.0199 7.94462 21.092 7.80135C21.171 7.64416 21.2611 7.46988 21.361 7.27653C21.4478 7.1085 21.5421 6.92608 21.643 6.72798C22.0447 5.93954 22.5386 4.93142 22.7221 4.2127C22.7404 4.14767 22.75 4.07958 22.75 4.01001C22.75 3.63099 22.4672 3.31054 22.091 3.26455C21.9294 3.2448 21.7725 3.27814 21.6387 3.35174C20.9611 3.67958 20.3145 3.85666 19.5832 4.05693C19.4641 4.08954 19.3427 4.12277 19.2186 4.15736ZM20.6729 5.30924C20.4054 5.38875 20.1423 5.46058 19.8865 5.53044C19.6551 5.59362 19.4297 5.65518 19.2123 5.71934C18.9332 5.8017 18.6317 5.7152 18.4387 5.49743C17.6054 4.55714 16.3252 4.42534 14.883 4.96538C13.5653 5.45878 12.7315 6.64709 12.7499 7.98972L12.75 8.00001V9.00001C12.75 9.40675 12.4258 9.73936 12.0192 9.74976C8.95842 9.82805 6.18446 8.61365 4.19421 6.43108C4.19015 6.44251 4.18608 6.45402 4.18202 6.4656C3.93533 7.16824 3.69199 8.12469 3.68167 9.16979C3.67141 10.2091 3.89108 11.3233 4.55691 12.3753C5.22166 13.4256 6.36636 14.4697 8.29968 15.3125C8.55126 15.4222 8.72285 15.6605 8.74704 15.9339C8.77123 16.2073 8.64417 16.472 8.41575 16.6242C7.25676 17.3962 6.06461 18.0412 4.75996 18.4131C7.19827 19.267 9.65688 19.4261 11.8248 18.7968C15.1692 17.8252 17.9069 15.329 18.9624 11.5741C19.2806 10.4185 19.4386 9.22472 19.432 8.02616L20.182 8.02201L19.432 8.02803C19.4308 7.87743 19.4747 7.74897 19.4876 7.71108L19.4886 7.70805C19.5095 7.64669 19.5353 7.58425 19.56 7.52785C19.6101 7.41362 19.6776 7.27521 19.7518 7.12754C19.8309 6.97028 19.9296 6.77923 20.0353 6.57456C20.1232 6.40428 20.216 6.22457 20.3065 6.04704C20.4323 5.80005 20.5567 5.551 20.6729 5.30924Z" fill="#F99090"/>
</g>
</g>
<defs>
<clipPath id="clip0_714_603">
<rect width="24" height="24" fill="white"/>
</clipPath>
</defs>
</svg>
