<svg width="24" height="24" viewBox="0 0 24 24" fill="none" xmlns="http://www.w3.org/2000/svg">
<g clip-path="url(#clip0_647_6119)">
<path d="M22 4.01001C21 4.50001 20.02 4.69901 19 5.00001C17.879 3.73501 16.217 3.66501 14.62 4.26301C13.023 4.86101 11.977 6.32301 12 8.00001V9.00001C8.755 9.08301 5.865 7.60501 4 5.00001C4 5.00001 -0.182 12.433 8 16C6.128 17.247 4.261 18.088 2 18C5.308 19.803 8.913 20.423 12.034 19.517C15.614 18.477 18.556 15.794 19.685 11.775C20.0218 10.5527 20.189 9.28987 20.182 8.02201C20.18 7.77301 21.692 5.25001 22 4.00901V4.01001Z" fill="#101010"/>
<path fill-rule="evenodd" clip-rule="evenodd" d="M19.2186 4.15736C17.8338 2.91567 15.9714 2.95611 14.357 3.56064C12.4823 4.26261 11.2247 5.99583 11.25 8.00491V8.24027C8.55858 8.09657 6.1911 6.77213 4.60981 4.56342C4.46057 4.35496 4.21518 4.23717 3.95919 4.25112C3.70319 4.26507 3.47205 4.40881 3.34634 4.63225L3.99999 5.00001C3.34634 4.63225 3.34614 4.63261 3.34592 4.633L3.3454 4.63393L3.34408 4.63629L3.34032 4.64307L3.3285 4.66473C3.31877 4.68272 3.30542 4.70779 3.28897 4.73957C3.25607 4.80312 3.21069 4.89369 3.15697 5.00848C3.04967 5.23778 2.90835 5.56536 2.76674 5.9687C2.48499 6.77122 2.1942 7.89595 2.18177 9.15498C2.16929 10.4198 2.43824 11.8326 3.28947 13.1775C3.96557 14.2457 4.9868 15.236 6.45719 16.0693C5.04428 16.8587 3.63909 17.3132 2.02916 17.2506C1.68109 17.237 1.36951 17.4649 1.27695 17.8007C1.18439 18.1365 1.33521 18.4918 1.64106 18.6585C5.0755 20.5305 8.88584 21.2119 12.2431 20.2373L12.2432 20.2372C16.0583 19.129 19.2042 16.2598 20.407 11.9778L20.408 11.9742C20.7528 10.7229 20.929 9.43141 20.9322 8.13385C20.9327 8.13262 20.9332 8.13138 20.9338 8.13012C20.9672 8.05386 21.0199 7.94462 21.092 7.80135C21.171 7.64416 21.2611 7.46988 21.361 7.27653C21.4478 7.1085 21.5421 6.92608 21.643 6.72798C22.0447 5.93954 22.5386 4.93142 22.7221 4.2127C22.7404 4.14767 22.75 4.07958 22.75 4.01001V4.00901C22.75 3.62999 22.4672 3.31054 22.091 3.26455C21.9294 3.2448 21.7725 3.27814 21.6387 3.35174C20.9611 3.67958 20.3145 3.85666 19.5832 4.05693C19.4641 4.08954 19.3427 4.12277 19.2186 4.15736ZM20.6729 5.30924C20.4054 5.38875 20.1423 5.46058 19.8865 5.53044C19.6551 5.59362 19.4297 5.65518 19.2123 5.71934C18.9332 5.8017 18.6317 5.7152 18.4387 5.49743C17.6054 4.55714 16.3252 4.42534 14.883 4.96538C13.5653 5.45878 12.7315 6.64709 12.7499 7.98972L12.75 8.00001V9.00001C12.75 9.40675 12.4258 9.73936 12.0192 9.74976C8.95845 9.82805 6.18449 8.61365 4.19424 6.43108C4.19018 6.44251 4.18611 6.45402 4.18205 6.4656C3.93536 7.16824 3.69202 8.12469 3.6817 9.16979C3.67144 10.2091 3.89111 11.3233 4.55694 12.3753C5.22169 13.4256 6.36639 14.4697 8.29971 15.3125C8.55129 15.4222 8.72288 15.6605 8.74707 15.9339C8.77126 16.2073 8.6442 16.472 8.41578 16.6242C7.25679 17.3962 6.06464 18.0412 4.75999 18.4131C7.1983 19.267 9.65691 19.4261 11.8248 18.7968C15.1692 17.8252 17.9069 15.329 18.9624 11.5741C19.2806 10.4185 19.4386 9.22472 19.432 8.02616L20.182 8.02201L19.432 8.02803C19.4308 7.87743 19.4747 7.74897 19.4876 7.71108L19.4886 7.70805C19.5095 7.64669 19.5353 7.58425 19.56 7.52785C19.6101 7.41362 19.6776 7.27521 19.7518 7.12754C19.8309 6.97028 19.9296 6.77923 20.0353 6.57456C20.1232 6.40428 20.216 6.22457 20.3065 6.04704C20.4323 5.80005 20.5567 5.551 20.6729 5.30924Z" fill="#101010"/>
</g>
<defs>
<clipPath id="clip0_647_6119">
<rect width="24" height="24" fill="white"/>
</clipPath>
</defs>
</svg>
