<svg width="20" height="20" viewBox="0 0 20 20" fill="none" xmlns="http://www.w3.org/2000/svg">
<path d="M14.5714 0.857178H5.42858C2.90385 0.857178 0.857147 2.90388 0.857147 5.42861V14.5715C0.857147 17.0962 2.90385 19.1429 5.42858 19.1429H14.5714C17.0962 19.1429 19.1429 17.0962 19.1429 14.5715V5.42861C19.1429 2.90388 17.0962 0.857178 14.5714 0.857178Z" fill="#101010"/>
<path fill-rule="evenodd" clip-rule="evenodd" d="M5.42857 1.71429C3.37723 1.71429 1.71429 3.37723 1.71429 5.42857V14.5714C1.71429 16.6228 3.37723 18.2857 5.42857 18.2857H14.5714C16.6228 18.2857 18.2857 16.6228 18.2857 14.5714V5.42857C18.2857 3.37723 16.6228 1.71429 14.5714 1.71429H5.42857ZM0 5.42857C0 2.43045 2.43045 0 5.42857 0H14.5714C17.5695 0 20 2.43045 20 5.42857V14.5714C20 17.5695 17.5695 20 14.5714 20H5.42857C2.43045 20 0 17.5695 0 14.5714V5.42857Z" fill="#101010"/>
<path fill-rule="evenodd" clip-rule="evenodd" d="M9.99958 7.42889C8.57942 7.42889 7.42815 8.58015 7.42815 10.0003C7.42815 11.4205 8.57942 12.5717 9.99958 12.5717C11.4197 12.5717 12.571 11.4205 12.571 10.0003C12.571 8.58015 11.4197 7.42889 9.99958 7.42889ZM5.71387 10.0003C5.71387 7.63338 7.63265 5.7146 9.99958 5.7146C12.3665 5.7146 14.2853 7.63338 14.2853 10.0003C14.2853 12.3672 12.3665 14.286 9.99958 14.286C7.63265 14.286 5.71387 12.3672 5.71387 10.0003Z" fill="white"/>
<path fill-rule="evenodd" clip-rule="evenodd" d="M15.1425 4.00024C15.6158 4.00024 15.9996 4.384 15.9996 4.85739V4.85801C15.9996 5.3314 15.6158 5.71515 15.1425 5.71515C14.6691 5.71515 14.2853 5.3314 14.2853 4.85801V4.85739C14.2853 4.384 14.6691 4.00024 15.1425 4.00024Z" fill="white"/>
</svg>
