<svg width="28" height="28" viewBox="0 0 28 28" fill="none" xmlns="http://www.w3.org/2000/svg">
<g clip-path="url(#clip0_714_592)">
<mask id="mask0_714_592" style="mask-type:luminance" maskUnits="userSpaceOnUse" x="0" y="0" width="28" height="28">
<path d="M28 0H0V28H28V0Z" fill="white"/>
</mask>
<g mask="url(#mask0_714_592)">
<path d="M20.9994 4.66675H6.99935C5.71068 4.66675 4.66602 5.71142 4.66602 7.00008V21.0001C4.66602 22.2887 5.71068 23.3334 6.99935 23.3334H20.9994C22.288 23.3334 23.3327 22.2887 23.3327 21.0001V7.00008C23.3327 5.71142 22.288 4.66675 20.9994 4.66675Z" fill="#F99090"/>
<path fill-rule="evenodd" clip-rule="evenodd" d="M6.93387 5.50628C6.14489 5.50628 5.5053 6.14587 5.5053 6.93485V20.6491C5.5053 21.4381 6.14489 22.0777 6.93387 22.0777H20.6482C21.4371 22.0777 22.0767 21.4381 22.0767 20.6491V6.93485C22.0767 6.14587 21.4371 5.50628 20.6482 5.50628H6.93387ZM3.79102 6.93485C3.79102 5.1991 5.19812 3.79199 6.93387 3.79199H20.6482C22.3839 3.79199 23.791 5.1991 23.791 6.93485V20.6491C23.791 22.3849 22.3839 23.792 20.6482 23.792H6.93387C5.19812 23.792 3.79102 22.3849 3.79102 20.6491V6.93485Z" fill="#F99090"/>
<path fill-rule="evenodd" clip-rule="evenodd" d="M9.22042 11.7913C9.69381 11.7913 10.0776 12.175 10.0776 12.6484V18.3627C10.0776 18.8361 9.69381 19.2198 9.22042 19.2198C8.74704 19.2198 8.36328 18.8361 8.36328 18.3627V12.6484C8.36328 12.175 8.74704 11.7913 9.22042 11.7913Z" fill="#F8EEFA"/>
<path fill-rule="evenodd" clip-rule="evenodd" d="M9.22042 8.36279C9.69381 8.36279 10.0776 8.74655 10.0776 9.21994V9.23136C10.0776 9.70475 9.69381 10.0885 9.22042 10.0885C8.74704 10.0885 8.36328 9.70475 8.36328 9.23136V9.21994C8.36328 8.74655 8.74704 8.36279 9.22042 8.36279Z" fill="#F8EEFA"/>
<path fill-rule="evenodd" clip-rule="evenodd" d="M13.7907 11.7913C14.2641 11.7913 14.6479 12.175 14.6479 12.6484V18.3627C14.6479 18.8361 14.2641 19.2198 13.7907 19.2198C13.3173 19.2198 12.9336 18.8361 12.9336 18.3627V12.6484C12.9336 12.175 13.3173 11.7913 13.7907 11.7913Z" fill="#F8EEFA"/>
<path fill-rule="evenodd" clip-rule="evenodd" d="M13.8541 12.7118C14.4435 12.1224 15.2429 11.7913 16.0765 11.7913C16.91 11.7913 17.7094 12.1224 18.2988 12.7118C18.8882 13.3012 19.2193 14.1006 19.2193 14.9341V18.3627C19.2193 18.8361 18.8356 19.2198 18.3622 19.2198C17.8888 19.2198 17.505 18.8361 17.505 18.3627V14.9341C17.505 14.5552 17.3545 14.1919 17.0866 13.924C16.8187 13.6561 16.4553 13.5055 16.0765 13.5055C15.6976 13.5055 15.3342 13.6561 15.0663 13.924C14.7984 14.1919 14.6479 14.5552 14.6479 14.9341C14.6479 15.4075 14.2641 15.7913 13.7907 15.7913C13.3173 15.7913 12.9336 15.4075 12.9336 14.9341C12.9336 14.1006 13.2647 13.3012 13.8541 12.7118Z" fill="#F8EEFA"/>
</g>
</g>
<defs>
<clipPath id="clip0_714_592">
<rect width="28" height="28" fill="white"/>
</clipPath>
</defs>
</svg>
