<svg width="25" height="24" viewBox="0 0 25 24" fill="none" xmlns="http://www.w3.org/2000/svg">
<g clip-path="url(#clip0_141_9160)">
<path d="M22.5 4.01001C21.5 4.50001 20.52 4.69901 19.5 5.00001C18.379 3.73501 16.717 3.66501 15.12 4.26301C13.523 4.86101 12.477 6.32301 12.5 8.00001V9.00001C9.255 9.08301 6.365 7.60501 4.5 5.00001C4.5 5.00001 0.318 12.433 8.5 16C6.628 17.247 4.761 18.088 2.5 18C5.808 19.803 9.413 20.423 12.534 19.517C16.114 18.477 19.056 15.794 20.185 11.775C20.5218 10.5527 20.689 9.28987 20.682 8.02201C20.68 7.77301 22.192 5.25001 22.5 4.00901V4.01001Z" fill="#101010"/>
<path fill-rule="evenodd" clip-rule="evenodd" d="M19.7187 4.15712C18.3339 2.91543 16.4715 2.95587 14.8571 3.56039C12.9824 4.26237 11.7248 5.99559 11.7501 8.00467V8.24003C9.05867 8.09632 6.69119 6.77189 5.1099 4.56317C4.96066 4.35471 4.71528 4.23693 4.45928 4.25088C4.20328 4.26482 3.97214 4.40857 3.84643 4.63201L4.50008 4.99977C3.84643 4.63201 3.84623 4.63237 3.84601 4.63276L3.84549 4.63368L3.84417 4.63605L3.84041 4.64283L3.82859 4.66448C3.81886 4.68248 3.80551 4.70754 3.78906 4.73933C3.75616 4.80288 3.71078 4.89344 3.65706 5.00823C3.54976 5.23754 3.40844 5.56512 3.26683 5.96846C2.98508 6.77097 2.6943 7.89571 2.68186 9.15474C2.66938 10.4195 2.93833 11.8324 3.78957 13.1773C4.46566 14.2455 5.48689 15.2357 6.95728 16.0691C5.54437 16.8585 4.13918 17.313 2.52925 17.2503C2.18118 17.2368 1.86961 17.4647 1.77704 17.8005C1.68448 18.1363 1.8353 18.4916 2.14115 18.6583C5.57559 20.5302 9.38593 21.2116 12.7432 20.237L12.7433 20.237C16.5583 19.1287 19.7042 16.2596 20.9071 11.9776L20.9081 11.974C21.2529 10.7227 21.4291 9.43117 21.4322 8.1336C21.4328 8.13238 21.4333 8.13113 21.4339 8.12987C21.4673 8.05362 21.52 7.94438 21.5921 7.80111C21.6711 7.64392 21.7612 7.46963 21.8611 7.27628C21.9479 7.10826 22.0422 6.92584 22.1431 6.72774C22.5448 5.9393 23.0387 4.93118 23.2222 4.21246C23.2405 4.14742 23.2501 4.07933 23.2501 4.00977V4.00877C23.2501 3.62975 22.9673 3.3103 22.5911 3.26431C22.4295 3.24456 22.2726 3.2779 22.1388 3.3515C21.4612 3.67934 20.8145 3.85642 20.0832 4.05668C19.9642 4.0893 19.8428 4.12252 19.7187 4.15712ZM21.173 5.30899C20.9055 5.38851 20.6424 5.46034 20.3866 5.5302C20.1552 5.59337 19.9298 5.65493 19.7124 5.7191C19.4333 5.80145 19.1317 5.71496 18.9388 5.49718C18.1055 4.5569 16.8253 4.4251 15.3831 4.96514C14.0654 5.45854 13.2316 6.64685 13.25 7.98948L13.2501 7.99977V8.99976C13.2501 9.40651 12.9259 9.73912 12.5193 9.74952C9.45855 9.82781 6.68458 8.61341 4.69433 6.43084C4.69027 6.44227 4.6862 6.45377 4.68214 6.46535C4.43545 7.168 4.19211 8.12445 4.18179 9.16955C4.17153 10.2089 4.3912 11.3231 5.05703 12.3751C5.72178 13.4254 6.86649 14.4694 8.7998 15.3123C9.05138 15.4219 9.22297 15.6603 9.24716 15.9337C9.27135 16.207 9.14429 16.4718 8.91587 16.624C7.75688 17.396 6.56473 18.0409 5.26008 18.4129C7.6984 19.2667 10.157 19.4258 12.3249 18.7965C15.6693 17.825 18.407 15.3288 19.4625 11.5738C19.7807 10.4183 19.9387 9.22447 19.9321 8.02592L20.6821 8.02177L19.9321 8.02779C19.9309 7.87719 19.9748 7.74872 19.9877 7.71083L19.9887 7.70781C20.0096 7.64645 20.0354 7.58401 20.0601 7.52761C20.1102 7.41338 20.1777 7.27497 20.2519 7.1273C20.331 6.97004 20.4297 6.77899 20.5354 6.57431C20.6233 6.40404 20.7161 6.22433 20.8066 6.04679C20.9324 5.7998 21.0568 5.55076 21.173 5.30899Z" fill="#101010"/>
</g>
<defs>
<clipPath id="clip0_141_9160">
<rect width="24" height="24" fill="white" transform="translate(0.5)"/>
</clipPath>
</defs>
</svg>
