<svg width="29" height="28" viewBox="0 0 29 28" fill="none" xmlns="http://www.w3.org/2000/svg">
<g clip-path="url(#clip0_141_9150)">
<path d="M21.4994 4.66699H7.49935C6.21068 4.66699 5.16602 5.71166 5.16602 7.00033V21.0003C5.16602 22.289 6.21068 23.3337 7.49935 23.3337H21.4994C22.788 23.3337 23.8327 22.289 23.8327 21.0003V7.00033C23.8327 5.71166 22.788 4.66699 21.4994 4.66699Z" fill="#101010"/>
<path fill-rule="evenodd" clip-rule="evenodd" d="M7.43387 5.50628C6.64489 5.50628 6.0053 6.14587 6.0053 6.93485V20.6491C6.0053 21.4381 6.64489 22.0777 7.43387 22.0777H21.1482C21.9371 22.0777 22.5767 21.4381 22.5767 20.6491V6.93485C22.5767 6.14587 21.9371 5.50628 21.1482 5.50628H7.43387ZM4.29102 6.93485C4.29102 5.1991 5.69812 3.79199 7.43387 3.79199H21.1482C22.8839 3.79199 24.291 5.1991 24.291 6.93485V20.6491C24.291 22.3849 22.8839 23.792 21.1482 23.792H7.43387C5.69812 23.792 4.29102 22.3849 4.29102 20.6491V6.93485Z" fill="#101010"/>
<path fill-rule="evenodd" clip-rule="evenodd" d="M9.72042 11.791C10.1938 11.791 10.5776 12.1748 10.5776 12.6482V18.3624C10.5776 18.8358 10.1938 19.2196 9.72042 19.2196C9.24704 19.2196 8.86328 18.8358 8.86328 18.3624V12.6482C8.86328 12.1748 9.24704 11.791 9.72042 11.791Z" fill="#F8EEFA"/>
<path fill-rule="evenodd" clip-rule="evenodd" d="M9.72042 8.3623C10.1938 8.3623 10.5776 8.74606 10.5776 9.21945V9.23088C10.5776 9.70426 10.1938 10.088 9.72042 10.088C9.24704 10.088 8.86328 9.70426 8.86328 9.23088V9.21945C8.86328 8.74606 9.24704 8.3623 9.72042 8.3623Z" fill="#F8EEFA"/>
<path fill-rule="evenodd" clip-rule="evenodd" d="M14.2907 11.791C14.7641 11.791 15.1479 12.1748 15.1479 12.6482V18.3624C15.1479 18.8358 14.7641 19.2196 14.2907 19.2196C13.8173 19.2196 13.4336 18.8358 13.4336 18.3624V12.6482C13.4336 12.1748 13.8173 11.791 14.2907 11.791Z" fill="#F8EEFA"/>
<path fill-rule="evenodd" clip-rule="evenodd" d="M14.3541 12.7115C14.9435 12.1221 15.7429 11.791 16.5765 11.791C17.41 11.791 18.2094 12.1221 18.7988 12.7115C19.3882 13.3009 19.7193 14.1003 19.7193 14.9339V18.3624C19.7193 18.8358 19.3356 19.2196 18.8622 19.2196C18.3888 19.2196 18.005 18.8358 18.005 18.3624V14.9339C18.005 14.555 17.8545 14.1916 17.5866 13.9237C17.3187 13.6558 16.9553 13.5053 16.5765 13.5053C16.1976 13.5053 15.8342 13.6558 15.5663 13.9237C15.2984 14.1916 15.1479 14.555 15.1479 14.9339C15.1479 15.4073 14.7641 15.791 14.2907 15.791C13.8173 15.791 13.4336 15.4073 13.4336 14.9339C13.4336 14.1003 13.7647 13.3009 14.3541 12.7115Z" fill="#F8EEFA"/>
</g>
<defs>
<clipPath id="clip0_141_9150">
<rect width="28" height="28" fill="white" transform="translate(0.5)"/>
</clipPath>
</defs>
</svg>
