<svg width="20" height="16" viewBox="0 0 20 16" fill="none" xmlns="http://www.w3.org/2000/svg">
<path d="M16.9312 1.74315C15.6562 1.16815 14.2896 0.743149 12.8604 0.501482C12.8477 0.499039 12.8345 0.500613 12.8227 0.505988C12.8109 0.511363 12.8011 0.520272 12.7946 0.531482C12.6196 0.838982 12.4246 1.23982 12.2879 1.55648C10.7721 1.33001 9.23115 1.33001 7.7154 1.55648C7.56318 1.20553 7.39152 0.863335 7.20123 0.531482C7.19478 0.520134 7.18503 0.511023 7.17326 0.505365C7.1615 0.499707 7.14829 0.497771 7.1354 0.499815C5.70707 0.741482 4.3404 1.16648 3.06457 1.74232C3.05359 1.74692 3.04429 1.75477 3.0379 1.76482C0.444567 5.57731 -0.266266 9.29565 0.0829005 12.9673C0.0838721 12.9763 0.0866635 12.985 0.0911046 12.9929C0.0955458 13.0008 0.101544 13.0077 0.108734 13.0131C1.62239 14.1152 3.31068 14.9547 5.1029 15.4965C5.11539 15.5003 5.12876 15.5003 5.14124 15.4965C5.15373 15.4926 5.16476 15.485 5.1729 15.4748C5.55856 14.959 5.90031 14.4118 6.19457 13.839C6.19865 13.8311 6.201 13.8225 6.20147 13.8137C6.20193 13.8049 6.2005 13.7961 6.19726 13.7879C6.19402 13.7796 6.18905 13.7722 6.18269 13.7661C6.17633 13.7599 6.16873 13.7553 6.1604 13.7523C5.62207 13.5496 5.10047 13.3049 4.6004 13.0206C4.59141 13.0155 4.58384 13.0082 4.57836 12.9995C4.57289 12.9907 4.56967 12.9807 4.56901 12.9704C4.56835 12.96 4.57026 12.9497 4.57458 12.9403C4.57889 12.9309 4.58548 12.9227 4.59373 12.9165C4.69873 12.839 4.80373 12.7581 4.90373 12.6773C4.91273 12.67 4.92358 12.6654 4.93505 12.6639C4.94653 12.6625 4.95819 12.6642 4.96873 12.669C8.24123 14.139 11.7854 14.139 15.0196 12.669C15.0301 12.6639 15.0419 12.662 15.0536 12.6633C15.0652 12.6646 15.0762 12.6692 15.0854 12.6765C15.1854 12.7581 15.2896 12.839 15.3954 12.9165C15.4037 12.9226 15.4104 12.9307 15.4149 12.94C15.4193 12.9493 15.4214 12.9596 15.4209 12.9699C15.4204 12.9802 15.4174 12.9903 15.412 12.9991C15.4067 13.008 15.3993 13.0154 15.3904 13.0206C14.8921 13.3073 14.3737 13.5498 13.8296 13.7515C13.8212 13.7545 13.8136 13.7593 13.8072 13.7655C13.8009 13.7717 13.7959 13.7792 13.7927 13.7875C13.7894 13.7958 13.788 13.8047 13.7885 13.8135C13.789 13.8224 13.7913 13.8311 13.7954 13.839C14.0954 14.4115 14.4387 14.9565 14.8162 15.474C14.8241 15.4846 14.835 15.4925 14.8475 15.4967C14.8601 15.5009 14.8736 15.5011 14.8862 15.4973C16.6815 14.957 18.3726 14.1171 19.8879 13.0131C19.8953 13.008 19.9015 13.0013 19.9061 12.9935C19.9107 12.9858 19.9136 12.9771 19.9146 12.9681C20.3312 8.72315 19.2162 5.03481 16.9571 1.76648C16.9515 1.75586 16.9424 1.74758 16.9312 1.74315ZM6.68373 10.7315C5.69873 10.7315 4.88623 9.84065 4.88623 8.74815C4.88623 7.65481 5.6829 6.76481 6.68373 6.76481C7.69207 6.76481 8.49707 7.66231 8.48123 8.74815C8.48123 9.84148 7.68457 10.7315 6.68373 10.7315ZM13.3296 10.7315C12.3437 10.7315 11.5321 9.84065 11.5321 8.74815C11.5321 7.65481 12.3279 6.76481 13.3296 6.76481C14.3379 6.76481 15.1429 7.66231 15.1271 8.74815C15.1271 9.84148 14.3387 10.7315 13.3296 10.7315Z" fill="#101010"/>
</svg>
