<svg width="21" height="20" viewBox="0 0 21 20" fill="none" xmlns="http://www.w3.org/2000/svg">
<path d="M15.0717 0.857422H5.92885C3.40412 0.857422 1.35742 2.90412 1.35742 5.42885V14.5717C1.35742 17.0964 3.40412 19.1431 5.92885 19.1431H15.0717C17.5964 19.1431 19.6431 17.0964 19.6431 14.5717V5.42885C19.6431 2.90412 17.5964 0.857422 15.0717 0.857422Z" fill="#101010"/>
<path fill-rule="evenodd" clip-rule="evenodd" d="M5.92857 1.71429C3.87723 1.71429 2.21429 3.37723 2.21429 5.42857V14.5714C2.21429 16.6228 3.87723 18.2857 5.92857 18.2857H15.0714C17.1228 18.2857 18.7857 16.6228 18.7857 14.5714V5.42857C18.7857 3.37723 17.1228 1.71429 15.0714 1.71429H5.92857ZM0.5 5.42857C0.5 2.43045 2.93045 0 5.92857 0H15.0714C18.0695 0 20.5 2.43045 20.5 5.42857V14.5714C20.5 17.5695 18.0695 20 15.0714 20H5.92857C2.93045 20 0.5 17.5695 0.5 14.5714V5.42857Z" fill="#101010"/>
<path fill-rule="evenodd" clip-rule="evenodd" d="M10.5006 7.42913C9.0804 7.42913 7.92913 8.5804 7.92913 10.0006C7.92913 11.4207 9.0804 12.572 10.5006 12.572C11.9207 12.572 13.072 11.4207 13.072 10.0006C13.072 8.5804 11.9207 7.42913 10.5006 7.42913ZM6.21484 10.0006C6.21484 7.63362 8.13362 5.71484 10.5006 5.71484C12.8675 5.71484 14.7863 7.63362 14.7863 10.0006C14.7863 12.3675 12.8675 14.2863 10.5006 14.2863C8.13362 14.2863 6.21484 12.3675 6.21484 10.0006Z" fill="white"/>
<path fill-rule="evenodd" clip-rule="evenodd" d="M15.6423 4C16.1157 4 16.4994 4.38376 16.4994 4.85714V4.85777C16.4994 5.33115 16.1157 5.71491 15.6423 5.71491C15.1689 5.71491 14.7852 5.33115 14.7852 4.85777V4.85714C14.7852 4.38376 15.1689 4 15.6423 4Z" fill="white"/>
</svg>
